<svg width="127" height="126" viewBox="0 0 127 126" fill="none" xmlns="http://www.w3.org/2000/svg">
<g clip-path="url(#clip0_57_28616)">
<path d="M101.638 81.4394C101.957 80.9674 102.15 80.8549 102.236 80.6486C104.866 65.7692 102.288 51.869 93.2368 39.5296C90.959 36.4081 87.9226 33.9367 84.3813 32.1499C76.8241 28.2544 68.0289 29.6594 62.1166 35.6547C59.0173 38.7617 56.5997 42.278 55.9063 46.7409C57.2721 48.3126 58.6844 49.8311 59.8501 51.4153C61.7394 54.0088 62.5956 56.9181 61.865 60.1278C61.3786 62.5187 59.9826 64.1128 58.3818 64.2131C56.2807 64.3448 54.7823 63.0326 54.1564 61.2639C53.2816 58.8077 52.6999 56.2327 52.2718 53.6983C52.0066 52.0576 52.1346 50.2919 52.1695 48.6324C45.3313 44.2399 37.7832 47.676 34.3418 56.6803C35.0119 57.6427 35.7355 58.652 36.3591 59.6675C38.5857 63.4954 39.2721 67.5704 37.6038 71.7428C36.9615 73.3399 35.9587 74.809 33.9042 74.8875C32.3499 74.9347 30.8515 73.6225 30.0976 71.46C28.9529 68.0163 29.1089 64.4911 29.6185 60.994C29.8349 59.7751 30.0513 58.5562 30.3212 57.3843C20.0254 50.2454 6.08348 52.7766 2.663 64.2404C2.01385 63.578 1.37865 63.1156 1.2437 62.6218C1.10178 62.0281 1.39962 61.2561 1.71141 60.6841C4.81071 55.4176 9.02218 51.6884 15.3649 51.1402C20.1068 50.6923 24.6394 51.5633 29.0881 53.3937C29.7093 53.6561 30.3306 53.9185 30.9983 54.1277C31.0519 54.1746 31.1984 54.1152 31.5451 54.0432C31.9104 53.5181 32.4223 52.9336 32.8272 52.2554C37.9392 44.1508 43.1232 42.1183 52.6978 44.6821C53.0421 43.857 53.4796 42.9256 53.817 42.0005C56.0088 36.6904 59.4851 32.5051 64.5062 29.5789C72.6639 24.7988 82.3129 25.55 90.1168 31.5393C94.363 34.7885 97.6111 38.8537 100.101 43.569C106.073 54.9965 108.165 66.9685 105.282 79.6542C105.177 80.3136 104.972 80.9793 104.868 81.6387C104.875 81.7387 104.935 81.8856 105.117 82.3262C107.127 80.8945 108.456 79.0534 109.838 77.2593C111.227 75.5652 112.555 73.7242 114.031 71.8238C115.282 73.2017 115.166 74.4143 114.696 75.5989C114.086 76.9428 113.584 78.3805 112.707 79.4901C110.301 82.4532 107.795 85.4227 105.075 88.2046C102.913 90.3489 101.124 89.9086 100.135 87.2587C98.0829 81.612 96.0773 75.9121 94.0717 70.2123C93.7553 69.2779 93.639 68.331 93.4017 67.0904C95.4632 67.1118 95.9471 68.2868 96.4241 69.3617C98.0109 73.3803 99.7373 77.2396 101.638 81.4394ZM33.6948 71.8874C36.4241 67.7991 36.0705 63.4521 32.8922 60.387C32.357 64.2373 31.7543 67.8407 33.6948 71.8874ZM57.7187 61.1912C59.7151 57.4 58.8775 54.0375 55.3339 51.4975C55.278 55.0164 55.3477 58.176 57.7187 61.1912Z" fill="white"/>
</g>
<defs>
<clipPath id="clip0_57_28616">
<rect width="82.2923" height="96.5064" fill="white" transform="translate(0 61.9082) rotate(-48.7893)"/>
</clipPath>
</defs>
</svg>
