<svg width="30" height="27" viewBox="0 0 30 27" fill="none" xmlns="http://www.w3.org/2000/svg">
<path d="M15 0C6.73 0 0 5.38 0 12C0 16.12 2.65 19.95 6.97 22.14C6.83 23.71 6.09 24.34 4.56 25.11C4.14 25.32 3.93 25.78 4.03 26.23C4.13 26.68 4.54 27 5 27C8.82 27 11.52 26.49 13.76 23.96C14.19 23.99 14.6 24 15 24C23.27 24 30 18.62 30 12C30 5.38 23.27 0 15 0ZM15 22C14.5 22 13.98 21.98 13.42 21.92C13.09 21.89 12.76 22.03 12.55 22.29C11.41 23.72 10.17 24.47 8.13 24.8C8.69 23.98 9 22.94 8.99 21.51C8.99 21.12 8.76 20.77 8.4 20.6C4.45 18.81 2 15.52 2 12C2 6.49 7.83 2 15 2C22.17 2 28 6.49 28 12C28 17.51 22.17 22 15 22Z" fill="white"/>
<path d="M20.53 11.1504L12.53 6.15042C12.22 5.96042 11.83 5.95042 11.52 6.12042C11.2 6.30042 11 6.64042 11 7.00042V17.0004C11 17.3604 11.2 17.7004 11.52 17.8704C11.67 17.9604 11.83 18.0004 12 18.0004C12.18 18.0004 12.37 17.9504 12.53 17.8504L20.53 12.8504C20.82 12.6704 21 12.3404 21 12.0004C21 11.6604 20.82 11.3304 20.53 11.1504ZM13 15.2004V8.80042L18.11 12.0004L13 15.2004Z" fill="white"/>
<path d="M25.73 7.96C23.69 4.9 19.58 3 15 3C14.45 3 14 3.45 14 4C14 4.55 14.45 5 15 5C18.86 5 22.42 6.6 24.07 9.06C24.26 9.35 24.58 9.51 24.9 9.51C25.09 9.51 25.28 9.46 25.45 9.34C25.92 9.04 26.04 8.41 25.73 7.96Z" fill="white"/>
</svg>
