<svg width="20" height="18" viewBox="0 0 20 18" fill="none" xmlns="http://www.w3.org/2000/svg">
<path d="M13.5553 11.3993H15.6228C15.9283 11.3993 16.1728 11.6308 16.1728 11.9188V14.0472C16.1728 14.3351 15.9283 14.5666 15.6228 14.5666H13.5553C13.2509 14.5666 13.0053 14.3351 13.0053 14.0472V11.9188C13.0053 11.6311 13.2509 11.3993 13.5553 11.3993ZM8.9937 11.3993H11.0612C11.3668 11.3993 11.6112 11.6308 11.6112 11.9188V14.0472C11.6112 14.3351 11.3668 14.5666 11.0612 14.5666H8.9937C8.68962 14.5666 8.4437 14.3351 8.4437 14.0472V11.9188C8.4437 11.6311 8.68962 11.3993 8.9937 11.3993ZM4.43213 11.3993H6.49988C6.80397 11.3993 7.04964 11.6308 7.04964 11.9188V14.0472C7.04964 14.3351 6.80397 14.5666 6.49988 14.5666H4.43213C4.12657 14.5666 3.88213 14.3351 3.88213 14.0472V11.9188C3.88213 11.6311 4.12657 11.3993 4.43213 11.3993ZM13.5553 6.83751H15.6228C15.9283 6.83751 16.1728 7.069 16.1728 7.35695V9.48582C16.1728 9.77329 15.9283 10.0053 15.6228 10.0053H13.5553C13.2509 10.0053 13.0053 9.77329 13.0053 9.48582V7.35695C13.0053 7.06924 13.2509 6.83751 13.5553 6.83751ZM8.9937 6.83751H11.0612C11.3668 6.83751 11.6112 7.069 11.6112 7.35695V9.48582C11.6112 9.77329 11.3668 10.0053 11.0612 10.0053H8.9937C8.68962 10.0053 8.4437 9.77329 8.4437 9.48582V7.35695C8.4437 7.06924 8.68962 6.83751 8.9937 6.83751ZM5.2405 0.0732422C4.78608 0.0732422 4.41942 0.439909 4.41942 0.893842V1.50153H2.70317C1.59437 1.50153 0.70166 2.42211 0.70166 3.56538V15.8832C0.70166 17.0262 1.59413 17.9465 2.70317 17.9465H17.3517C18.4605 17.9465 19.353 17.026 19.353 15.8832V3.56586C19.353 2.42235 18.4608 1.50202 17.3517 1.50202H15.6355V2.14613C15.6355 3.29111 14.6272 3.55926 13.9879 3.55926V0.894087C13.9879 0.440154 13.6213 0.0734867 13.1669 0.0734867H12.1458C11.6914 0.0734867 11.3247 0.440154 11.3247 0.894087V1.50178H8.73019V2.14589C8.73019 3.29086 7.72186 3.55902 7.08288 3.55902V0.894087C7.08288 0.440154 6.71622 0.0734867 6.26179 0.0734867H5.2405V0.0732422Z" fill="#FEA500"/>
</svg>
