<svg width="18" height="22" viewBox="0 0 18 22" fill="none" xmlns="http://www.w3.org/2000/svg">
<path fill-rule="evenodd" clip-rule="evenodd" d="M9.0209 0.916016C4.46824 0.916016 0.750725 4.62458 0.750732 9.17721C0.750743 12.3396 2.75097 15.2234 4.65449 17.3649C6.55802 19.5063 8.46501 20.9297 8.46501 20.9297C8.6242 21.0496 8.81805 21.1144 9.01731 21.1144C9.21657 21.1144 9.41043 21.0496 9.56961 20.9297C9.56961 20.9297 11.4748 19.5063 13.3783 17.3649C15.2819 15.2234 17.2821 12.3396 17.2821 9.17721C17.2821 4.62458 13.5736 0.916016 9.0209 0.916016ZM9.01731 5.50836C9.9913 5.50836 10.9254 5.89528 11.6141 6.58399C12.3028 7.27271 12.6898 8.20681 12.6898 9.1808C12.6898 10.1548 12.3028 11.0889 11.6141 11.7776C10.9254 12.4663 9.9913 12.8532 9.01731 12.8532C8.04332 12.8532 7.10922 12.4663 6.4205 11.7776C5.73179 11.0889 5.34487 10.1548 5.34487 9.1808C5.34487 8.20681 5.73179 7.27271 6.4205 6.58399C7.10922 5.89528 8.04332 5.50836 9.01731 5.50836Z" fill="#FEA500"/>
</svg>
