<svg width="22" height="22" viewBox="0 0 22 22" fill="none" xmlns="http://www.w3.org/2000/svg">
<g clip-path="url(#clip0_57_28274)">
<path d="M15.4438 0.900961C16.0178 0.51682 16.7294 0.607485 17.0856 0.917289C17.2399 1.05178 17.3907 1.2808 17.2317 1.60909C16.8978 2.30174 16.1867 2.74905 15.421 2.74905H13.2287C13.3319 3.01545 13.389 3.30463 13.389 3.60713C13.389 3.87655 13.3435 4.13565 13.261 4.37756H18.4168C18.7605 3.72444 18.7855 2.97463 18.4791 2.28756L17.8509 0.877328C17.7774 0.714047 17.6648 0.561938 17.5119 0.428734C16.9782 -0.0344686 15.9469 -0.214937 15.0833 0.362563L12.7157 1.94768C12.8661 2.10323 12.9959 2.27854 13.0998 2.46975L15.4438 0.900961Z" fill="#FEA500"/>
<path d="M8.7398 4.37713C8.6573 4.13522 8.61175 3.87612 8.61175 3.6067C8.61175 3.3042 8.6689 3.01502 8.77203 2.74862H6.58105C5.81535 2.74862 5.10422 2.30088 4.76863 1.60823C4.60965 1.28038 4.76047 1.05135 4.91515 0.917289C5.10679 0.75057 5.40113 0.647445 5.72168 0.647445C5.99711 0.647445 6.29144 0.7235 6.55656 0.900961L8.90007 2.46975C9.00406 2.27811 9.13425 2.1028 9.28422 1.94768L6.91664 0.362563C6.05297 -0.214937 5.02172 -0.0344686 4.48933 0.428734C4.31875 0.576977 4.19757 0.748422 4.12625 0.933188L3.52168 2.28713C3.21488 2.9742 3.2398 3.72401 3.58398 4.37713H8.7398Z" fill="#FEA500"/>
<path d="M9.43895 4.37719H12.5606C12.6758 4.14473 12.7411 3.88305 12.7411 3.60676C12.7411 2.64727 11.9591 1.86523 10.9996 1.86523C10.0401 1.86523 9.25806 2.64727 9.25806 3.60676C9.25849 3.88348 9.3238 4.14473 9.43895 4.37719Z" fill="#FEA500"/>
<path d="M0.696045 6.38738V8.51648C0.696045 9.15629 1.13948 9.69426 1.7346 9.83992H9.7994V5.02441H2.05858C1.30749 5.02441 0.696045 5.63586 0.696045 6.38738Z" fill="#FEA500"/>
<path d="M1.73499 20.1912C1.73499 21.1886 2.54624 21.9998 3.54354 21.9998H9.79979V10.4863H1.73499V20.1912Z" fill="#FEA500"/>
<path d="M19.9414 5.02441H12.2014V9.83949H20.2649C20.8605 9.69383 21.3035 9.15586 21.3035 8.51605V6.38695C21.3039 5.63586 20.6925 5.02441 19.9414 5.02441Z" fill="#FEA500"/>
<path d="M12.2014 21.9998H18.4564C19.4537 21.9998 20.2649 21.1886 20.2649 20.1912V10.4863H12.2014V21.9998Z" fill="#FEA500"/>
</g>
<defs>
<clipPath id="clip0_57_28274">
<rect width="22" height="22" fill="white"/>
</clipPath>
</defs>
</svg>
