<svg width="24" height="16" viewBox="0 0 24 16" fill="none" xmlns="http://www.w3.org/2000/svg">
<path d="M6.82487 9.65317C8.85194 9.65317 10.4952 8.0099 10.4952 5.98283C10.4952 3.95576 8.85194 2.3125 6.82487 2.3125C4.79781 2.3125 3.15454 3.95576 3.15454 5.98283C3.15454 8.0099 4.79781 9.65317 6.82487 9.65317Z" fill="#FEA500"/>
<path fill-rule="evenodd" clip-rule="evenodd" d="M23.6155 13.3349C23.6155 12.3523 23.037 11.4054 21.9569 10.6688C20.6222 9.75878 18.475 9.14453 16.0473 9.14453C13.6195 9.14453 11.4724 9.75878 10.1377 10.6688C9.05763 11.4054 8.47913 12.3523 8.47913 13.3349V14.3651C8.47913 14.7605 8.63621 15.1386 8.91463 15.4181C9.19413 15.6965 9.57221 15.8536 9.96763 15.8536H22.128C22.5224 15.8536 22.9005 15.6965 23.18 15.4181C23.4584 15.1386 23.6155 14.7605 23.6155 14.3651V13.3349Z" fill="#FEA500"/>
<path fill-rule="evenodd" clip-rule="evenodd" d="M7.87034 15.8537C7.56375 15.4214 7.39584 14.9025 7.39584 14.3652V13.3349C7.39584 12.1909 7.94184 11.0556 9.04684 10.1358C8.35675 10.0015 7.60817 9.92676 6.82492 9.92676C4.74167 9.92676 2.9 10.4576 1.75492 11.2387C0.800503 11.8887 0.296753 12.7293 0.296753 13.5971V14.4692C0.296753 14.8364 0.44192 15.1885 0.70192 15.4485C0.96192 15.7074 1.31292 15.8537 1.68017 15.8537H7.87034Z" fill="#FEA500"/>
<path d="M16.0474 8.52617C18.3616 8.52617 20.2377 6.6501 20.2377 4.33584C20.2377 2.02158 18.3616 0.145508 16.0474 0.145508C13.7331 0.145508 11.8571 2.02158 11.8571 4.33584C11.8571 6.6501 13.7331 8.52617 16.0474 8.52617Z" fill="#FEA500"/>
</svg>
