<svg width="50" height="50" viewBox="0 0 50 50" fill="none" xmlns="http://www.w3.org/2000/svg">
<g clip-path="url(#clip0_57_28190)">
<path d="M27.1756 9.20094C27.2096 9.24366 27.2435 9.28601 27.2859 9.33674H30.0741C30.5838 9.3356 30.9973 8.92284 30.9984 8.4128C30.9984 7.89589 31.3376 7.64183 31.8461 7.64183H36.38C36.5116 7.64221 36.6428 7.62504 36.7699 7.59109C37.7686 7.26302 38.3652 6.24103 38.16 5.21027C37.5668 3.32118 36.0328 0.847656 32.0319 0.847656C25.6924 0.847656 24.2859 5.69322 27.0654 9.0739C27.0997 9.11854 27.1363 9.16088 27.1756 9.20094Z" fill="#C73634"/>
<path d="M38.3876 40.7262L24.5109 26.7571L23.5576 25.7969L23.55 25.79C23.5332 25.8072 23.5213 25.8274 23.5034 25.8434C22.9442 26.3661 22.1934 26.6335 21.4297 26.5828L38.491 45.7636C39.085 46.4316 39.986 46.7387 40.8642 46.5723L46.9431 45.4248C48.5217 45.2913 49.7134 43.9352 49.6432 42.3524C49.6646 41.7256 49.4048 41.1217 48.9344 40.7059C48.4645 40.2905 47.8331 40.1066 47.2136 40.205C47.093 40.223 46.9675 40.244 46.8348 40.2695L40.6597 41.433C39.8323 41.5883 38.9812 41.3236 38.3876 40.7262Z" fill="#C73634"/>
<path d="M22.066 49.5439C22.7054 49.964 23.4889 50.1017 24.2332 49.9254C24.9771 49.7488 25.6157 49.2739 25.9983 48.612L26.8543 47.1879L21.905 44.7133C21.8863 44.7052 21.8692 44.6938 21.8543 44.6797L21.2611 45.6879C20.4718 46.985 20.8239 48.6715 22.066 49.5439Z" fill="#C73634"/>
<path d="M4.82005 49.5272L6.15027 48.6796L2.98932 44.1541C2.98093 44.1457 2.97254 44.1289 2.96377 44.1201L1.71823 44.9083C0.44256 45.7651 0.103042 47.4932 0.959466 48.7688C1.81627 50.0441 3.54438 50.3836 4.82005 49.5272Z" fill="#C73634"/>
<path d="M7.58275 47.7645C11.1645 45.4871 14.2327 42.4883 16.5914 38.9592L17.1423 38.1203C17.4845 37.6076 18.0597 37.2994 18.6762 37.2982H26.2188L22.7188 43.2222L27.6681 45.6965C27.6887 45.7061 27.7085 45.7175 27.7272 45.7305L31.1342 40.0441L27.6002 36.0695L18.1509 25.4502C17.4898 26.9883 16.6959 28.4658 15.7777 29.8658L11.0828 37.0014C9.62558 39.2174 7.71665 41.1004 5.48079 42.5272L4.39624 43.2135L7.56558 47.739C7.57436 47.7477 7.57436 47.7561 7.58275 47.7645Z" fill="#C73634"/>
<path d="M13.7524 12.7125C11.887 14.4627 11.7886 17.3921 13.532 19.2637L17.8286 23.8487L21.7609 19.9164L20.5916 18.7044C20.5447 18.6563 20.5047 18.6022 20.473 18.5434L18.5068 16.4331L22.1679 15.9246L21.5663 17.3482C21.6582 17.3921 21.7418 17.4524 21.812 17.5264L25.3372 21.1707C26.3543 22.2468 26.3459 24.1111 25.7103 25.5604L27.9561 27.8233L29.6087 25.1198L29.7018 27.0691C29.7353 28.0652 29.8803 29.0544 30.134 30.0184L36.3292 36.2556L38.7108 34.5946C38.7284 34.5801 38.7486 34.5687 38.7699 34.5606L36.8038 31.1708C35.8436 29.487 35.2973 27.5986 35.2107 25.6622L34.9223 19.0264C34.8514 17.5169 34.0518 16.1359 32.7784 15.323L29.5953 13.2973C30.4403 13.7909 31.4013 14.0515 32.3801 14.0515C35.1581 14.0564 37.4493 11.877 37.5835 9.10254C37.4733 9.14488 37.3547 9.18723 37.236 9.22118C36.9575 9.30015 36.6695 9.3402 36.38 9.33982H32.524C32.1379 10.3576 31.1636 11.0317 30.0749 11.0347H27.4983C27.8951 11.8694 28.51 12.5813 29.2783 13.0947L26.1593 11.111C25.1648 10.474 23.9624 10.2462 22.8035 10.4751L15.3455 11.8992C14.7477 12.0129 14.195 12.2952 13.7524 12.7125Z" fill="#C73634"/>
<path d="M39.592 39.5348C39.64 39.5818 39.6942 39.6214 39.753 39.6535C40.4305 38.7677 40.511 37.5618 39.9563 36.594L39.6259 36.0176L37.5411 37.4752L39.592 39.5348Z" fill="#C73634"/>
<path d="M23.566 23.4077L24.3713 24.2214C24.5842 23.5877 24.4869 22.8911 24.1085 22.3399L22.9389 21.1279L19.3118 24.7554L21.5492 24.8909C21.8181 24.9042 22.0832 24.8199 22.2949 24.6536L23.566 23.4077Z" fill="#C73634"/>
<path d="M12.3539 1.69492H21.6761C22.1442 1.69492 22.5238 1.31535 22.5238 0.84765C22.5238 0.379573 22.1442 0 21.6761 0H12.3539C11.8858 0 11.5066 0.379573 11.5066 0.84765C11.5066 1.31535 11.8858 1.69492 12.3539 1.69492Z" fill="#C73634"/>
<path d="M21.6762 5.08457C22.1443 5.08457 22.5238 4.70538 22.5238 4.2373C22.5238 3.76922 22.1443 3.38965 21.6762 3.38965H17.4391C16.971 3.38965 16.5914 3.76922 16.5914 4.2373C16.5914 4.70538 16.971 5.08457 17.4391 5.08457H21.6762Z" fill="#C73634"/>
<path d="M7.26916 25.4244H13.2016C13.6696 25.4244 14.0488 25.0448 14.0488 24.5768C14.0488 24.1087 13.6696 23.7295 13.2016 23.7295H7.26916C6.80108 23.7295 6.42151 24.1087 6.42151 24.5768C6.42151 25.0448 6.80108 25.4244 7.26916 25.4244Z" fill="#C73634"/>
<path d="M13.2016 27.1191H10.6591C10.191 27.1191 9.8114 27.4987 9.8114 27.9664C9.8114 28.4345 10.191 28.8141 10.6591 28.8141H13.2016C13.6697 28.8141 14.0489 28.4345 14.0489 27.9664C14.0489 27.4987 13.6697 27.1191 13.2016 27.1191Z" fill="#C73634"/>
</g>
<defs>
<clipPath id="clip0_57_28190">
<rect width="50" height="50" fill="white"/>
</clipPath>
</defs>
</svg>
