<svg width="50" height="48" viewBox="0 0 50 48" fill="none" xmlns="http://www.w3.org/2000/svg">
<path fill-rule="evenodd" clip-rule="evenodd" d="M35.2691 47.0188C36.5409 47.0194 37.8118 46.9553 39.0771 46.827C39.3109 46.8029 39.5254 46.6868 39.6734 46.5042C39.8214 46.3217 39.8907 46.0878 39.8659 45.8542C39.8444 45.6193 39.7291 45.4031 39.5459 45.2544C39.3628 45.1057 39.1274 45.0372 38.8932 45.0644C32.9202 45.6773 24.3545 44.8195 19.8797 40.3871C19.6552 40.1646 19.3291 40.0789 19.0243 40.1621C18.7194 40.2452 18.4821 40.4848 18.4017 40.7904C18.3213 41.096 18.41 41.4213 18.6345 41.6437C22.6548 45.626 29.3255 47.0188 35.2691 47.0188Z" fill="#C73634"/>
<path fill-rule="evenodd" clip-rule="evenodd" d="M39.7651 16.3242C42.9056 16.6462 45.9437 17.6226 48.6837 19.1904C49.097 19.4215 49.619 19.2862 49.8678 18.8833C50.1166 18.4804 50.0039 17.9531 49.6123 17.687C46.6572 15.9863 43.3781 14.9245 39.987 14.5706C39.5023 14.5092 39.0596 14.8525 38.9983 15.3373C38.937 15.822 39.2803 16.2647 39.765 16.326L39.7651 16.3242Z" fill="#C73634"/>
<path fill-rule="evenodd" clip-rule="evenodd" d="M19.5905 36.5101C19.5073 36.1845 19.4631 35.8503 19.4588 35.5143V25.7865C19.4588 23.9886 20.6084 22.3535 22.546 21.0349C15.8709 18.1546 12.7377 15.0151 13.2444 11.69C14.0456 6.42896 23.7575 3.309 30.0709 2.85708C30.5655 2.82997 30.9532 2.42202 30.9552 1.92679C30.9541 1.67342 30.8518 1.43097 30.6712 1.25333C30.4906 1.07568 30.2465 0.97748 29.9931 0.980538H29.7508C16.8208 0.980538 2.3148 5.54463 0.25871 13.25C-0.959086 17.814 1.58604 25.4566 19.5905 36.5101Z" fill="#C73634"/>
<path fill-rule="evenodd" clip-rule="evenodd" d="M49.5265 35.5141V29.4775C46.9062 32.0324 41.6196 33.7454 35.377 33.7454C29.1344 33.7454 23.8478 32.0324 21.2274 29.4775V35.5141C21.3497 36.6998 21.9993 37.7674 22.9961 38.421V35.5141C22.9961 35.0257 23.392 34.6298 23.8804 34.6298C24.3688 34.6298 24.7647 35.0257 24.7647 35.5141V39.5387L24.793 39.5564C25.3574 39.8405 25.9386 40.0901 26.5334 40.3037V38.1671C26.5334 37.6787 26.9294 37.2828 27.4177 37.2828C27.9061 37.2828 28.3021 37.6787 28.3021 38.1671V40.8582C30.6151 41.4383 32.9923 41.7227 35.3769 41.7045C43.8411 41.7045 49.5265 38.5032 49.5265 35.5141Z" fill="#C73634"/>
<path fill-rule="evenodd" clip-rule="evenodd" d="M24.8532 21.7134C22.5539 22.8684 21.2273 24.3506 21.2273 25.7868C21.2273 28.7759 26.9128 31.9772 35.3769 31.9772C43.8409 31.9772 49.5264 28.7759 49.5264 25.7868C49.5264 22.7977 43.8409 19.5963 35.3769 19.5963C31.7823 19.5011 28.212 20.2112 24.9274 21.6746C24.9034 21.6889 24.8786 21.7019 24.8532 21.7134Z" fill="#C73634"/>
</svg>
