<svg width="50" height="50" viewBox="0 0 50 50" fill="none" xmlns="http://www.w3.org/2000/svg">
<g clip-path="url(#clip0_57_28169)">
<path d="M18.6029 27.25L18.5683 32.1353L15.7828 36.0457L20.8619 40.0074L24.5967 34.7221L23.49 32.0973L18.6029 27.25Z" fill="#C73634"/>
<path d="M12.2231 41.2334C11.7452 41.8977 11.8507 42.8164 12.4667 43.3551L16.4095 46.6542C17.192 47.3373 18.3885 47.2185 19.0214 46.3949C19.9114 45.2367 19.8957 43.6583 19.0669 42.5269L19.8138 41.4783L14.7347 37.5166L12.2231 41.2334Z" fill="#C73634"/>
<path d="M35.5494 15.3041C36.4364 14.4214 36.7893 13.2057 36.6088 12.0574C34.41 11.1239 32.8616 9.16771 32.4287 6.84594L30.8783 5.28792C29.5877 3.99091 27.5385 3.80682 26.0333 4.88393L28.4827 6.24045L19.1636 2.82493C18.6596 2.64016 18.1115 2.6109 17.5906 2.74126L7.10526 5.3625C5.66859 5.72166 4.79514 7.17742 5.1543 8.61408C5.51337 10.0507 6.96922 10.9244 8.40589 10.565L18.0919 8.14374L26.6376 11.2757L18.4594 9.645L10.8222 11.5542L7.84297 12.7688C6.47167 13.3279 5.81323 14.8927 6.37224 16.264C6.93145 17.6356 8.49642 18.2936 9.86742 17.7347L15.737 15.3418L14.9542 16.1436C12.6173 18.5373 12.9443 22.4463 15.6467 24.4182L25.2255 31.4082L28.9617 40.2691L35.1886 38.4736L30.8082 28.0852C30.5812 27.5468 30.2119 27.0805 29.7401 26.7361L19.8235 19.4996L27.3832 23.4304L35.5494 15.3041Z" fill="#C73634"/>
<path d="M43.6508 9.08285C45.5967 6.71039 45.2509 3.2097 42.8784 1.26386C40.5059 -0.681992 37.0053 -0.336154 35.0594 2.03631C33.1136 4.40877 33.4594 7.90945 35.8319 9.8553C38.2043 11.8012 41.705 11.4553 43.6508 9.08285Z" fill="#C73634"/>
<path d="M39.8812 45.1518C39.7279 43.5186 38.3788 42.281 36.7731 42.2318C36.7707 42.2262 36.7689 42.2206 36.7665 42.215L35.8948 40.1475L29.6678 41.9429L31.2772 45.7753C31.6222 46.5968 32.427 47.1306 33.3179 47.1289L38.1446 47.1198C39.1827 47.0875 39.9783 46.186 39.8812 45.1518Z" fill="#C73634"/>
<path d="M30.0495 48.295C29.5788 48.295 29.1973 48.6766 29.1973 49.1473C29.1973 49.6179 29.5788 49.9995 30.0495 49.9995H38.2574C40.9475 49.9995 43.1361 47.8109 43.1361 45.1208C43.1361 44.6501 42.7545 44.2686 42.2839 44.2686C41.8132 44.2686 41.4317 44.6501 41.4317 45.1208C41.4317 46.871 40.0077 48.2949 38.2575 48.2949C35.3934 48.295 32.906 48.295 30.0495 48.295Z" fill="#C73634"/>
<path d="M21.4455 46.9832C21.0787 46.6882 20.5423 46.7463 20.2473 47.113C19.1501 48.4766 17.1481 48.6935 15.7844 47.5962L9.38946 42.451C9.02266 42.1559 8.48616 42.214 8.19119 42.5807C7.89613 42.9474 7.95426 43.4839 8.32096 43.779L14.7159 48.9243C16.8146 50.6128 19.8912 50.2746 21.5753 48.1815C21.8704 47.8148 21.8122 47.2783 21.4455 46.9832Z" fill="#C73634"/>
</g>
<defs>
<clipPath id="clip0_57_28169">
<rect width="50" height="50" fill="white"/>
</clipPath>
</defs>
</svg>
