<svg width="50" height="50" viewBox="0 0 50 50" fill="none" xmlns="http://www.w3.org/2000/svg">
<path d="M42.9688 45.3129C41.0337 45.3954 39.1213 44.87 37.5 43.8105V45.7035C37.5 47.2137 39.9484 48.4379 42.9688 48.4379C45.9891 48.4379 48.4375 47.2137 48.4375 45.7035V43.8105C46.8162 44.87 44.9038 45.3954 42.9688 45.3129Z" fill="#C73634"/>
<path d="M42.9688 43.75C45.9891 43.75 48.4375 42.5258 48.4375 41.0156C48.4375 39.5055 45.9891 38.2812 42.9688 38.2812C39.9484 38.2812 37.5 39.5055 37.5 41.0156C37.5 42.5258 39.9484 43.75 42.9688 43.75Z" fill="#C73634"/>
<path d="M45.3125 0L34.1406 20.5469C34.1601 20.5513 34.1786 20.5593 34.1953 20.5703L38.5156 23.1641L48.4375 4.6875L48.5 0L45.3125 0Z" fill="#C73634"/>
<path d="M8.26564 37.5C7.24705 37.4998 6.25611 37.8313 5.44277 38.4445C4.62942 39.0577 4.03794 39.9191 3.75783 40.8984L3.3047 42.4609C3.09119 43.1982 3.067 43.9775 3.23439 44.7266C3.45635 45.7763 4.03232 46.7178 4.8658 47.3934C5.69927 48.069 6.73962 48.4376 7.81252 48.4375H9.4133L12.5383 37.5H8.26564Z" fill="#C73634"/>
<path d="M27.5859 32.6016L26.3359 34.9063C25.9468 35.6858 25.3481 36.3414 24.607 36.7995C23.8659 37.2577 23.0119 37.5003 22.1406 37.5H18.007L14.882 48.4375H22.1406C23.0119 48.4378 23.8659 48.1952 24.607 47.737C25.3481 47.2789 25.9468 46.6233 26.3359 45.8438L32.0234 35.25C32.0117 35.248 32.0008 35.2426 31.9922 35.2344L27.5859 32.6016Z" fill="#C73634"/>
<path d="M33.3984 21.9141L28.3359 31.2266C28.3438 31.2344 28.3594 31.2344 28.3672 31.2422L32.7656 33.875L37.7812 24.5391C37.7656 24.5391 37.7578 24.5312 37.7422 24.5234L33.3984 21.9141Z" fill="#C73634"/>
<path d="M14.0625 28.125V27.3438H8.59375V27.975L10.1008 31.7414C10.1376 31.8336 10.1565 31.932 10.1562 32.0312H15.5672L14.1211 28.4156C14.0833 28.3233 14.0635 28.2247 14.0625 28.125Z" fill="#C73634"/>
<path d="M8.59375 21.0938H14.0625V25.7812H8.59375V21.0938Z" fill="#C73634"/>
<path d="M14.0625 17.1875C14.0624 17.1036 14.0759 17.0202 14.1023 16.9406L15.3219 13.2812H9.93828L8.59375 17.3141V19.5312H14.0625V17.1875Z" fill="#C73634"/>
<path d="M7.03125 28.125V27.3438H1.5625V28.125L3.90625 32.0312H8.53359L7.08672 28.4156C7.05003 28.3231 7.03121 28.2245 7.03125 28.125Z" fill="#C73634"/>
<path d="M7.03125 17.1875C7.03119 17.1036 7.04465 17.0202 7.0711 16.9406L8.29063 13.2812H2.25547L2.10469 13.7711C1.74376 15.1411 1.56152 16.552 1.5625 17.9688V19.5312H7.03125V17.1875Z" fill="#C73634"/>
<path d="M1.5625 21.0938H7.03125V25.7812H1.5625V21.0938Z" fill="#C73634"/>
<path d="M21.0938 25.3027L15.625 27.1254V27.9746L17.132 31.741C17.1689 31.8332 17.1877 31.9316 17.1875 32.0309H19.5312L21.0938 29.427V25.3027Z" fill="#C73634"/>
<path d="M15.625 17.3141V19.2289L21.0938 17.4055V13.2812H16.9695L15.625 17.3141Z" fill="#C73634"/>
<path d="M23.5781 2.55486C19.6033 1.10543 15.2219 1.24993 11.3512 2.9581C7.48049 4.66627 4.42071 7.80565 2.8125 11.7189H21.875C22.0822 11.7189 22.2809 11.8012 22.4274 11.9477C22.5739 12.0943 22.6562 12.293 22.6562 12.5002V27.0181L31.25 14.8439V8.25408C29.3379 5.61236 26.6595 3.62267 23.5781 2.55486ZM22.7539 8.59392H21.9969C21.7897 8.59392 21.591 8.51161 21.4444 8.3651C21.2979 8.21859 21.2156 8.01988 21.2156 7.81267C21.2156 7.60547 21.2979 7.40676 21.4444 7.26025C21.591 7.11374 21.7897 7.03142 21.9969 7.03142H22.7539C22.9611 7.03142 23.1598 7.11374 23.3063 7.26025C23.4528 7.40676 23.5352 7.60547 23.5352 7.81267C23.5352 8.01988 23.4528 8.21859 23.3063 8.3651C23.1598 8.51161 22.9611 8.59392 22.7539 8.59392ZM24.243 7.81267C24.243 7.60547 24.3253 7.40676 24.4718 7.26025C24.6183 7.11374 24.817 7.03142 25.0242 7.03142H25.7812C25.9885 7.03142 26.1872 7.11374 26.3337 7.26025C26.4802 7.40676 26.5625 7.60547 26.5625 7.81267C26.5625 8.01988 26.4802 8.21859 26.3337 8.3651C26.1872 8.51161 25.9885 8.59392 25.7812 8.59392H25.0242C24.817 8.59392 24.6183 8.51161 24.4718 8.3651C24.3253 8.21859 24.243 8.01988 24.243 7.81267Z" fill="#C73634"/>
<path d="M15.625 25.4785L21.0938 23.6551V19.0527L15.625 20.8754V25.4785Z" fill="#C73634"/>
</svg>
