<svg width="25" height="25" viewBox="0 0 25 25" fill="none" xmlns="http://www.w3.org/2000/svg">
<g clip-path="url(#clip0_57_27348)">
<path fill-rule="evenodd" clip-rule="evenodd" d="M23.924 7.42854H18.3627C18.0857 5.68626 17.6645 4.08132 17.1142 2.70603C16.7728 1.85144 16.3889 1.11086 15.9709 0.491138C19.5277 1.52053 22.4363 4.09109 23.924 7.42854ZM15.9709 24.5095C16.3889 23.889 16.7728 23.1489 17.1142 22.2941C17.6645 20.9185 18.0857 19.3136 18.3627 17.5713H23.924C22.4363 20.9095 19.5277 23.4799 15.9709 24.5095ZM1.07561 17.5713H6.63718C6.91389 19.3136 7.33538 20.9185 7.88533 22.2941C8.22756 23.149 8.61091 23.889 9.02898 24.5095C5.47195 23.4799 2.5636 20.9095 1.07561 17.5713ZM9.02898 0.491138C8.61091 1.11086 8.22761 1.85144 7.88533 2.70603C7.33533 4.08132 6.91389 5.68626 6.63718 7.42854H1.07561C2.5636 4.09109 5.47195 1.52053 9.02898 0.491138ZM12.4999 -0.00012207C11.4927 -0.00012207 10.3872 1.25935 9.54338 3.36892C9.07004 4.5531 8.70012 5.92922 8.44529 7.42854H16.5545C16.2994 5.92922 15.9301 4.5531 15.4564 3.36892C14.6127 1.2594 13.5072 -0.00012207 12.4999 -0.00012207ZM-0.00012207 12.4999C-0.00012207 11.3634 0.153345 10.2616 0.438989 9.21433H6.40837C6.30359 10.279 6.24934 11.38 6.24934 12.4999C6.24934 13.6198 6.30359 14.7209 6.40837 15.7858H0.439038C0.153394 14.7383 -0.00012207 13.6367 -0.00012207 12.4999ZM8.20232 15.7858C8.09202 14.7272 8.03489 13.6252 8.03489 12.5C8.03489 11.3756 8.09202 10.2735 8.20232 9.21438H16.7973C16.9078 10.2735 16.9647 11.3756 16.9647 12.5C16.9647 13.6252 16.9078 14.7272 16.7973 15.7858H8.20232ZM12.4999 25C13.5072 25 14.6127 23.7405 15.4564 21.6312C15.9301 20.4475 16.2994 19.0709 16.5545 17.5713H8.44529C8.70012 19.0709 9.07004 20.4475 9.54338 21.6312C10.3872 23.7405 11.4927 25 12.4999 25ZM25 12.4999C25 13.6367 24.8465 14.7383 24.5608 15.7858H18.5915C18.6963 14.7208 18.7505 13.6198 18.7505 12.4999C18.7505 11.38 18.6963 10.279 18.5915 9.21433H24.5609C24.8465 10.2616 25 11.3634 25 12.4999Z" fill="white"/>
</g>
<defs>
<clipPath id="clip0_57_27348">
<rect width="25" height="25" fill="white"/>
</clipPath>
</defs>
</svg>
