<svg width="133" height="85" viewBox="0 0 133 85" fill="none" xmlns="http://www.w3.org/2000/svg">
<path d="M77.5781 57.0266C47.3615 69.1305 19.7089 67.5624 15.8348 53.5334C15.5634 52.5569 15.423 51.5521 15.395 50.5192C15.3669 49.6177 15.423 48.6975 15.5634 47.7585C17.6315 34.1615 37.2175 16.7333 63.5225 6.19752C70.4942 3.40864 77.3254 1.34279 83.7543 -1.90735e-06C74.8736 1.15499 65.0104 3.73729 54.8665 7.79385C23.0404 20.5457 0.600154 43.007 4.73634 57.975C4.94221 58.7262 5.23231 59.4305 5.56919 60.116C6.24296 61.5151 7.16003 62.7828 8.31105 63.9002C17.8467 73.1495 42.8884 72.7833 69.8672 61.9846C80.0111 57.928 89.2006 52.8667 96.8834 47.3829C91.0534 50.9418 84.5591 54.2283 77.5781 57.0266Z" fill="#C73634"/>
<path d="M76.3237 58.914C44.8812 71.4687 16.1057 69.8254 12.0631 55.2425C11.7824 54.2283 11.642 53.1766 11.6046 52.1061C11.5765 51.1671 11.6326 50.2187 11.7824 49.2327C13.916 35.1193 34.2881 17.0244 61.6599 6.10362C68.9122 3.21144 77.063 1.39914 83.7538 0C74.5176 1.19255 63.2133 3.5401 52.6576 7.75629C19.5401 20.9777 -3.80786 44.3029 0.515483 59.853C0.730714 60.6324 1.03017 61.3649 1.37641 62.0785C2.07825 63.534 3.03275 64.8486 4.23056 66.013C14.1686 75.6286 40.221 75.2717 68.2946 64.0598C78.8597 59.8437 88.8913 53.0733 96.8736 47.3829C90.819 51.0826 83.5854 56.0125 76.3237 58.914Z" fill="black"/>
<path d="M127.83 23.9919C127.605 23.2031 127.306 22.4519 126.959 21.7288C126.248 20.264 125.284 18.9306 124.068 17.7568C114.027 8.02856 87.675 8.40417 59.3019 19.7663C48.6245 24.0482 38.9485 29.3631 30.8633 35.138C37.002 31.382 43.8427 27.9358 51.1886 24.9872C82.9867 12.2541 112.071 13.8974 116.151 28.6682C116.441 29.6917 116.572 30.7434 116.61 31.8421C116.647 32.7905 116.581 33.7577 116.432 34.7436C114.261 49.0449 93.6547 67.3839 65.974 78.4643C58.6281 81.4035 51.4413 83.5632 44.6849 84.9905C54.024 83.7698 64.4019 81.0654 75.0699 76.7835C108.562 63.3743 132.181 39.7298 127.83 23.9919Z" fill="#C73634"/>
<path d="M132.078 23.1938C131.844 22.3769 131.526 21.6163 131.161 20.8744C130.412 19.3626 129.402 17.9916 128.129 16.7803C117.63 6.7422 90.1922 6.99574 60.7056 18.5081C49.6071 22.8464 39.2479 29.2599 30.8633 35.1475C37.236 31.3257 44.6474 26.809 52.2835 23.823C85.3168 10.9208 115.608 12.7613 119.932 27.9359C120.24 28.9876 120.381 30.0674 120.428 31.1942C120.465 32.1614 120.409 33.1568 120.259 34.1803C118.069 48.8478 96.7147 67.5437 67.9579 78.7743C60.3312 81.751 51.722 83.5727 44.6849 85C54.3984 83.7981 66.3296 81.4317 77.4187 77.0935C112.221 63.5059 136.682 39.3637 132.078 23.1938Z" fill="black"/>
<path d="M17.9388 50.3881L21.7755 33.5422C21.7848 33.4858 21.7942 33.4389 21.8036 33.3825L21.9252 32.6219C21.9439 32.4904 21.9533 32.359 21.9533 32.2275C21.9533 30.3025 20.5309 28.9034 18.5751 28.9034H13.4376C12.2492 28.9034 11.2385 29.7485 11.0139 30.9223L10.9203 31.4106C10.7987 32.0773 10.9484 32.7628 11.3508 33.3168C11.3882 33.3637 11.4257 33.4107 11.4631 33.4576L7.61701 50.2755C7.60765 50.3318 7.59829 50.3881 7.58893 50.4445L7.46728 51.2051C7.44857 51.3365 7.43921 51.468 7.43921 51.5995C7.43921 53.5245 8.86161 54.9236 10.8174 54.9236H15.9549C17.1433 54.9236 18.154 54.0785 18.3786 52.9047L18.4721 52.4164C18.5938 51.7497 18.4441 51.0548 18.0417 50.5102C18.0043 50.4633 17.9762 50.4257 17.9388 50.3881Z" fill="black"/>
<path d="M42.7288 28.9031H37.5913C36.4029 28.9031 35.3922 29.7482 35.1676 30.922L35.074 31.4102C34.9524 32.077 35.1021 32.7718 35.5045 33.3165C35.5419 33.3634 35.5794 33.4104 35.6168 33.4573L34.9056 36.5279H33.7359L34.4564 33.2883C34.4658 33.2413 34.4751 33.185 34.4845 33.138L34.6061 32.3774C34.6249 32.246 34.6342 32.1145 34.6342 31.983C34.6342 30.0581 33.2118 28.6589 31.256 28.6589H26.1186C24.9301 28.6589 23.9195 29.504 23.6949 30.6778L23.6013 31.1661C23.4796 31.8328 23.6294 32.5277 24.0317 33.0723C24.0692 33.1193 24.1066 33.1662 24.144 33.2132L20.2605 50.0028C20.2512 50.0592 20.2324 50.1155 20.2231 50.1718L20.1014 50.9324C20.0827 51.0639 20.0734 51.1954 20.0734 51.3268C20.0734 53.2518 21.4958 54.651 23.4516 54.651H28.589C29.7775 54.651 30.7881 53.8058 31.0127 52.6321L31.1063 52.1438C31.228 51.4771 31.0782 50.7822 30.6758 50.2376C30.6478 50.2 30.6197 50.1624 30.5916 50.1249L31.7894 44.9791H32.903L31.7239 50.2845C31.7146 50.3315 31.7052 50.3878 31.6958 50.4348L31.5742 51.1954C31.5555 51.3268 31.5461 51.4583 31.5461 51.5804C31.5461 53.5054 32.9685 54.9045 34.9243 54.9045H40.0524C41.2409 54.9045 42.2515 54.0594 42.4761 52.8856L42.5697 52.3973C42.6914 51.7306 42.5416 51.0357 42.1392 50.4911C42.1112 50.4535 42.0831 50.416 42.055 50.3784L45.9198 33.5324C45.9292 33.4761 45.9385 33.4197 45.9479 33.3634L46.0695 32.6028C46.0883 32.4713 46.0976 32.3399 46.0976 32.2084C46.0976 30.3022 44.6846 28.9031 42.7288 28.9031Z" fill="black"/>
<path d="M80.3466 35.946C80.3466 33.6454 79.6354 31.8519 78.2224 30.6218C76.9123 29.4856 75.0969 28.9034 72.8042 28.9034H62.7819C61.5934 28.9034 60.5828 29.7485 60.3582 30.9223L60.2646 31.4106C60.143 32.0773 60.2927 32.7722 60.6951 33.3168C60.7138 33.345 60.7419 33.3825 60.7699 33.4107L56.9145 50.2755C56.9051 50.3318 56.8958 50.3787 56.8864 50.4351L56.7648 51.1957C56.7461 51.3272 56.7367 51.4586 56.7367 51.5901C56.7367 53.5151 58.1591 54.9142 60.1149 54.9142H65.2524C66.4408 54.9142 67.4515 54.0691 67.6761 52.8953L67.7696 52.407C67.8913 51.7403 67.7416 51.0455 67.3392 50.5008C67.3111 50.4633 67.283 50.4257 67.255 50.3881L67.9381 47.4678H70.5583C73.2908 47.4678 75.4431 46.7541 76.9684 45.355C78.2879 44.1437 79.233 42.2562 79.86 39.5894C80.1875 38.1997 80.3466 37.0071 80.3466 35.946Z" fill="black"/>
<path d="M97.5744 46.2847L97.1065 44.9231C97.7148 44.5945 98.2669 44.1813 98.7629 43.693C100.017 42.4629 100.887 40.7163 101.355 38.5096C101.486 37.9838 101.561 37.5237 101.589 37.1105C101.617 36.7724 101.626 36.4438 101.626 36.1245C101.626 33.345 100.485 31.6924 99.5209 30.7909C98.1733 29.5326 96.3766 28.8941 94.1775 28.8941H84.1927C83.0042 28.8941 81.9936 29.7392 81.769 30.913L81.6754 31.4013C81.5537 32.068 81.7035 32.7628 82.1058 33.3075C82.1246 33.3356 82.1526 33.3732 82.1807 33.4014L78.3253 50.2755C78.3159 50.3319 78.3065 50.3788 78.2972 50.4352L78.1755 51.1958C78.1568 51.3272 78.1475 51.4587 78.1475 51.5902C78.1475 53.5152 79.5699 54.9143 81.5257 54.9143H86.6538C87.8422 54.9143 88.8529 54.0692 89.0775 52.8954L89.171 52.4071C89.4518 53.1301 89.8448 53.6936 90.3501 54.1067C91.0239 54.6514 91.8848 54.9237 92.9797 54.9237H95.1975C96.3485 54.9237 97.0504 54.7922 97.6493 54.4542C98.4447 54.0034 98.9875 53.2241 99.2588 52.1254V52.116L99.9233 49.3459C100.101 48.6135 99.9326 47.8341 99.4647 47.2331C99.0155 46.6415 98.3137 46.2941 97.5744 46.2847Z" fill="black"/>
<path d="M122.018 30.8752C120.315 29.3446 117.891 28.5934 114.597 28.5934C110.526 28.5934 107.382 29.6921 105.248 31.8612C103.592 33.5514 102.376 36.1243 101.533 39.7396C100.935 42.2655 100.644 44.3689 100.644 46.1624C100.644 49.2236 101.524 51.5336 103.265 53.0361C104.912 54.4634 107.307 55.1582 110.582 55.1582C114.859 55.1582 117.882 54.1817 119.828 52.1816C119.837 52.1722 119.837 52.1722 119.847 52.1628C121.494 50.435 122.785 47.3362 123.927 42.4158C123.927 42.397 123.936 42.3782 123.936 42.3594C124.123 41.4392 124.282 40.5753 124.395 39.7865C124.507 38.9414 124.573 38.162 124.573 37.4671C124.563 34.6125 123.702 32.3964 122.018 30.8752ZM111.453 41.6739C112.052 39.0071 112.641 38.1057 112.875 37.8334C113.128 37.561 113.699 37.5047 114.138 37.5047C114.195 37.5047 114.241 37.5047 114.288 37.5047C114.288 37.561 114.298 37.6174 114.298 37.6831C114.298 38.2935 114.195 39.486 113.689 41.7115C112.987 44.8103 112.417 45.7117 112.258 45.9183C112.183 46.0216 111.996 46.2563 111.228 46.2563C111.013 46.2563 110.844 46.247 110.713 46.2376C110.713 46.2188 110.713 46.1906 110.713 46.1718C110.704 45.7305 110.807 44.5755 111.453 41.6739Z" fill="black"/>
<path d="M18.5854 29.8702H13.4479C12.7274 29.8702 12.1097 30.3866 11.9694 31.1003L11.8758 31.5886C11.8009 31.9924 11.8945 32.4149 12.1378 32.753C12.2407 32.8938 12.3718 33.0253 12.5121 33.1192L12.5028 33.2506L8.55374 50.491C8.54438 50.5286 8.53502 50.5568 8.53502 50.5943L8.41337 51.3549C8.40401 51.43 8.39465 51.5146 8.39465 51.5897C8.39465 52.9982 9.36787 53.9466 10.809 53.9466H15.9465C16.667 53.9466 17.2846 53.4302 17.425 52.7165L17.5186 52.2282C17.5934 51.8244 17.4999 51.4019 17.2566 51.0638C17.1536 50.923 17.032 50.8103 16.901 50.7164L16.9197 50.5943L20.85 33.3258C20.8593 33.2976 20.8593 33.26 20.8687 33.2319L20.9904 32.4713C20.9997 32.3961 21.0091 32.3116 21.0091 32.2365C20.9997 30.8186 20.0359 29.8702 18.5854 29.8702Z" fill="white"/>
<path d="M42.7293 29.8704H37.5918C36.8713 29.8704 36.2536 30.3868 36.1133 31.1005L36.0197 31.5888C35.9448 31.9926 36.0384 32.4151 36.2817 32.7532C36.3846 32.894 36.5157 33.0255 36.656 33.1194L36.6467 33.2508L35.6641 37.5046H32.5292L33.5211 33.0912C33.5305 33.063 33.5305 33.0349 33.5398 32.9973L33.6615 32.2367C33.6709 32.1616 33.6802 32.0771 33.6802 32.0019C33.6802 30.5934 32.707 29.645 31.2659 29.645H26.1284C25.4079 29.645 24.7902 30.1615 24.6499 30.8751L24.5563 31.3634C24.4814 31.7672 24.575 32.1898 24.8183 32.5278C24.9212 32.6687 25.0523 32.8001 25.1926 32.894L25.1833 33.0255L21.1968 50.2471C21.1874 50.2846 21.1781 50.3128 21.1781 50.3504L21.0564 51.111C21.0471 51.1861 21.0377 51.2706 21.0377 51.3457C21.0377 52.7543 22.0109 53.7027 23.4521 53.7027H28.5895C29.3101 53.7027 29.9277 53.1862 30.0681 52.4726L30.1617 51.9843C30.2365 51.5805 30.1429 51.1579 29.8996 50.8199C29.7967 50.679 29.675 50.5663 29.544 50.4724L29.5627 50.3598L31.0319 44.0402H34.1107L32.6602 50.4912C32.6508 50.5194 32.6508 50.5476 32.6415 50.5851L32.5198 51.3457C32.5105 51.4209 32.5011 51.5054 32.5011 51.5805C32.5011 52.989 33.4743 53.9468 34.9155 53.9468H40.0529C40.7735 53.9468 41.3911 53.4304 41.5315 52.7167L41.6251 52.2284C41.6999 51.8246 41.6063 51.4021 41.363 51.064C41.2601 50.9232 41.1384 50.8105 41.0074 50.7166L41.0261 50.5945L44.9939 33.326C45.0032 33.2884 45.0126 33.2602 45.0126 33.2227L45.1343 32.4621C45.1436 32.3869 45.153 32.3024 45.153 32.2273C45.1343 30.8188 44.1704 29.8704 42.7293 29.8704Z" fill="white"/>
<path d="M77.5962 31.3538C76.4639 30.3679 74.8637 29.8702 72.8143 29.8702H62.7827C62.0621 29.8702 61.4445 30.3866 61.3042 31.1003L61.2106 31.5886C61.1357 31.9924 61.2293 32.4149 61.4726 32.753C61.5662 32.8844 61.6878 33.0065 61.8188 33.1004V33.1286L57.8511 50.5004C57.8417 50.5286 57.8417 50.5662 57.8324 50.6037L57.7107 51.3643C57.7014 51.4394 57.692 51.5239 57.692 51.5991C57.692 53.0076 58.6652 53.956 60.1063 53.956H65.2438C65.9644 53.956 66.582 53.4395 66.7224 52.7259L66.8159 52.2376C66.8908 51.8338 66.7972 51.4113 66.5539 51.0732C66.451 50.9324 66.3293 50.8197 66.1983 50.7258L66.217 50.5943L67.1715 46.5096H70.5591C73.0483 46.5096 74.9854 45.8804 76.3142 44.6503C77.4839 43.5799 78.3355 41.8521 78.9157 39.373C79.2245 38.049 79.3836 36.9222 79.3836 35.9456C79.3836 33.9361 78.7847 32.3868 77.5962 31.3538ZM69.4549 36.387H70.1099C70.5217 36.387 70.7556 36.4245 70.8866 36.4527V36.4621C70.8866 36.4997 70.8866 36.6311 70.8398 36.9879C70.8024 37.2603 70.7743 37.4856 70.7369 37.6453C70.3439 39.3637 70.0163 39.7956 69.9883 39.8332C69.9508 39.8707 69.6982 39.9928 69.1086 39.9928H68.6407L69.4549 36.387Z" fill="white"/>
<path d="M98.8752 31.5041C97.7149 30.4149 96.1334 29.8609 94.187 29.8609H84.1927C83.4722 29.8609 82.8546 30.3773 82.7142 31.091L82.6206 31.5793C82.5458 31.983 82.6393 32.4056 82.8826 32.7437C82.9762 32.8751 83.0979 32.9972 83.2289 33.0911V33.1193L79.2611 50.4911C79.2518 50.5193 79.2518 50.5568 79.2424 50.5944L79.1208 51.355C79.1114 51.4301 79.1021 51.5146 79.1021 51.5898C79.1021 52.9983 80.0753 53.9467 81.5164 53.9467H86.6539C87.3744 53.9467 87.992 53.4302 88.1324 52.7166L88.226 52.2283C88.3008 51.8245 88.2073 51.4019 87.964 51.0639C87.861 50.923 87.7394 50.8104 87.6084 50.7165L87.6271 50.585L88.4225 47.0261L89.9385 51.6743C90.1724 52.4349 90.4999 52.9795 90.9585 53.3551C91.4545 53.7589 92.1095 53.9561 92.9798 53.9561H95.1976C96.1708 53.9561 96.7417 53.8528 97.1721 53.6086C98.0143 53.1391 98.2483 52.2001 98.3231 51.8902V51.8808L98.9876 49.1107C99.0998 48.66 98.9969 48.1905 98.7068 47.8243C98.4261 47.4581 97.9862 47.2515 97.5277 47.2515H96.882L95.9182 44.4157C96.7417 44.087 97.4716 43.6081 98.0986 42.9977C99.2215 41.8991 99.9982 40.3215 100.429 38.2933C100.55 37.8144 100.616 37.4012 100.644 37.0444C100.663 36.7345 100.681 36.4246 100.681 36.1241C100.681 34.1804 100.073 32.6216 98.8752 31.5041ZM90.8836 36.387H91.9411C92.1563 36.387 92.2779 36.4152 92.3341 36.4246C92.3435 36.4528 92.3528 36.4903 92.3528 36.5373L92.2873 37.0819C92.0346 38.1712 91.7633 38.4623 91.7352 38.4904C91.6697 38.5562 91.3983 38.6689 90.8275 38.6689H90.3502L90.8836 36.387Z" fill="white"/>
<path d="M121.373 31.5979C119.857 30.2269 117.64 29.5602 114.598 29.5602C110.799 29.5602 107.879 30.5649 105.933 32.5369C104.408 34.0957 103.275 36.5183 102.471 39.9551C101.9 42.3778 101.61 44.4624 101.61 46.1527C101.61 48.9134 102.377 50.9792 103.893 52.2938C105.362 53.5615 107.552 54.1813 110.584 54.1813C114.589 54.1813 117.387 53.308 119.137 51.4957L119.146 51.4863C120.644 49.9087 121.897 46.8663 122.983 42.19C122.983 42.1806 122.992 42.1712 122.992 42.1618C123.18 41.2604 123.329 40.4152 123.432 39.6546C123.544 38.8565 123.601 38.124 123.601 37.4667C123.601 34.9032 122.852 32.9219 121.373 31.5979ZM113.017 46.5095C112.783 46.8194 112.334 47.2231 111.22 47.2231C110.266 47.2231 109.938 47.0635 109.873 47.0259C109.845 46.979 109.742 46.7536 109.742 46.1714C109.742 45.5892 109.873 44.3122 110.509 41.467C111.108 38.8095 111.735 37.6733 112.156 37.2038C112.549 36.7625 113.195 36.5465 114.14 36.5465C114.757 36.5465 115.01 36.6686 115.057 36.7155C115.076 36.7343 115.253 36.9409 115.253 37.6921C115.253 38.6499 115.038 40.0772 114.626 41.9271C113.915 45.0164 113.316 46.1245 113.017 46.5095Z" fill="white"/>
<path d="M19.5023 32.2266L19.3807 32.9872L15.4316 50.3309L15.338 51.0634C15.338 51.5892 15.572 51.8897 16.0399 51.946L15.9463 52.4343H10.8088C10.2006 52.4343 9.90112 52.1526 9.90112 51.5798L10.0228 50.8192L13.9999 33.4755L14.056 32.7713C14.056 32.2173 13.8221 31.9168 13.3542 31.851L13.4478 31.3627H18.5852C19.1935 31.3721 19.5023 31.6538 19.5023 32.2266Z" fill="#C73634"/>
<path d="M43.6367 32.2266L43.5151 32.9872L39.538 50.3309L39.4444 51.0633C39.4444 51.5891 39.6783 51.8896 40.1462 51.946L40.0527 52.4343H34.9152C34.3069 52.4343 34.0075 52.1526 34.0075 51.5798L34.1291 50.8192L35.982 42.4994H29.8432L28.0746 50.0679L27.981 50.8004C27.981 51.3262 28.2149 51.6267 28.6828 51.6831L28.5893 52.1713H23.4518C22.8435 52.1713 22.5441 51.8896 22.5441 51.3168L22.6657 50.5562L26.6803 33.2313L26.7458 32.5271C26.7458 31.9824 26.5118 31.6726 26.0439 31.6162L26.1375 31.1279H31.275C31.8832 31.1279 32.1827 31.4096 32.1827 31.9824L32.061 32.743L30.6667 38.9969H36.871L38.1437 33.4755L38.1998 32.7712C38.1998 32.2266 37.9659 31.9167 37.498 31.8604L37.5915 31.3721H42.729C43.3373 31.3721 43.6367 31.6538 43.6367 32.2266Z" fill="#C73634"/>
<path d="M77.8854 35.9454C77.8854 36.7999 77.7451 37.8235 77.4643 39.0254C76.959 41.1852 76.2385 42.6876 75.3027 43.5421C74.2452 44.5187 72.6731 45.007 70.5582 45.007H65.9729L64.7283 50.3312L64.6347 51.1294C64.6347 51.6176 64.8686 51.8994 65.3365 51.9557L65.2429 52.444H60.1055C59.4972 52.444 59.1978 52.1623 59.1978 51.5895L59.3194 50.8289L63.2965 33.3913L63.3901 32.687C63.3901 32.1987 63.1561 31.9264 62.6882 31.8607L62.7818 31.3724H72.8135C74.4979 31.3724 75.7612 31.748 76.6128 32.4898C77.4643 33.2317 77.8854 34.3773 77.8854 35.9454ZM72.383 36.4619C72.383 35.9173 72.2146 35.5135 71.8683 35.2599C71.5221 35.0064 70.9325 34.8749 70.109 34.8749H68.2562L66.7683 41.495H69.1077C70.081 41.495 70.7547 41.2603 71.1478 40.7908C71.5314 40.3213 71.887 39.3822 72.2146 37.9549C72.252 37.7483 72.2988 37.4948 72.3362 37.1755C72.3643 36.8657 72.383 36.6309 72.383 36.4619Z" fill="#C73634"/>
<path d="M99.1754 36.1332C99.1754 36.3962 99.166 36.6685 99.1473 36.9408C99.1286 37.2131 99.0631 37.5605 98.9695 37.9643C98.6046 39.7109 97.9682 41.0349 97.0512 41.927C96.237 42.7158 95.217 43.204 93.9818 43.3918L95.6568 48.2747C95.7785 48.6034 96.1435 48.763 96.7517 48.763H97.5378L96.8734 51.5331C96.7704 51.9463 96.6301 52.1998 96.4523 52.3031C96.2745 52.4064 95.8534 52.4534 95.2077 52.4534H92.9899C92.4845 52.4534 92.1196 52.3689 91.9137 52.1904C91.6985 52.0214 91.5207 51.6928 91.3803 51.2233L88.9192 43.6923H87.6465L86.1399 50.3312L86.0463 51.1294C86.0463 51.6176 86.2802 51.89 86.7481 51.9557L86.6546 52.444H81.5171C80.9088 52.444 80.6094 52.1623 80.6094 51.5895L80.731 50.8289L84.7081 33.3913L84.8017 32.687C84.8017 32.1987 84.5678 31.9264 84.0999 31.8607L84.1934 31.3724H94.1877C95.7504 31.3724 96.9669 31.7856 97.8466 32.6119C98.7356 33.4289 99.1754 34.6026 99.1754 36.1332ZM93.8601 36.6215C93.8601 36.0957 93.7104 35.6731 93.4016 35.3538C93.1021 35.0346 92.6155 34.8843 91.9418 34.8843H89.6959L88.4513 40.1898H90.8188C91.7078 40.1898 92.3629 39.9832 92.7746 39.5794C93.1864 39.1757 93.5232 38.4338 93.7666 37.354L93.8601 36.6215Z" fill="#C73634"/>
<path d="M122.103 37.4762C122.103 38.0678 122.056 38.7251 121.953 39.4575C121.85 40.1899 121.71 40.9881 121.532 41.8708C120.521 46.2466 119.361 49.1106 118.069 50.4722C116.628 51.9558 114.139 52.6977 110.592 52.6977C107.963 52.6977 106.054 52.1906 104.875 51.1765C103.696 50.1623 103.115 48.4909 103.115 46.1715C103.115 44.5846 103.387 42.6314 103.939 40.312C104.669 37.1851 105.689 34.9408 107.008 33.6074C108.674 31.9172 111.201 31.0721 114.607 31.0721C117.237 31.0721 119.164 31.6167 120.381 32.7154C121.522 33.7483 122.103 35.3352 122.103 37.4762ZM116.75 37.6828C116.75 36.7719 116.544 36.0958 116.142 35.6733C115.739 35.2507 115.065 35.0347 114.139 35.0347C112.763 35.0347 111.725 35.4197 111.042 36.1897C110.256 37.0818 109.591 38.7345 109.048 41.129C108.515 43.5235 108.244 45.2043 108.244 46.1621C108.244 47.1387 108.468 47.8054 108.908 48.1716C109.357 48.5378 110.125 48.7162 111.219 48.7162C112.539 48.7162 113.531 48.2843 114.195 47.4204C114.86 46.5565 115.496 44.8381 116.076 42.2558C116.525 40.2838 116.75 38.7626 116.75 37.6828Z" fill="#C73634"/>
</svg>
