<svg width="157" height="33" viewBox="0 0 157 33" fill="none" xmlns="http://www.w3.org/2000/svg">
<path d="M6.14062 0.708548L6.07825 1.13414L3.84536 10.9227L3.79547 11.3357C3.79547 11.6361 3.93268 11.7989 4.19464 11.8364L4.14474 12.1118H1.23825C0.901446 12.1118 0.726807 11.9491 0.726807 11.6236L0.789178 11.198L3.03454 1.40951L3.07196 1.00897C3.07196 0.696034 2.93474 0.520795 2.67279 0.495761L2.72268 0.220371H5.6167C5.96598 0.220371 6.14062 0.383099 6.14062 0.708548Z" fill="black"/>
<path d="M17.4425 2.79985L17.0807 4.21431C16.9809 4.58983 16.5568 4.77759 15.8083 4.77759H14.2989C13.9497 4.77759 13.6503 4.90276 13.4008 5.16562C13.1513 5.42848 12.9767 5.77896 12.8769 6.2421L12.3155 8.73305L12.2282 9.37143C12.2282 9.8596 12.5027 10.1099 13.0515 10.1099H14.4237C15.0349 10.1099 15.4715 10.0724 15.7085 10.0098C15.9455 9.93472 16.1327 9.79702 16.2574 9.58423H16.5318L16.22 10.9611C16.0952 11.4994 15.8707 11.8499 15.5464 12.0126C15.222 12.1753 14.6732 12.2504 13.9122 12.2504H11.4798C10.6565 12.2504 10.0951 12.0626 9.79575 11.6871C9.49637 11.3116 9.34668 10.6983 9.34668 9.82206C9.34668 9.6343 9.39658 9.27129 9.49637 8.72053C9.59617 8.16977 9.72091 7.59398 9.88307 7.00567C10.3072 5.37842 10.8311 4.23934 11.4423 3.60096C11.9413 3.07523 12.6025 2.81238 13.4008 2.81238H17.4425V2.79985Z" fill="black"/>
<path d="M29.5667 5.15291C29.5667 5.42829 29.5168 5.81632 29.4045 6.30449C29.2922 6.79267 29.1924 7.15568 29.0802 7.39351C28.9679 7.63133 28.8307 7.78154 28.6436 7.85664C28.4565 7.93174 28.2319 7.9693 27.97 7.9693H23.7537L23.5416 8.89558C23.4917 9.08334 23.4793 9.23354 23.4793 9.37123C23.4793 9.67164 23.5666 9.87193 23.7287 9.97206C23.8909 10.0722 24.1279 10.1223 24.4273 10.1223H26.3982C27.0095 10.1223 27.4461 10.0847 27.6831 10.0221C27.9201 9.94703 28.1072 9.80934 28.2319 9.59655H28.5064L28.1945 10.9734C28.0698 11.5117 27.8452 11.8622 27.5209 12.0249C27.1966 12.1876 26.6477 12.2627 25.8868 12.2627H23.1425C22.3192 12.2627 21.7079 12.0624 21.3087 11.6744C20.8597 11.2363 20.6351 10.5228 20.6351 9.54647C20.6351 9.25858 20.685 8.87055 20.7723 8.38237C20.8222 8.11951 20.8721 7.83161 20.947 7.51868C21.3462 5.6536 21.895 4.37684 22.5811 3.68839C23.2672 2.99994 24.3774 2.66196 25.8868 2.66196H26.4356C27.4211 2.66196 28.1696 2.84973 28.6935 3.21273C29.2673 3.61328 29.5667 4.26418 29.5667 5.15291ZM27.0594 5.2906C27.0594 5.01521 26.972 4.80242 26.7974 4.66473C26.6228 4.52704 26.3234 4.45194 25.9117 4.45194C25.3629 4.45194 24.9512 4.60214 24.6893 4.92759C24.4772 5.17794 24.3026 5.59101 24.1903 6.16681H26.8847L26.972 5.84136L27.0594 5.2906Z" fill="black"/>
<path d="M52.0699 0.709618L51.9951 1.13521L49.7497 10.9237L49.6998 11.3368C49.6998 11.6372 49.8371 11.7999 50.099 11.8375L50.0491 12.1129H47.1551C46.8183 12.1129 46.6437 11.9501 46.6437 11.6247L46.7185 11.1991L47.7663 6.50513H44.286L43.2881 10.7735L43.2382 11.1866C43.2382 11.487 43.3754 11.6497 43.6374 11.6873L43.5875 11.9627H40.6935C40.3442 11.9627 40.182 11.7999 40.182 11.487L40.2444 11.0614L42.5022 1.28541L42.5396 0.884863C42.5396 0.571931 42.4024 0.409209 42.1405 0.371657L42.1904 0.0962677H45.0844C45.4212 0.0962677 45.5958 0.258995 45.5958 0.584445L45.5334 1.01004L44.7476 4.5399H48.2404L48.9639 1.4231L49.0013 1.02255C49.0013 0.709618 48.8641 0.546896 48.6021 0.509344L48.652 0.233955H51.546C51.9078 0.221437 52.0699 0.384168 52.0699 0.709618Z" fill="black"/>
<path d="M64.5443 5.79139C64.5443 5.99166 64.5194 6.24201 64.4819 6.55494C64.432 6.86787 64.3821 7.14325 64.3322 7.36856L64.0079 8.73295C63.6836 10.0973 63.2096 11.0236 62.5734 11.5118C61.9372 12 60.8894 12.2378 59.4299 12.2378H58.9808C57.8332 12.2378 56.9475 12.025 56.3238 11.5994C55.6003 11.1238 55.2385 10.3602 55.2385 9.3463C55.2385 8.99582 55.2884 8.59527 55.3882 8.14464L55.7125 6.70516C56.0493 5.15301 56.5608 4.08904 57.2469 3.51325C57.933 2.93745 58.9808 2.64955 60.4153 2.64955H61.0515C62.3863 2.64955 63.3343 2.96248 63.8956 3.60086C64.3198 4.08904 64.5443 4.81504 64.5443 5.79139ZM61.7251 5.74132C61.7251 4.99028 61.3135 4.62729 60.5026 4.62729C59.9039 4.62729 59.4673 4.7775 59.1929 5.06539C58.9184 5.35329 58.6689 5.97915 58.4694 6.91794L58.1824 8.19472C58.1326 8.39499 58.1076 8.57023 58.0826 8.72044C58.0577 8.85813 58.0452 9.00833 58.0452 9.15854C58.0452 9.90958 58.4444 10.2726 59.2428 10.2726C59.829 10.2726 60.2656 10.1224 60.5401 9.82196C60.827 9.52155 61.064 8.9833 61.2386 8.20723L61.5131 7.1057C61.6627 6.56746 61.7251 6.11683 61.7251 5.74132Z" fill="black"/>
<path d="M75.9208 2.79985L75.5591 4.21431C75.4593 4.58983 75.0352 4.77759 74.2867 4.77759H72.7773C72.4281 4.77759 72.1287 4.90276 71.8792 5.16562C71.6297 5.42848 71.4551 5.77896 71.3553 6.2421L70.7939 8.73305L70.7066 9.37143C70.7066 9.8596 70.9811 10.1099 71.5299 10.1099H72.9021C73.5133 10.1099 73.9499 10.0724 74.1869 10.0098C74.4239 9.93472 74.611 9.79702 74.7358 9.58423H75.0102L74.6984 10.9611C74.5736 11.4994 74.3491 11.8499 74.0248 12.0126C73.7004 12.1753 73.1516 12.2504 72.3906 12.2504H69.9582C69.1349 12.2504 68.5735 12.0626 68.2741 11.6871C67.9748 11.3116 67.8251 10.6983 67.8251 9.82206C67.8251 9.6343 67.875 9.27129 67.9748 8.72053C68.0746 8.16977 68.1993 7.59398 68.3615 7.00567C68.7856 5.37842 69.3095 4.23934 69.9207 3.60096C70.4197 3.07523 71.0808 2.81238 71.8792 2.81238H75.9208V2.79985Z" fill="black"/>
<path d="M88.0964 3.07442C88.0964 3.1996 88.0465 3.29973 87.9591 3.36231L85.2148 5.85326H85.6888C86.325 5.85326 86.8115 5.99095 87.1358 6.26633C87.4602 6.54171 87.6223 6.89219 87.6223 7.30526C87.6223 7.53057 87.6099 7.73085 87.5724 7.89358L86.7491 11.2607V11.4985C86.7491 11.7113 86.8739 11.824 87.1234 11.824L87.0735 12.0994H84.4539C84.1046 12.0994 83.9424 11.9492 83.9424 11.6613C83.9424 11.5236 83.9674 11.3233 84.0298 11.073L84.6285 8.4944L84.6784 8.08134C84.6784 7.71834 84.3541 7.53057 83.693 7.53057H82.6327L81.7595 11.2482V11.486C81.7595 11.6988 81.8842 11.8115 82.1337 11.8115L82.0838 12.0869H79.4642C79.1274 12.0869 78.9528 11.9492 78.9528 11.6613C78.9528 11.5236 78.9777 11.3233 79.0401 11.073L81.3852 1.04661V0.808798C81.3852 0.596004 81.2605 0.483336 81.011 0.483336L81.0609 0.207962H83.6805C83.8925 0.207962 84.0173 0.258028 84.0921 0.345649C84.167 0.43327 84.1919 0.558443 84.1919 0.721168C84.1919 0.821306 84.167 0.996548 84.1046 1.22186L83.0817 5.64047L85.2772 3.47497C85.3146 3.43742 85.3396 3.39988 85.3645 3.37484C85.3895 3.33729 85.4019 3.29974 85.4144 3.24967C85.4144 3.14953 85.3271 3.08694 85.14 3.06191L85.1899 2.78652H87.7471C87.9841 2.79904 88.0964 2.89918 88.0964 3.07442Z" fill="black"/>
<path d="M100.445 5.15291C100.445 5.42829 100.395 5.81632 100.283 6.30449C100.17 6.79267 100.071 7.15568 99.9582 7.39351C99.846 7.63133 99.7088 7.78154 99.5216 7.85664C99.3345 7.93174 99.11 7.9693 98.848 7.9693H94.6317L94.4322 8.89558C94.3823 9.08334 94.3573 9.23354 94.3573 9.37123C94.3573 9.67164 94.4446 9.87193 94.6068 9.97206C94.769 10.0722 95.006 10.1223 95.3054 10.1223H97.2763C97.8875 10.1223 98.3241 10.0847 98.5611 10.0221C98.7981 9.94703 98.9852 9.80934 99.11 9.59655H99.3844L99.0726 10.9734C98.9478 11.5117 98.7233 11.8622 98.399 12.0249C98.0746 12.1876 97.5258 12.2627 96.7648 12.2627H94.0205C93.1972 12.2627 92.586 12.0624 92.1868 11.6744C91.7377 11.2363 91.5132 10.5228 91.5132 9.54647C91.5132 9.25858 91.5631 8.87055 91.6504 8.38237C91.7003 8.11951 91.7502 7.83161 91.825 7.51868C92.2242 5.6536 92.7731 4.37684 93.4592 3.68839C94.1452 2.99994 95.2555 2.66196 96.7648 2.66196H97.3137C98.2992 2.66196 99.0476 2.84973 99.5715 3.21273C100.145 3.61328 100.445 4.26418 100.445 5.15291ZM97.9374 5.2906C97.9374 5.01521 97.8501 4.80242 97.6755 4.66473C97.5008 4.52704 97.2014 4.45194 96.7898 4.45194C96.2409 4.45194 95.8293 4.60214 95.5673 4.92759C95.3552 5.17794 95.1806 5.59101 95.0683 6.16681H97.7628L97.8501 5.84136L97.9374 5.2906Z" fill="black"/>
<path d="M113.32 3.35061C113.32 3.4883 113.245 3.66355 113.108 3.88886L106.821 13.6774C106.733 13.8401 106.683 13.9653 106.683 14.0779C106.683 14.2657 106.821 14.3533 107.083 14.3533L107.033 14.6287H104.463C104.076 14.6287 103.877 14.466 103.877 14.128C103.877 13.9653 103.939 13.8026 104.051 13.6523L106.097 10.498L104.251 3.60096C104.201 3.40068 104.139 3.28802 104.039 3.23796C103.927 3.13782 103.789 3.08775 103.64 3.08775L103.69 2.81238H106.284C106.534 2.81238 106.721 2.86244 106.821 2.96258C106.933 3.06272 107.008 3.22545 107.07 3.45076L108.093 7.64405L110.338 3.87635C110.426 3.72614 110.476 3.60096 110.476 3.47579C110.476 3.21292 110.326 3.07524 110.026 3.07524L110.076 2.79985H112.546C113.058 2.79985 113.32 2.98761 113.32 3.35061Z" fill="black"/>
<path d="M133.69 2.79903C133.69 3.27469 133.615 3.86301 133.453 4.53894C133.166 5.75312 132.767 6.6043 132.231 7.07996C131.632 7.63072 130.746 7.90609 129.561 7.90609H126.967L126.268 10.9102L126.218 11.3609C126.218 11.6362 126.355 11.799 126.617 11.824L126.567 12.0994H123.673C123.337 12.0994 123.162 11.9367 123.162 11.6112L123.224 11.1856L125.47 1.34703L125.519 0.946485C125.519 0.671105 125.382 0.520888 125.12 0.483336L125.17 0.207962H130.834C131.782 0.207962 132.493 0.420756 132.979 0.833826C133.453 1.27193 133.69 1.92282 133.69 2.79903ZM130.584 3.09945C130.584 2.78652 130.484 2.56121 130.297 2.42352C130.098 2.28583 129.773 2.21073 129.299 2.21073H128.251L127.416 5.94089H128.738C129.287 5.94089 129.673 5.80319 129.885 5.54032C130.098 5.27746 130.297 4.73923 130.484 3.93812C130.509 3.82546 130.534 3.67526 130.547 3.50001C130.572 3.32477 130.584 3.18707 130.584 3.09945Z" fill="black"/>
<path d="M145.128 2.64955L144.816 4.01394C144.742 4.28932 144.604 4.48959 144.392 4.60225C144.18 4.72742 143.881 4.77749 143.482 4.77749H142.085C141.461 4.77749 141.074 5.10294 140.912 5.76636L139.615 11.274V11.5118C139.615 11.7246 139.739 11.8372 139.989 11.8372L139.939 12.1126H137.319C136.97 12.1126 136.808 11.9749 136.808 11.687C136.808 11.5493 136.833 11.3491 136.895 11.0987L138.579 3.65093V3.4131C138.579 3.20031 138.455 3.08766 138.205 3.08766L138.255 2.81228H140.875C141.087 2.81228 141.224 2.86235 141.286 2.94997C141.349 3.03759 141.386 3.16276 141.386 3.32549C141.386 3.42563 141.361 3.60087 141.299 3.82618H141.473C141.636 3.38807 141.823 3.08765 142.022 2.91241C142.234 2.73717 142.521 2.64955 142.908 2.64955H145.128Z" fill="black"/>
<path d="M156.217 5.79139C156.217 5.99166 156.192 6.24201 156.155 6.55494C156.105 6.86787 156.055 7.14325 156.005 7.36856L155.681 8.73295C155.356 10.0973 154.882 11.0236 154.246 11.5118C153.61 12 152.562 12.2378 151.102 12.2378H150.653C149.506 12.2378 148.62 12.025 147.996 11.5994C147.273 11.1238 146.911 10.3602 146.911 9.3463C146.911 8.99582 146.961 8.59527 147.061 8.14464L147.385 6.70516C147.722 5.15301 148.233 4.08904 148.919 3.51325C149.606 2.93745 150.653 2.64955 152.088 2.64955H152.724C154.059 2.64955 155.007 2.96248 155.568 3.60086C155.992 4.08904 156.217 4.81504 156.217 5.79139ZM153.398 5.74132C153.398 4.99028 152.986 4.62729 152.175 4.62729C151.577 4.62729 151.14 4.7775 150.865 5.06539C150.591 5.35329 150.342 5.97915 150.142 6.91794L149.855 8.19472C149.805 8.39499 149.78 8.57023 149.755 8.72044C149.73 8.85813 149.718 9.00833 149.718 9.15854C149.718 9.90958 150.117 10.2726 150.915 10.2726C151.502 10.2726 151.938 10.1224 152.213 9.82196C152.5 9.52155 152.737 8.9833 152.911 8.20723L153.186 7.1057C153.335 6.56746 153.398 6.11683 153.398 5.74132Z" fill="black"/>
<path d="M5.75998 21.3504L5.69761 21.776L3.46473 31.5645L3.41483 31.9776C3.41483 32.278 3.55205 32.4407 3.814 32.4782L3.76411 32.7536H0.870087C0.533282 32.7536 0.358643 32.5909 0.358643 32.2654L0.433489 31.8399L2.67885 22.0513L2.71627 21.6508C2.71627 21.3379 2.57906 21.1626 2.3171 21.1376L2.36699 20.8622H5.26101C5.59782 20.8622 5.75998 21.0249 5.75998 21.3504Z" fill="black"/>
<path d="M18.4349 24.9302C18.4349 25.2807 18.3476 25.8315 18.173 26.5825L16.9505 31.9024V32.1402C16.9505 32.353 17.0752 32.4656 17.3247 32.4656L17.2748 32.741H14.6552C14.3184 32.741 14.1438 32.6033 14.1438 32.3154C14.1438 32.1777 14.1687 31.9775 14.2311 31.7271L15.3912 26.6075C15.4411 26.3948 15.4536 26.1945 15.4536 26.0192C15.4536 25.6187 15.229 25.4184 14.7924 25.4184H14.3558C14.0066 25.4184 13.7197 25.481 13.4951 25.5937C13.2706 25.7188 13.1084 25.9566 13.0211 26.3322L11.6739 31.9024V32.1402C11.6739 32.353 11.7986 32.4656 12.0481 32.4656L11.9982 32.741H9.37863C9.04183 32.741 8.86719 32.6033 8.86719 32.3154C8.86719 32.1777 8.89214 31.9775 8.95451 31.7271L10.6884 24.2793V24.0415C10.6884 23.8287 10.5637 23.7161 10.3142 23.7161L10.3641 23.4407H12.9837C13.1957 23.4407 13.3205 23.4907 13.3953 23.5784C13.4577 23.666 13.4951 23.7911 13.4951 23.9539C13.4951 24.1041 13.4577 24.3169 13.3704 24.5923L13.4951 24.6048L14.044 23.8162C14.1937 23.6034 14.4057 23.4532 14.6677 23.3906C14.9421 23.328 15.4536 23.2905 16.227 23.2905C17.0129 23.2905 17.5867 23.4407 17.9484 23.7411C18.2727 24.0039 18.4349 24.4045 18.4349 24.9302Z" fill="black"/>
<path d="M28.7019 23.4527L28.4274 24.6169C28.3651 24.8922 28.2528 25.08 28.1156 25.1801C27.9784 25.2803 27.7663 25.3303 27.4669 25.3303H26.5813C26.1447 25.3303 25.8952 25.5306 25.8079 25.9312L24.9721 29.6238L24.9097 30.1245C24.9097 30.4499 25.1218 30.6126 25.5584 30.6126C26.1696 30.6126 26.6062 30.5751 26.8432 30.5125C27.0802 30.4374 27.2673 30.2872 27.3921 30.0744H27.6665L27.3297 31.614C27.2424 32.0146 27.0802 32.315 26.8557 32.4902C26.6312 32.6655 26.3068 32.7531 25.8702 32.7531H23.2506C22.7766 32.7531 22.4024 32.6655 22.1529 32.4902C21.9034 32.315 21.7787 32.0021 21.7787 31.564C21.7787 31.4889 21.7787 31.4138 21.7787 31.3512C21.7787 31.2886 21.8036 31.1759 21.8411 31.0007L23.1384 25.3303H22.3151L22.6768 23.7281C23.3504 23.7281 23.9367 23.5779 24.4232 23.2775C24.997 22.9396 25.4212 22.4013 25.6956 21.6753H26.7809L26.3817 23.4277H28.7019V23.4527Z" fill="black"/>
<path d="M40.6394 25.7938C40.6394 26.0692 40.5895 26.4572 40.4773 26.9454C40.365 27.4336 40.2652 27.7966 40.1529 28.0344C40.0407 28.2722 39.9034 28.4224 39.7163 28.4975C39.5292 28.5726 39.3047 28.6102 39.0427 28.6102H34.8264L34.6269 29.5365C34.577 29.7242 34.552 29.8744 34.552 30.0121C34.552 30.3125 34.6393 30.5128 34.8015 30.613C34.9637 30.7131 35.2007 30.7632 35.5 30.7632H37.471C38.0822 30.7632 38.5188 30.7256 38.7558 30.663C38.9928 30.6005 39.1799 30.4502 39.3047 30.2375H39.5791L39.2673 31.6144C39.1425 32.1526 38.918 32.5031 38.5937 32.6658C38.2693 32.8285 37.7205 32.9036 36.9595 32.9036H34.2152C33.3919 32.9036 32.7807 32.7034 32.3815 32.3153C31.9324 31.8772 31.7079 31.1637 31.7079 30.1874C31.7079 29.8995 31.7578 29.5114 31.8451 29.0233C31.895 28.7604 31.9449 28.4725 32.0197 28.1596C32.4189 26.2945 32.9678 25.0177 33.6539 24.3293C34.3399 23.6408 35.4501 23.3029 36.9595 23.3029H37.5084C38.4939 23.3029 39.2423 23.4906 39.7662 23.8536C40.3525 24.2542 40.6394 24.9051 40.6394 25.7938ZM38.1321 25.9315C38.1321 25.6561 38.0448 25.4433 37.8702 25.3056C37.6955 25.1679 37.3961 25.0928 36.9845 25.0928C36.4356 25.0928 36.024 25.2431 35.762 25.556C35.5499 25.8063 35.3753 26.2194 35.263 26.7952H37.9575L38.0448 26.4698L38.1321 25.9315Z" fill="black"/>
<path d="M52.1641 23.2905L51.8522 24.6549C51.7774 24.9302 51.6401 25.1305 51.4281 25.2432C51.216 25.3683 50.9166 25.4184 50.5175 25.4184H49.1203C48.4966 25.4184 48.1099 25.7439 47.9478 26.4073L46.6505 31.9149V32.1527C46.6505 32.3655 46.7752 32.4782 47.0247 32.4782L46.9748 32.7535H44.3552C44.0059 32.7535 43.8438 32.6158 43.8438 32.3279C43.8438 32.1903 43.8687 31.99 43.9311 31.7396L45.6151 24.2918V24.054C45.6151 23.8412 45.4903 23.7286 45.2409 23.7286L45.2908 23.4532H47.9103C48.1099 23.4532 48.2472 23.5033 48.322 23.5909C48.3844 23.6785 48.4218 23.8037 48.4218 23.9664C48.4218 24.0665 48.3968 24.2418 48.3345 24.4671H48.5091C48.6713 24.029 48.8459 23.7286 49.058 23.5533C49.2576 23.3781 49.5569 23.2905 49.9436 23.2905H52.1641Z" fill="black"/>
<path d="M63.4289 24.9302C63.4289 25.2807 63.3416 25.8315 63.167 26.5825L61.9445 31.9024V32.1402C61.9445 32.353 62.0692 32.4656 62.3187 32.4656L62.2688 32.741H59.6492C59.3124 32.741 59.1378 32.6033 59.1378 32.3154C59.1378 32.1777 59.1628 31.9775 59.2251 31.7271L60.3852 26.6075C60.4351 26.3948 60.4476 26.1945 60.4476 26.0192C60.4476 25.6187 60.2231 25.4184 59.7865 25.4184H59.3499C59.0006 25.4184 58.7137 25.481 58.4891 25.5937C58.2646 25.7188 58.1024 25.9566 58.0151 26.3322L56.6679 31.9024V32.1402C56.6679 32.353 56.7926 32.4656 57.0421 32.4656L56.9922 32.741H54.3727C54.0234 32.741 53.8612 32.6033 53.8612 32.3154C53.8612 32.1777 53.8862 31.9775 53.9485 31.7271L55.6824 24.2793V24.0415C55.6824 23.8287 55.5577 23.7161 55.3082 23.7161L55.3581 23.4407H57.9777C58.1773 23.4407 58.327 23.4907 58.3893 23.5784C58.4642 23.666 58.4891 23.7911 58.4891 23.9539C58.4891 24.1041 58.4517 24.3169 58.3644 24.5923L58.4891 24.6048L59.038 23.8162C59.1877 23.6034 59.3998 23.4532 59.6617 23.3906C59.9362 23.328 60.4476 23.2905 61.221 23.2905C62.0069 23.2905 62.5807 23.4407 62.9424 23.7411C63.2668 24.0039 63.4289 24.4045 63.4289 24.9302Z" fill="black"/>
<path d="M75.9418 25.1305C75.9418 25.3433 75.9294 25.4935 75.9169 25.6062C75.9044 25.7188 75.8545 25.9316 75.7797 26.2571L74.4449 31.9149V32.1527C74.4449 32.3655 74.5697 32.4782 74.8192 32.4782L74.7693 32.7535H72.1497C71.8004 32.7535 71.6382 32.6033 71.6382 32.3154C71.6382 32.1777 71.6632 31.9775 71.7256 31.7271L71.8129 31.4017H71.6133L71.1517 32.2153C70.9896 32.4907 70.7775 32.6784 70.528 32.7661C70.2661 32.8537 69.7921 32.9037 69.0935 32.9037C68.3076 32.9037 67.7213 32.7035 67.3471 32.3154C66.9729 31.9149 66.7858 31.3891 66.7858 30.7007C66.7858 30.563 66.7858 30.4128 66.7982 30.2376C66.7982 30.0623 66.8481 29.8245 66.923 29.499C67.16 28.4726 67.5342 27.7341 68.0332 27.296C68.5322 26.8579 69.2432 26.6451 70.1538 26.6451H72.3617C72.4865 26.6451 72.5988 26.6076 72.6985 26.545C72.7983 26.4824 72.8607 26.4073 72.8732 26.3196C72.8981 26.232 72.9231 26.1194 72.9356 25.9817C72.9605 25.844 72.973 25.7313 72.973 25.6562C72.973 25.4434 72.8482 25.3433 72.5988 25.3433H69.9417C69.4927 25.3433 69.2681 25.1555 69.2681 24.7925L69.58 23.4532H74.0582C74.7443 23.4532 75.2308 23.6034 75.5302 23.9163C75.8171 24.1792 75.9418 24.5797 75.9418 25.1305ZM72.4615 28.4351H71.1767C70.4158 28.4351 69.9417 28.7856 69.7671 29.499C69.7172 29.6868 69.7047 29.8495 69.7047 30.0122C69.7047 30.3001 69.7921 30.4879 69.9667 30.6006C70.1413 30.7007 70.4407 30.7508 70.8524 30.7508H71.9501L72.4615 28.4351Z" fill="black"/>
<path d="M86.208 23.4527L85.9336 24.6169C85.8712 24.8922 85.7589 25.08 85.6217 25.1801C85.4845 25.2803 85.2724 25.3303 84.9731 25.3303H84.0874C83.6508 25.3303 83.4013 25.5306 83.314 25.9312L82.4782 29.6238L82.4034 30.1245C82.4034 30.4499 82.6154 30.6126 83.052 30.6126C83.6633 30.6126 84.0999 30.5751 84.3369 30.5125C84.5739 30.4374 84.761 30.2872 84.8857 30.0744H85.1602L84.8234 31.614C84.736 32.0146 84.5739 32.315 84.3493 32.4902C84.1248 32.6655 83.8005 32.7531 83.3639 32.7531H80.7443C80.2703 32.7531 79.8961 32.6655 79.6466 32.4902C79.3971 32.315 79.2723 32.0021 79.2723 31.564C79.2723 31.4889 79.2723 31.4138 79.2723 31.3512C79.2723 31.2886 79.2973 31.1759 79.3347 31.0007L80.632 25.3303H79.8087L80.1705 23.7281C80.8441 23.7281 81.4304 23.5779 81.9169 23.2775C82.4907 22.9396 82.9148 22.4013 83.1892 21.6753H84.2745L83.8753 23.4277H86.208V23.4527Z" fill="black"/>
<path d="M93.8411 23.9665C93.8411 24.0666 93.8161 24.2419 93.7538 24.4672L92.0074 31.915V32.1528C92.0074 32.3656 92.1321 32.4782 92.3816 32.4782L92.3317 32.7536H89.7121C89.3753 32.7536 89.2007 32.6159 89.2007 32.328C89.2007 32.1903 89.2256 31.9901 89.288 31.7397L91.0344 24.2919V24.0541C91.0344 23.8413 90.9097 23.7287 90.6602 23.7287L90.7101 23.4533H93.3297C93.5292 23.4533 93.6665 23.5034 93.7413 23.591C93.8037 23.6786 93.8411 23.8038 93.8411 23.9665ZM94.627 21.2627C94.627 21.3754 94.602 21.5757 94.5397 21.8511C94.4523 22.2266 94.365 22.5646 94.3026 22.8524H91.8203C91.6581 22.8524 91.5334 22.8274 91.4211 22.7773C91.3213 22.7273 91.2714 22.6146 91.2714 22.4143L91.6082 20.8622H94.0781C94.2652 20.8622 94.4024 20.8872 94.4898 20.9373C94.5896 20.9999 94.627 21.1 94.627 21.2627Z" fill="black"/>
<path d="M106.39 26.4447C106.39 26.645 106.365 26.8953 106.315 27.2083C106.265 27.5212 106.215 27.7966 106.165 28.0219L105.841 29.3863C105.517 30.7507 105.043 31.6769 104.406 32.1651C103.77 32.6533 102.722 32.8911 101.263 32.8911H100.814C99.6663 32.8911 98.7806 32.6783 98.1569 32.2527C97.4334 31.7646 97.0717 31.0135 97.0717 29.9996C97.0717 29.6491 97.1216 29.2486 97.2213 28.798L97.5457 27.3585C97.895 25.8063 98.4064 24.7424 99.08 24.1666C99.7661 23.5908 100.814 23.3029 102.248 23.3029H102.885C104.219 23.3029 105.167 23.6158 105.729 24.2542C106.178 24.7298 106.39 25.4684 106.39 26.4447ZM103.583 26.3946C103.583 25.6436 103.172 25.2806 102.361 25.2806C101.762 25.2806 101.325 25.4308 101.051 25.7187C100.776 26.0066 100.527 26.6325 100.327 27.5713L100.041 28.848C99.9906 29.0608 99.9657 29.2235 99.9407 29.3738C99.9158 29.5114 99.9033 29.6617 99.9033 29.8119C99.9033 30.5629 100.302 30.9259 101.101 30.9259C101.687 30.9259 102.124 30.7757 102.398 30.4753C102.685 30.1749 102.922 29.6366 103.097 28.8606L103.371 27.759C103.508 27.2083 103.583 26.7576 103.583 26.3946Z" fill="black"/>
<path d="M119.151 24.9302C119.151 25.2807 119.063 25.8315 118.889 26.5825L117.666 31.9024V32.1402C117.666 32.353 117.791 32.4656 118.041 32.4656L117.991 32.741H115.371C115.022 32.741 114.86 32.6033 114.86 32.3154C114.86 32.1777 114.885 31.9775 114.947 31.7271L116.107 26.6075C116.157 26.3948 116.169 26.1945 116.169 26.0192C116.169 25.6187 115.945 25.4184 115.508 25.4184H115.072C114.722 25.4184 114.435 25.481 114.211 25.5937C113.986 25.7188 113.824 25.9566 113.737 26.3322L112.39 31.9024V32.1402C112.39 32.353 112.514 32.4656 112.764 32.4656L112.714 32.741H110.094C109.758 32.741 109.583 32.6033 109.583 32.3154C109.583 32.1777 109.608 31.9775 109.67 31.7271L111.404 24.2793V24.0415C111.404 23.8287 111.279 23.7161 111.03 23.7161L111.08 23.4407H113.7C113.912 23.4407 114.036 23.4907 114.111 23.5784C114.174 23.666 114.211 23.7911 114.211 23.9539C114.211 24.1041 114.174 24.3169 114.086 24.5923L114.211 24.6048L114.76 23.8162C114.91 23.6034 115.122 23.4532 115.384 23.3906C115.658 23.328 116.169 23.2905 116.943 23.2905C117.729 23.2905 118.302 23.4407 118.664 23.7411C118.989 24.0039 119.151 24.4045 119.151 24.9302Z" fill="black"/>
<path d="M131.665 25.1305C131.665 25.3433 131.652 25.4935 131.64 25.6062C131.627 25.7188 131.577 25.9316 131.502 26.2571L130.168 31.9149V32.1527C130.168 32.3655 130.292 32.4782 130.542 32.4782L130.492 32.7535H127.872C127.536 32.7535 127.361 32.6033 127.361 32.3154C127.361 32.1777 127.386 31.9775 127.448 31.7271L127.536 31.4017H127.324L126.862 32.2153C126.7 32.4907 126.488 32.6784 126.238 32.7661C125.989 32.8537 125.502 32.9037 124.804 32.9037C124.018 32.9037 123.432 32.7035 123.07 32.3154C122.696 31.9149 122.509 31.3891 122.509 30.7007C122.509 30.563 122.509 30.4128 122.521 30.2376C122.521 30.0623 122.571 29.8245 122.646 29.499C122.883 28.4726 123.257 27.7341 123.756 27.296C124.255 26.8579 124.966 26.6451 125.877 26.6451H128.085C128.209 26.6451 128.322 26.6076 128.421 26.545C128.521 26.4824 128.583 26.4073 128.596 26.3196C128.621 26.232 128.646 26.1194 128.658 25.9817C128.683 25.844 128.696 25.7313 128.696 25.6562C128.696 25.4434 128.571 25.3433 128.322 25.3433H125.677C125.228 25.3433 125.003 25.1555 125.003 24.7925L125.315 23.4532H129.793C130.48 23.4532 130.966 23.6034 131.265 23.9163C131.54 24.1792 131.665 24.5797 131.665 25.1305ZM128.184 28.4351H126.899C126.139 28.4351 125.665 28.7856 125.49 29.499C125.44 29.6868 125.428 29.8495 125.428 30.0122C125.428 30.3001 125.515 30.4879 125.689 30.6006C125.864 30.7007 126.163 30.7508 126.575 30.7508H127.673L128.184 28.4351Z" fill="black"/>
<path d="M140.121 21.3878C140.121 21.488 140.096 21.6632 140.033 21.8885L137.701 31.9149V32.1527C137.701 32.3655 137.825 32.4782 138.075 32.4782L138.025 32.7535H135.405C135.069 32.7535 134.894 32.6158 134.894 32.3279C134.894 32.1902 134.919 31.99 134.981 31.7396L137.314 21.7133V21.4755C137.314 21.2627 137.189 21.15 136.94 21.15L136.99 20.8746H139.609C139.821 20.8746 139.946 20.9247 140.021 21.0123C140.083 21.0999 140.121 21.2251 140.121 21.3878Z" fill="black"/>
</svg>
