<svg width="40" height="40" viewBox="0 0 40 40" fill="none" xmlns="http://www.w3.org/2000/svg">
<path d="M23.2463 34.3567C21.8162 34.768 20.3113 35.0005 18.75 35.0005C9.775 35.0005 2.5 27.7255 2.5 18.7505C2.5 14.1142 4.4525 9.94047 7.5675 6.98047C7.8475 8.06422 8.18875 9.07297 8.6275 9.94172C6.56875 12.303 5.3125 15.3792 5.3125 18.7505C5.3125 26.1605 11.34 32.188 18.75 32.188C20.36 32.188 21.8975 31.8892 23.3288 31.368L23.2463 34.3567Z" fill="#C73634"/>
<path d="M20.3125 21.6253V26.8753C20.3125 28.0878 20.85 29.1728 21.6963 29.9178C20.7538 30.1666 19.77 30.3128 18.75 30.3128C12.3738 30.3128 7.1875 25.1266 7.1875 18.7503C7.1875 16.0566 8.12125 13.5816 9.67125 11.6128C11.0425 13.3853 12.8587 14.3753 15 14.3753C15.32 14.3753 15.6588 14.3453 16.0063 14.2966C15.9913 14.3841 15.8212 15.4178 15.7025 16.1491C15.64 16.5291 15.9338 16.8753 16.3188 16.8753H20.7638C21.0725 16.8753 21.3362 16.6491 21.3812 16.3441L21.6388 14.6328L22.9275 14.3166C25.0937 13.7853 26.6325 12.7591 27.7487 11.5078C29.3487 13.4916 30.3113 16.0091 30.3113 18.7503C30.3113 18.9728 30.29 19.1903 30.2775 19.4103C30.165 19.3928 30.0525 19.3753 29.9362 19.3753H22.5612C21.3225 19.3753 20.3125 20.3853 20.3125 21.6253Z" fill="#C73634"/>
<path d="M35 18.7501C33.9088 18.7501 32.9375 19.1964 32.1288 19.9076C32.1613 19.5251 32.1875 19.1401 32.1875 18.7501C32.1875 15.3801 30.9325 12.3051 28.8763 9.94387C29.4075 9.01637 29.7625 8.03012 30.0188 7.05762C33.085 10.0139 35 14.1551 35 18.7501Z" fill="#C73634"/>
<path d="M35.985 29.2303L36.215 37.5003C36.2338 38.1853 35.685 38.7503 35 38.7503C34.315 38.7503 33.7662 38.1853 33.785 37.5003L34.015 29.229C32.6 28.839 31.5625 27.6015 31.5625 25.624C31.5625 23.2078 33.1012 20.624 35 20.624C36.8988 20.624 38.4375 23.2078 38.4375 25.624C38.4375 27.6028 37.4 28.8403 35.985 29.2303Z" fill="#C73634"/>
<path d="M30.3125 21.625V26.875C30.3125 28.0825 29.3325 29.0625 28.125 29.0625H27.2312L27.465 37.5C27.4838 38.185 26.935 38.75 26.25 38.75C25.565 38.75 25.0162 38.185 25.035 37.5L25.27 29.0625H24.375C23.1675 29.0625 22.1875 28.0825 22.1875 26.875V21.625C22.1875 21.4175 22.355 21.25 22.5625 21.25H23.6875C23.895 21.25 24.0625 21.4175 24.0625 21.625V26.875C24.0625 27.0475 24.2025 27.1875 24.375 27.1875H25.3125V21.625C25.3125 21.4175 25.48 21.25 25.6875 21.25H26.8125C27.02 21.25 27.1875 21.4175 27.1875 21.625V27.1875H28.125C28.2975 27.1875 28.4375 27.0475 28.4375 26.875V21.625C28.4375 21.4175 28.605 21.25 28.8125 21.25H29.9375C30.145 21.25 30.3125 21.4175 30.3125 21.625Z" fill="#C73634"/>
<path d="M16.4012 12.324C15.925 12.434 15.4475 12.5002 15 12.5002C10.89 12.5002 8.84125 7.49521 8.7525 1.64521C8.75 1.43146 8.92625 1.25021 9.14 1.25396C12.0575 1.31271 15.3175 2.03521 17.4987 3.63771C16.3475 5.16896 15.8225 6.91646 15.6387 8.53896C15.4987 9.77396 15.7725 11.0177 16.4325 12.1852C16.4212 12.2302 16.4112 12.279 16.4012 12.324Z" fill="#C73634"/>
<path d="M28.3676 1.25296C28.5789 1.25046 28.7526 1.42546 28.7501 1.63671C28.7064 6.47921 27.7976 11.1892 22.4814 12.4942C22.5589 10.8767 23.5726 8.75671 24.7064 6.83046C24.9251 6.45796 24.4464 6.06921 24.1301 6.36296C22.5451 7.83921 20.8076 10.2042 20.0151 13.278C19.8589 13.8842 19.7514 14.5055 19.6801 15.0005H17.7876C17.9864 13.7755 18.2601 12.4842 18.4589 11.8667C17.9389 11.1667 17.3526 10.0717 17.5026 8.75046C18.1876 2.69921 23.4714 1.31921 28.3676 1.25296Z" fill="#C73634"/>
</svg>
