<svg width="40" height="40" viewBox="0 0 40 40" fill="none" xmlns="http://www.w3.org/2000/svg">
<g clip-path="url(#clip0_57_28449)">
<path d="M22.5171 7.91564C22.6963 7.93897 22.8605 8.0323 22.9663 8.17897C23.4621 8.86479 23.7621 9.67977 23.8754 10.5123C23.9221 10.8498 24.2169 11.0906 24.5571 11.0847C24.9315 11.0783 25.2617 10.7195 25.1946 10.3214C24.9229 8.35646 23.7813 6.474 21.9338 5.65068C21.598 5.50068 21.4472 5.10653 21.5971 4.76987C21.7471 4.43404 22.1413 4.28237 22.4771 4.43237C23.2171 4.76237 23.8829 5.23569 24.4521 5.81985C24.7588 3.10906 27.0612 0.994102 29.8503 0.982436C30.9736 0.978269 31.9161 1.90242 31.9161 3.02573C31.9161 5.84018 29.763 8.21097 26.9345 8.4598C26.5296 8.49563 26.2479 8.88062 26.3471 9.27478C26.3933 9.55244 26.6887 9.82144 27.0537 9.78977C28.6149 9.65336 30.0282 8.98612 31.1078 7.97064C31.2395 7.84647 31.4161 7.78148 31.597 7.78981C36.2078 7.99664 38.9112 10.614 39.7435 15.0247C40.586 19.4771 39.2829 24.9708 36.8652 28.5736C35.0541 31.2715 32.5856 33.0627 29.3588 32.5872C29.1273 32.5531 28.9333 32.3957 28.8443 32.1793C26.408 26.2484 22.6379 20.9093 17.8314 16.6146C16.3112 15.2523 14.5418 14.5369 12.6696 14.4975C12.2252 14.4882 11.9208 14.0507 12.0539 13.6266C13.5729 8.78504 17.5653 7.2689 22.5171 7.91564ZM32.8028 13.6089C34.9069 15.3313 34.9827 19.1379 34.1244 22.1454C34.0236 22.4995 34.2286 22.8679 34.5827 22.9695C34.9343 23.0706 35.3046 22.8667 35.4069 22.5112C36.3556 19.1839 36.3133 14.7596 33.6478 12.5772C33.3628 12.3439 32.9428 12.3856 32.7094 12.6705C32.4761 12.9555 32.5186 13.3755 32.8028 13.6089Z" fill="#C73634"/>
<path d="M0.660866 19.2322C2.25834 19.2189 3.72081 19.513 5.11745 20.133C5.29995 19.8755 5.49494 19.6255 5.6991 19.3839C5.20161 18.6256 4.86996 17.8089 4.70912 16.9506C4.64079 16.5889 4.87995 16.2406 5.24161 16.1731C5.60327 16.1056 5.9516 16.3431 6.0191 16.7056C6.1291 17.2906 6.33993 17.8531 6.64992 18.3864C9.5637 15.6744 13.2633 14.8673 16.5112 17.2763C16.8757 17.5466 16.8721 18.0941 16.5017 18.3563C15.4986 19.0662 14.4978 19.852 13.5855 20.7224C13.1487 21.1391 13.4495 21.8714 14.0457 21.8714C14.2111 21.8714 14.3768 21.8102 14.5058 21.6871C15.5102 20.7287 16.64 19.8706 17.7597 19.1049C18.0253 18.9233 18.3819 18.9581 18.6095 19.1855C19.3215 19.8966 20.0067 20.6324 20.6632 21.3917C20.9146 21.6824 20.8692 22.1273 20.562 22.3583C19.3976 23.2336 18.3298 24.2099 17.3524 25.2935C17.1275 25.5428 17.1061 25.9228 17.322 26.18C17.588 26.4969 18.0622 26.4977 18.3304 26.2C19.2866 25.1379 20.323 24.1985 21.4411 23.3659C21.7342 23.1476 22.1493 23.2108 22.3695 23.5024C23.0295 24.3761 23.6542 25.2757 24.2423 26.1983C24.4234 26.4826 24.3645 26.8551 24.1066 27.072C23.7184 27.3986 23.3357 27.7475 22.9597 28.1215C22.7176 28.3623 22.6725 28.7499 22.8818 29.0196C23.1325 29.3428 23.6004 29.3656 23.8813 29.0853C24.1349 28.8323 24.3757 28.6063 24.619 28.3912C24.939 28.1083 25.4402 28.1954 25.6452 28.57C26.8088 30.6959 27.7859 32.9256 28.5584 35.2334C29.2313 37.2433 27.5826 39.2541 25.476 38.9958C23.3334 38.7254 21.2196 38.2851 19.1547 37.6843C18.7752 37.5739 18.5717 37.1581 18.7225 36.7929C19.302 35.39 20.0072 34.0585 20.8437 32.7901C21.0466 32.4828 20.9617 32.0693 20.6544 31.8666C20.3467 31.6639 19.9334 31.7487 19.7308 32.056C18.8435 33.4011 18.0641 34.8628 17.4183 36.4599C17.2832 36.794 16.9093 36.9626 16.5706 36.8394C14.2803 36.006 12.0642 34.9698 9.95144 33.7433C9.66736 33.5784 9.54436 33.2321 9.6617 32.9253C10.3841 31.035 11.2805 29.2189 12.3661 27.4712C12.559 27.1607 12.4908 26.7417 12.1866 26.5389C11.8718 26.3292 11.4485 26.4222 11.2501 26.7409C10.2275 28.3837 9.34129 30.1246 8.60372 31.9686C8.44572 32.3636 7.96531 32.5166 7.61232 32.279C7.03666 31.8915 6.47009 31.4893 5.91377 31.072C2.69583 28.656 2.50108 24.7342 4.3988 21.2747C3.23049 20.7864 2.00384 20.5601 0.672199 20.5655C0.28904 20.5671 0.00296211 20.2621 -0.00028801 19.9047C-0.00328827 19.5364 0.29254 19.2355 0.660866 19.2322ZM15.3626 32.3995C15.6872 32.5762 16.0915 32.4551 16.267 32.1329C16.4924 31.7191 16.7318 31.3083 16.9787 30.912C17.1733 30.5995 17.0777 30.1883 16.7652 29.9937C16.4523 29.799 16.0414 29.8946 15.8468 30.2072C15.5863 30.6254 15.3338 31.0587 15.096 31.4952C14.92 31.8185 15.0393 32.2234 15.3626 32.3995Z" fill="#C73634"/>
</g>
<defs>
<clipPath id="clip0_57_28449">
<rect width="40" height="40" fill="white" transform="matrix(-1 0 0 1 40 0)"/>
</clipPath>
</defs>
</svg>
