<svg width="40" height="40" viewBox="0 0 40 40" fill="none" xmlns="http://www.w3.org/2000/svg">
<path d="M23.75 26.875V17.5H30V19.0719C30 22.3444 31.1881 25.4569 33.335 27.9069C33.205 28.1612 33.125 28.445 33.125 28.75V30H25.625V28.75C25.625 27.7162 24.7838 26.875 23.75 26.875ZM16.25 14.935V14.6788C16.25 11.4094 15.0781 8.32625 12.9525 5.88375C15.5194 3.5175 18.885 2.05437 22.5 1.90125V16.25H16.73C16.6244 15.7875 16.4619 15.3469 16.25 14.935ZM23.75 1.89062C27.4312 2.0425 30.7731 3.52625 33.3069 5.87313C31.175 8.31687 30 11.4044 30 14.6781V16.25H23.75V1.89062ZM31.25 19.0719V17.5H38.0956C37.95 21.0338 36.5831 24.37 34.1906 26.9862C32.2975 24.7794 31.25 21.9963 31.25 19.0719ZM31.25 16.25V14.6781C31.25 11.7388 32.2931 8.96438 34.1894 6.75875C36.5006 9.28438 37.9587 12.6013 38.1094 16.25H31.25ZM12.07 6.76875C13.6469 8.60687 14.625 10.84 14.9069 13.2344C13.9219 12.3894 12.6462 11.875 11.25 11.875H8.99C9.67188 9.95125 10.7306 8.22563 12.07 6.76875ZM14.375 38.125H4.375V34.375H14.375V38.125ZM14.1919 31.1744C13.6625 31.7038 13.3125 32.3925 13.1831 33.125H5.625V32.5C5.625 32.3337 5.55937 32.175 5.44187 32.0581C3.14187 29.7575 1.875 26.7 1.875 23.4469V17.5C1.875 15.0881 3.8375 13.125 6.25 13.125H11.25C13.6625 13.125 15.625 15.0881 15.625 17.5V19.4381C14.2006 19.7288 13.125 20.9906 13.125 22.5V23.75H14.375V22.5C14.375 21.4662 15.2163 20.625 16.25 20.625C17.2837 20.625 18.125 21.4662 18.125 22.5V26.25C18.125 26.88 17.8694 27.4963 17.4244 27.9419L14.1919 31.1744ZM16.7062 30.4275L18.3081 28.8256C18.9862 28.1475 19.375 27.2087 19.375 26.25V22.5C19.375 20.9912 18.2994 19.7288 16.875 19.4381V17.5H22.5V26.875H21.25C20.2162 26.875 19.375 27.7162 19.375 28.75V31.3937C18.4556 31.1569 17.5631 30.8344 16.7062 30.4275ZM24.375 37.5C24.375 37.845 24.0944 38.125 23.75 38.125H21.25C20.9056 38.125 20.625 37.845 20.625 37.5V28.75C20.625 28.405 20.9056 28.125 21.25 28.125H23.75C24.0944 28.125 24.375 28.405 24.375 28.75V37.5ZM25.625 35V31.25H33.125V35H25.625ZM34.375 28.75C34.375 28.405 34.6556 28.125 35 28.125H37.5C37.8444 28.125 38.125 28.405 38.125 28.75V37.5C38.125 37.845 37.8444 38.125 37.5 38.125H35C34.6556 38.125 34.375 37.845 34.375 37.5V28.75Z" fill="#C73634"/>
</svg>
