<svg width="40" height="40" viewBox="0 0 40 40" fill="none" xmlns="http://www.w3.org/2000/svg">
<g clip-path="url(#clip0_57_28359)">
<path d="M37.9167 35H2.08333C0.93274 35 0 35.9327 0 37.0833V37.9167C0 39.0673 0.93274 40 2.08333 40H37.9167C39.0673 40 40 39.0673 40 37.9167V37.0833C40 35.9327 39.0673 35 37.9167 35Z" fill="#C73634"/>
<path d="M1.73418 17.3091C1.89071 17.5411 2.09215 17.7393 2.32659 17.8921C2.56104 18.0448 2.82373 18.149 3.09914 18.1985C3.37456 18.248 3.65709 18.2418 3.93005 18.1802C4.20302 18.1186 4.46086 18.0029 4.68834 17.84L19.7558 6.94081C19.8269 6.88943 19.9123 6.86177 20 6.86177C20.0877 6.86177 20.1731 6.88943 20.2442 6.94081L35.3125 17.84C35.5399 18.003 35.7978 18.1187 36.0707 18.1803C36.3437 18.2418 36.6262 18.248 36.9016 18.1984C37.1769 18.1489 37.4396 18.0445 37.6739 17.8916C37.9083 17.7387 38.1095 17.5404 38.2658 17.3083L39.0392 16.1491C39.3398 15.7013 39.4545 15.1541 39.3588 14.6233C39.2632 14.0925 38.9647 13.6197 38.5267 13.305L21.2208 0.78581C20.8656 0.528915 20.4384 0.390625 20 0.390625C19.5616 0.390625 19.1344 0.528915 18.7792 0.78581L1.47335 13.305C1.03528 13.6197 0.736851 14.0925 0.641199 14.6233C0.545547 15.1541 0.660182 15.7013 0.960845 16.1491L1.73418 17.3091Z" fill="#C73634"/>
<path d="M35.4167 34.1662C35.5273 34.1662 35.6332 34.1223 35.7114 34.0441C35.7895 33.966 35.8334 33.86 35.8334 33.7495V19.287C35.8334 19.2009 35.8067 19.117 35.757 19.0467C35.7073 18.9764 35.637 18.9233 35.5559 18.8945C35.2951 18.8034 35.0488 18.6754 34.8243 18.5145L20.2442 7.96868C20.1732 7.91731 20.0878 7.88965 20.0001 7.88965C19.9124 7.88965 19.827 7.91731 19.7559 7.96868L5.17758 18.5145C4.95182 18.6751 4.70471 18.8033 4.44341 18.8954C4.36244 18.9242 4.29238 18.9775 4.24285 19.0477C4.19332 19.118 4.16674 19.2019 4.16675 19.2879V33.7495C4.16675 33.86 4.21065 33.966 4.28879 34.0441C4.36693 34.1223 4.47291 34.1662 4.58341 34.1662H9.58342V31.2495H31.2501V34.1662H35.4167ZM12.9167 21.2495C12.9167 20.8075 13.0923 20.3836 13.4049 20.071C13.7175 19.7584 14.1414 19.5829 14.5834 19.5829H25.4167C25.8588 19.5829 26.2827 19.7584 26.5953 20.071C26.9078 20.3836 27.0834 20.8075 27.0834 21.2495V26.2495H24.5834V23.7495C24.5834 23.3075 24.4078 22.8836 24.0953 22.571C23.7827 22.2584 23.3588 22.0829 22.9167 22.0829H17.0834C16.6414 22.0829 16.2175 22.2584 15.9049 22.571C15.5923 22.8836 15.4167 23.3075 15.4167 23.7495V26.2495H12.9167V21.2495ZM23.7501 23.7495V26.2495H16.2501V23.7495C16.2501 23.5285 16.3379 23.3165 16.4942 23.1603C16.6504 23.004 16.8624 22.9162 17.0834 22.9162H22.9167C23.1378 22.9162 23.3497 23.004 23.506 23.1603C23.6623 23.3165 23.7501 23.5285 23.7501 23.7495ZM9.58342 30.4162V28.7495C9.58342 28.3075 9.75901 27.8836 10.0716 27.571C10.3841 27.2584 10.8081 27.0829 11.2501 27.0829H29.5834C30.0254 27.0829 30.4494 27.2584 30.7619 27.571C31.0745 27.8836 31.2501 28.3075 31.2501 28.7495V30.4162H9.58342Z" fill="#C73634"/>
<path d="M12.0833 32.917H28.7499V34.167H12.0833V32.917Z" fill="#C73634"/>
</g>
<defs>
<clipPath id="clip0_57_28359">
<rect width="40" height="40" fill="white"/>
</clipPath>
</defs>
</svg>
