<svg width="40" height="40" viewBox="0 0 40 40" fill="none" xmlns="http://www.w3.org/2000/svg">
<g clip-path="url(#clip0_57_28382)">
<path d="M23.5654 13.2812C23.8049 13.2812 24.0433 13.2068 24.2438 13.0609C24.5837 12.814 24.7626 12.4014 24.7104 11.9842L24.2889 8.61358L26.6113 6.13434C26.8988 5.82733 26.9965 5.38879 26.8664 4.98871C26.7364 4.58893 26.3995 4.29169 25.9866 4.21234L22.6508 3.57147L21.0104 0.596618C20.8075 0.228577 20.4202 0 20 0C19.5795 0 19.1925 0.228577 18.9896 0.596618L17.3492 3.57147L14.0131 4.21234C13.6005 4.29138 13.2632 4.58893 13.1332 4.98871C13.0035 5.38879 13.1012 5.82733 13.3887 6.13434L15.7111 8.61358L15.2896 11.9842C15.2371 12.4014 15.416 12.814 15.7562 13.0609C16.0962 13.3081 16.5436 13.3508 16.9244 13.172L20 11.7297L23.0756 13.172C23.2318 13.2452 23.399 13.2812 23.5654 13.2812Z" fill="#C73634"/>
<path d="M39.9436 16.7078C39.8136 16.308 39.4766 16.0104 39.0637 15.9311L35.7276 15.2902L34.0872 12.3154C33.8843 11.9473 33.4973 11.7188 33.0768 11.7188C32.6566 11.7188 32.2693 11.9473 32.0664 12.3154L30.426 15.2902L27.0902 15.9311C26.6773 16.0104 26.3404 16.308 26.2103 16.7078C26.0803 17.1075 26.1783 17.5461 26.4655 17.8531L28.7879 20.3323L28.3664 23.7033C28.3142 24.1205 28.4931 24.5328 28.833 24.7797C29.173 25.0268 29.6204 25.0696 30.0012 24.891L33.0768 23.4485L36.1527 24.891C36.3086 24.9643 36.4758 25.0003 36.6422 25.0003C36.882 25.0003 37.1201 24.9255 37.3206 24.78C37.6605 24.5328 37.8394 24.1205 37.7872 23.7033L37.3657 20.3326L39.6881 17.8531C39.9756 17.5464 40.0736 17.1075 39.9436 16.7078Z" fill="#C73634"/>
<path d="M17.9098 30.9311L14.5739 30.2905L12.9336 27.3157C12.7306 26.9476 12.3434 26.7188 11.9232 26.7188C11.5026 26.7188 11.1157 26.9476 10.9127 27.3157L9.2724 30.2905L5.93622 30.9311C5.52331 31.0104 5.1864 31.308 5.0564 31.7078C4.9267 32.1075 5.02435 32.5464 5.31183 32.8531L7.63391 35.3323L7.21246 38.7033C7.16028 39.1205 7.33911 39.5328 7.67938 39.78C8.01935 40.0268 8.46673 40.0699 8.84729 39.891L11.9232 38.4485L14.9987 39.891C15.1547 39.9643 15.3219 40.0003 15.4885 40.0003C15.7281 40.0003 15.9661 39.9255 16.1666 39.78C16.5069 39.5328 16.6857 39.1205 16.6335 38.7033L16.2118 35.3323L18.5342 32.8531C18.8216 32.5464 18.9193 32.1075 18.7896 31.7078C18.6599 31.308 18.3227 31.0104 17.9098 30.9311Z" fill="#C73634"/>
<path d="M34.0637 30.9311L30.7276 30.2905L29.0872 27.3157C28.8843 26.9476 28.4973 26.7188 28.0768 26.7188C27.6566 26.7188 27.2696 26.9476 27.0664 27.3157L25.426 30.2905L22.0902 30.9311C21.6773 31.0104 21.3404 31.308 21.2103 31.7078C21.0803 32.1075 21.1783 32.5464 21.4655 32.8531L23.7879 35.3323L23.3664 38.7033C23.3142 39.1205 23.4931 39.5328 23.833 39.78C24.173 40.0268 24.6204 40.0699 25.0012 39.891L28.0768 38.4485L31.1527 39.891C31.3086 39.9643 31.4758 40.0003 31.6422 40.0003C31.882 40.0003 32.1201 39.9255 32.3206 39.78C32.6605 39.5328 32.8394 39.1205 32.7872 38.7033L32.3657 35.3323L34.6881 32.8531C34.9756 32.5464 35.0733 32.1075 34.9432 31.7078C34.8135 31.308 34.4766 31.0104 34.0637 30.9311Z" fill="#C73634"/>
<path d="M9.99872 24.891C10.1547 24.9643 10.3219 25.0003 10.4885 25.0003C10.7281 25.0003 10.9661 24.9255 11.1669 24.78C11.5069 24.5328 11.6857 24.1205 11.6335 23.7033L11.2121 20.3326L13.5342 17.8531C13.8217 17.5464 13.9196 17.1075 13.7896 16.7078C13.6596 16.308 13.3227 16.0104 12.9098 15.9311L9.57361 15.2905L7.93329 12.3157C7.73035 11.9476 7.34339 11.7188 6.92285 11.7188C6.50263 11.7188 6.11536 11.9476 5.91242 12.3157L4.2724 15.2902L0.936225 15.9311C0.523322 16.0104 0.186408 16.308 0.0564033 16.7078C-0.0732963 17.1075 0.0243599 17.5461 0.31153 17.8531L2.63392 20.3323L2.21247 23.7033C2.16028 24.1205 2.33912 24.5328 2.67908 24.7797C3.01905 25.0268 3.46674 25.0696 3.8473 24.891L6.92316 23.4485L9.99872 24.891Z" fill="#C73634"/>
</g>
<defs>
<clipPath id="clip0_57_28382">
<rect width="40" height="40" fill="white"/>
</clipPath>
</defs>
</svg>
