<svg width="40" height="40" viewBox="0 0 40 40" fill="none" xmlns="http://www.w3.org/2000/svg">
<g clip-path="url(#clip0_57_28418)">
<path d="M36.875 2.5H33.125C33.125 1.46625 32.2837 0.625 31.25 0.625C30.2162 0.625 29.375 1.46625 29.375 2.5H21.875C21.875 1.46625 21.0338 0.625 20 0.625C18.9662 0.625 18.125 1.46625 18.125 2.5H10.625C10.625 1.46625 9.78375 0.625 8.75 0.625C7.71625 0.625 6.875 1.46625 6.875 2.5H3.125C1.40188 2.5 0 3.90188 0 5.625V36.25C0 37.9731 1.40188 39.375 3.125 39.375H31.875C32.0312 39.375 32.1819 39.3162 32.2975 39.2106L39.7975 32.3356C39.9263 32.2175 40 32.05 40 31.875V5.625C40 3.90188 38.5981 2.5 36.875 2.5ZM33.0894 6.60563C33.1025 6.69563 33.125 6.78312 33.125 6.875C33.125 7.90875 32.2837 8.75 31.25 8.75C30.2162 8.75 29.375 7.90875 29.375 6.875C29.375 6.78312 29.3975 6.69563 29.4106 6.60563C29.5775 7.47 30.3381 8.125 31.25 8.125C32.1619 8.125 32.9225 7.47 33.0894 6.60563ZM21.8394 6.60563C21.8525 6.69563 21.875 6.78312 21.875 6.875C21.875 7.90875 21.0338 8.75 20 8.75C18.9662 8.75 18.125 7.90875 18.125 6.875C18.125 6.78312 18.1475 6.69563 18.1606 6.60563C18.3275 7.47 19.0881 8.125 20 8.125C20.9119 8.125 21.6725 7.47 21.8394 6.60563ZM10.5894 6.60563C10.6025 6.69563 10.625 6.78312 10.625 6.875C10.625 7.90875 9.78375 8.75 8.75 8.75C7.71625 8.75 6.875 7.90875 6.875 6.875C6.875 6.78312 6.8975 6.69563 6.91062 6.60563C7.0775 7.47 7.83813 8.125 8.75 8.125C9.66187 8.125 10.4225 7.47 10.5894 6.60563ZM30.625 2.5C30.625 2.155 30.9056 1.875 31.25 1.875C31.5944 1.875 31.875 2.155 31.875 2.5V6.25C31.875 6.595 31.5944 6.875 31.25 6.875C30.9056 6.875 30.625 6.595 30.625 6.25V2.5ZM19.375 2.5C19.375 2.155 19.6556 1.875 20 1.875C20.3444 1.875 20.625 2.155 20.625 2.5V6.25C20.625 6.595 20.3444 6.875 20 6.875C19.6556 6.875 19.375 6.595 19.375 6.25V2.5ZM8.125 2.5C8.125 2.155 8.40563 1.875 8.75 1.875C9.09437 1.875 9.375 2.155 9.375 2.5V6.25C9.375 6.595 9.09437 6.875 8.75 6.875C8.40563 6.875 8.125 6.595 8.125 6.25V2.5ZM1.25 36.25V11.875H38.75V31.25H34.375C32.6519 31.25 31.25 32.6519 31.25 34.375V38.125H3.125C2.09125 38.125 1.25 37.2837 1.25 36.25Z" fill="#C73634"/>
<path d="M3.125 15.625C3.47 15.625 3.75 15.3456 3.75 15V13.75C3.75 13.4044 3.47 13.125 3.125 13.125C2.78 13.125 2.5 13.4044 2.5 13.75V15C2.5 15.3456 2.78 15.625 3.125 15.625Z" fill="#C73634"/>
<path d="M3.125 20.625C3.47 20.625 3.75 20.3456 3.75 20V16.875C3.75 16.5294 3.47 16.25 3.125 16.25C2.78 16.25 2.5 16.5294 2.5 16.875V20C2.5 20.3456 2.78 20.625 3.125 20.625Z" fill="#C73634"/>
<path d="M30.6118 31.0507H32.0212C33.1137 31.0507 34.0025 30.1619 34.0025 29.0694V27.7688H34.9874C36.0212 27.7688 36.8624 26.9275 36.8624 25.8938V25C36.8624 23.9663 36.0212 23.125 34.9874 23.125H34.0025V21.8219C34.0025 20.7294 33.1137 19.8407 32.0212 19.8407H30.6118V19.7869C30.6118 18.6944 29.7231 17.8057 28.6306 17.8057H26.5962C25.5037 17.8057 24.615 18.6944 24.615 19.7869V23.125H15.0131V19.7869C15.0131 18.6944 14.1243 17.8057 13.0318 17.8057H10.9975C9.90495 17.8057 9.0162 18.6944 9.0162 19.7869V19.8407H7.6062C6.5137 19.8407 5.62495 20.7294 5.62495 21.8219V23.125H5.01245C3.9787 23.125 3.13745 23.9663 3.13745 25V25.8938C3.13745 26.9275 3.9787 27.7688 5.01245 27.7688H5.62495V29.0694C5.62495 30.1619 6.5137 31.0507 7.6062 31.0507H9.01558V31.1038C9.01558 32.1963 9.90433 33.0857 10.9968 33.0857H13.0312C14.1237 33.0857 15.0125 32.1963 15.0125 31.1038V27.7688H24.6131V31.1038C24.6131 32.1963 25.5018 33.0857 26.5943 33.0857H28.6287C29.7212 33.0857 30.61 32.1963 30.61 31.1038V31.0507H30.6118ZM32.0212 21.0907C32.425 21.0907 32.7525 21.4182 32.7525 21.8219V29.0694C32.7525 29.4732 32.4243 29.8007 32.0212 29.8007H30.6118V21.0907H32.0212ZM7.6062 29.8007C7.20245 29.8007 6.87495 29.4732 6.87495 29.0694V21.8219C6.87495 21.4182 7.20308 21.0907 7.6062 21.0907H9.01558V29.8007H7.6062ZM15.0131 26.5188V24.375H24.6137V26.5188H15.0131Z" fill="#C73634"/>
<path d="M5 35.625H4.375C4.03062 35.625 3.75 35.345 3.75 35V33.75C3.75 33.4044 3.47 33.125 3.125 33.125C2.78 33.125 2.5 33.4044 2.5 33.75V35C2.5 36.0338 3.34125 36.875 4.375 36.875H5C5.345 36.875 5.625 36.5956 5.625 36.25C5.625 35.9044 5.345 35.625 5 35.625Z" fill="#C73634"/>
<path d="M33.75 15H36.875C37.22 15 37.5 14.7206 37.5 14.375C37.5 14.0294 37.22 13.75 36.875 13.75H33.75C33.405 13.75 33.125 14.0294 33.125 14.375C33.125 14.7206 33.405 15 33.75 15Z" fill="#C73634"/>
<path d="M31.875 17.5H36.875C37.22 17.5 37.5 17.2206 37.5 16.875C37.5 16.5294 37.22 16.25 36.875 16.25H31.875C31.53 16.25 31.25 16.5294 31.25 16.875C31.25 17.2206 31.53 17.5 31.875 17.5Z" fill="#C73634"/>
</g>
<defs>
<clipPath id="clip0_57_28418">
<rect width="40" height="40" fill="white"/>
</clipPath>
</defs>
</svg>
