<svg width="40" height="40" viewBox="0 0 40 40" fill="none" xmlns="http://www.w3.org/2000/svg">
<g clip-path="url(#clip0_57_28437)">
<path fill-rule="evenodd" clip-rule="evenodd" d="M25.8752 18.8922C24.2946 18.4919 22.0927 17.6616 20.8575 15.7649L15.3114 3.89413C15.2784 3.82347 15.2353 3.76139 15.1817 3.71112C14.1223 2.52553 13.1078 1.97689 12.1341 2.00075C11.1221 2.02552 10.2285 2.65249 9.43983 3.81263C9.1599 4.22436 9.45816 8.94265 9.68032 12.4579C9.7583 13.692 9.82656 14.7722 9.85988 15.4365L5.03899 15.4365C4.99723 15.4365 4.95647 15.4385 4.91712 15.4467C4.56082 15.5039 1.63555 16.0229 0.99786 17.7443C0.971067 17.8168 0.958447 17.8909 0.960116 17.9638V32.9927C0.960116 33.0722 0.975752 33.1481 1.00407 33.2174C1.15457 33.673 2.40036 37.1024 6.03953 37.8713C6.08474 37.8808 6.12951 37.8865 6.17382 37.8856H16.6462C16.7105 37.8856 16.7723 37.8754 16.8303 37.8565C17.1763 37.7631 19.7179 37.0198 21.668 34.8576H25.8505V19.3382C25.8505 19.1883 25.8588 19.0395 25.8752 18.8922Z" fill="#C73634"/>
<path d="M29.8858 16.4922H36.1943C36.9775 16.4922 37.689 16.8122 38.2045 17.3276C38.72 17.8431 39.04 18.5547 39.04 19.3379V35.1537C39.04 35.9369 38.72 36.6484 38.2045 37.1639C37.689 37.6794 36.9775 37.9994 36.1943 37.9994H29.8858C29.1027 37.9994 28.3911 37.6794 27.8756 37.1639C27.3602 36.6485 27.0402 35.9368 27.0402 35.1537V19.3379C27.0402 18.5547 27.3601 17.8431 27.8756 17.3276C28.3911 16.8121 29.1027 16.4922 29.8858 16.4922Z" fill="#C73634"/>
</g>
<defs>
<clipPath id="clip0_57_28437">
<rect width="40" height="40" fill="white"/>
</clipPath>
</defs>
</svg>
