<svg width="40" height="40" viewBox="0 0 40 40" fill="none" xmlns="http://www.w3.org/2000/svg">
<path d="M20 0.3125C11.5566 0.3125 4.6875 7.18164 4.6875 15.625C4.6875 19.7266 7.17242 24.9937 12.0732 31.2795C14.3185 34.1519 16.75 36.8738 19.352 39.4275C19.5265 39.5943 19.7586 39.6875 20 39.6875C20.2414 39.6875 20.4735 39.5943 20.648 39.4275C23.25 36.8738 25.6815 34.1519 27.9268 31.2795C32.8276 24.9937 35.3125 19.7266 35.3125 15.625C35.3125 7.18164 28.4434 0.3125 20 0.3125ZM20 26.5625C13.9688 26.5625 9.0625 21.6562 9.0625 15.625C9.0625 9.59375 13.9688 4.6875 20 4.6875C26.0312 4.6875 30.9375 9.59375 30.9375 15.625C30.9375 21.6562 26.0312 26.5625 20 26.5625Z" fill="#C73634"/>
<path d="M27.5056 14.3063L20.6306 8.0563C20.458 7.89942 20.2332 7.8125 20 7.8125C19.7668 7.8125 19.5419 7.89942 19.3694 8.0563L12.4944 14.3063C12.3342 14.452 12.2293 14.6485 12.1976 14.8627C12.1658 15.0768 12.2091 15.2954 12.3201 15.4812C12.4077 15.6227 12.5305 15.7391 12.6764 15.8191C12.8224 15.899 12.9866 15.9398 13.153 15.9375H14.0625V21.875C14.0625 22.1236 14.1613 22.3621 14.3371 22.5379C14.5129 22.7137 14.7513 22.8125 15 22.8125H17.1875C17.4361 22.8125 17.6746 22.7137 17.8504 22.5379C18.0262 22.3621 18.125 22.1236 18.125 21.875V18.4375C18.125 18.1888 18.2238 17.9504 18.3996 17.7746C18.5754 17.5987 18.8138 17.5 19.0625 17.5H20.9375C21.1861 17.5 21.4246 17.5987 21.6004 17.7746C21.7762 17.9504 21.875 18.1888 21.875 18.4375V21.875C21.875 22.1236 21.9738 22.3621 22.1496 22.5379C22.3254 22.7137 22.5638 22.8125 22.8125 22.8125H25C25.2486 22.8125 25.4871 22.7137 25.6629 22.5379C25.8387 22.3621 25.9375 22.1236 25.9375 21.875V15.9375H26.847C27.0134 15.9398 27.1776 15.899 27.3235 15.8191C27.4695 15.7391 27.5922 15.6227 27.6798 15.4812C27.7908 15.2954 27.8341 15.0768 27.8024 14.8627C27.7706 14.6485 27.6658 14.452 27.5056 14.3063Z" fill="#C73634"/>
</svg>
