<svg width="50" height="50" viewBox="0 0 50 50" fill="none" xmlns="http://www.w3.org/2000/svg">
<g clip-path="url(#clip0_57_28015)">
<path d="M43.27 22.8673L36.0615 19.7307C35.4459 19.4628 34.8541 19.1754 34.2841 18.8712L32.6534 21.6956C32.3816 22.1664 31.8883 22.4296 31.381 22.4296C31.132 22.4296 30.8796 22.3662 30.6485 22.2327C29.9465 21.8274 29.706 20.9298 30.1113 20.2278L31.7892 17.3218C31.2484 16.9313 30.7363 16.5206 30.2531 16.0906L27.9713 18.8198C27.6811 19.167 27.2642 19.3461 26.8445 19.3461C26.5124 19.3461 26.1786 19.234 25.9039 19.0045C25.2821 18.4846 25.1994 17.559 25.7193 16.937L28.2163 13.9502C27.821 13.4562 27.4572 12.9434 27.1246 12.4129L24.1044 14.9377C23.8297 15.1674 23.4959 15.2794 23.1638 15.2794C22.744 15.2794 22.3273 15.1002 22.037 14.7531C21.5171 14.1312 21.5998 13.2055 22.2216 12.6857L25.7687 9.72021C25.597 9.28058 25.4432 8.83176 25.3088 8.37373L25.2067 8.02588L21.4505 10.1945C21.2194 10.3279 20.967 10.3913 20.718 10.3913C20.2107 10.3913 19.7174 10.1281 19.4456 9.65729C19.0403 8.95534 19.2808 8.05768 19.9828 7.6524L24.3559 5.12755L23.4166 1.92784C23.2332 1.30279 22.6598 0.873535 22.0083 0.873535H4.84344C4.03288 0.873535 3.37573 1.53068 3.37573 2.34125V28.0644H47.8055C47.1797 25.7634 45.5591 23.8635 43.27 22.8673Z" fill="#C73634"/>
<path d="M10.7143 35.9081H46.6243C47.4349 35.9081 48.092 35.2509 48.092 34.4404V30.9998H3.79114C4.79652 33.8551 7.51951 35.9081 10.7143 35.9081Z" fill="#C73634"/>
<path d="M48.4082 38.8525H41.2916V41.788H31.3112V38.8525H23.9726V41.788H15.8513V38.8525H8.51272V41.788H6.11546C2.74344 41.788 0 44.5314 0 47.9034V48.3927C0 48.7979 0.328571 49.1265 0.733855 49.1265H43.8845C47.2567 49.1265 50 46.3831 50 43.0111C50 41.4524 49.4367 39.987 48.4082 38.8525Z" fill="#C73634"/>
</g>
<defs>
<clipPath id="clip0_57_28015">
<rect width="50" height="50" fill="white"/>
</clipPath>
</defs>
</svg>
