<svg width="50" height="50" viewBox="0 0 50 50" fill="none" xmlns="http://www.w3.org/2000/svg">
<g clip-path="url(#clip0_57_28113)">
<path d="M23.1488 29.3103C21.4578 26.0331 17.3762 24.7855 13.9839 26.6043C10.606 28.415 9.24881 32.5837 10.9586 35.8972C12.6437 39.1631 16.72 40.4279 20.1235 38.6033C23.5013 36.7925 24.8585 32.6237 23.1488 29.3103Z" fill="#C73634"/>
<path d="M49.8305 12.3999L43.7602 0.897144C43.3829 0.18191 42.4972 -0.0920159 41.7819 0.284937L24.9999 9.13123C24.2846 9.50828 24.0101 10.3936 24.3866 11.1093L25.9327 14.0475L20.7432 16.7756L19.1997 13.8423C18.823 13.1267 17.936 12.8508 17.22 13.2289L9.12625 17.499C0.513655 22.0388 -2.61076 32.855 2.3951 41.3201L1.2951 42.4196C-0.414861 44.1289 -0.415349 46.896 1.2951 48.6055C3.00076 50.3104 5.77596 50.3105 7.48172 48.6055L8.62176 47.466C13.6928 50.3585 20.1154 50.5584 25.5909 47.4266C32.7015 43.3588 35.638 35.0693 33.489 27.7778C32.7318 25.2085 33.8951 22.3785 36.4081 21.0813L49.2139 14.3815C49.9325 14.0055 50.2089 13.1169 49.8305 12.3999ZM5.41092 46.5334C4.84696 47.0968 3.92977 47.0968 3.366 46.5334C2.80164 45.9691 2.80145 45.0561 3.366 44.4918L4.11951 43.7386C4.75291 44.4812 5.44168 45.1586 6.17537 45.7693L5.41092 46.5334ZM21.5076 41.1855C16.6737 43.7768 10.7975 41.9736 8.35526 37.2408C5.91639 32.5141 7.82049 26.5843 12.5999 24.0221C17.4356 21.4298 23.3101 23.2343 25.7522 27.9669C28.1909 32.6934 26.2868 38.6233 21.5076 41.1855Z" fill="#C73634"/>
<path d="M17.2664 7.01824C17.6434 7.73445 18.5292 8.00906 19.2447 7.6324C19.9606 7.25574 20.2355 6.3698 19.8589 5.65389L17.6935 1.53836C17.3167 0.822441 16.4311 0.547441 15.7151 0.924199C14.9992 1.30086 14.7243 2.1868 15.101 2.90271L17.2664 7.01824Z" fill="#C73634"/>
<path d="M10.8301 10.7489C15.6415 11.7939 15.3436 11.743 15.5644 11.743C16.2386 11.743 16.8453 11.2745 16.9943 10.5888C17.166 9.79816 16.6644 9.01808 15.8738 8.8464L11.4519 7.88605C10.6611 7.71408 9.88135 8.21613 9.70957 9.00666C9.53789 9.79718 10.0396 10.5773 10.8301 10.7489Z" fill="#C73634"/>
<path d="M22.9567 7.45482C23.7047 7.76137 24.5606 7.40356 24.8673 6.65443L26.6078 2.40395C26.9144 1.65531 26.5561 0.799844 25.8074 0.493301C25.0586 0.186465 24.2034 0.545059 23.8969 1.29369L22.1563 5.54418C21.8498 6.29281 22.2082 7.14828 22.9567 7.45482Z" fill="#C73634"/>
</g>
<defs>
<clipPath id="clip0_57_28113">
<rect width="50" height="50" fill="white"/>
</clipPath>
</defs>
</svg>
