<svg width="50" height="50" viewBox="0 0 50 50" fill="none" xmlns="http://www.w3.org/2000/svg">
<path d="M22.9727 35.2621H28.5494V35.627C28.5494 37.023 27.2978 38.1582 25.7605 38.1582C24.2232 38.1582 22.9726 37.023 22.9726 35.627V35.2621H22.9727ZM15.4359 15.6076C15.4359 14.66 15.8039 13.7714 16.474 13.1022C17.1401 12.4372 18.0258 12.0712 18.9661 12.0712H18.9795C19.9177 12.0712 20.8024 12.4372 21.4695 13.1022C22.1397 13.7714 22.5077 14.6601 22.5077 15.6076C22.5077 15.8468 22.484 16.0849 22.4356 16.318H25.0389V12.6733C25.0389 12.4135 25.178 12.1743 25.4029 12.0465C25.6286 11.9176 25.905 11.9196 26.1277 12.0516C26.4504 12.2424 26.8195 12.3424 27.1927 12.3424C28.3464 12.3424 29.2857 11.4042 29.2857 10.2504C29.2857 9.09657 28.3464 8.15741 27.1927 8.15741C26.8195 8.15741 26.4504 8.25849 26.1277 8.44921C25.9049 8.58114 25.6286 8.58319 25.4029 8.45438C25.1781 8.32548 25.0389 8.08632 25.0389 7.82753V4.40243C18.7187 4.76737 13.6501 9.97411 13.6501 16.2211V16.318H15.508C15.4596 16.0849 15.4359 15.8469 15.4359 15.6076ZM33.8634 3.11776C34.7769 2.87343 35.7295 3.00018 36.5482 3.47245C37.3668 3.94462 37.9525 4.70761 38.1958 5.61903C38.4402 6.53046 38.3155 7.48417 37.8432 8.30175C37.3699 9.1204 36.608 9.70604 35.6946 9.95038C35.4636 10.0122 35.2275 10.0504 34.9904 10.0638L35.6647 12.5784L39.1845 11.636C39.2463 11.6195 39.3092 11.6123 39.3711 11.6123C39.5618 11.6123 39.7475 11.6876 39.8845 11.8267C40.067 12.0113 40.1361 12.2794 40.066 12.5289C39.966 12.8877 39.964 13.2691 40.0599 13.6331C40.3589 14.7445 41.5095 15.4085 42.625 15.1116C43.7375 14.8126 44.4015 13.6609 44.1035 12.5464C44.0046 12.1783 43.8159 11.8566 43.5468 11.5937C43.3602 11.4123 43.286 11.1452 43.3519 10.8947C43.4179 10.6432 43.6138 10.4462 43.8643 10.3792L46.6656 9.63173C46.6574 9.59979 46.6492 9.56776 46.6409 9.53485C45.8243 6.48612 43.8406 3.94257 41.0559 2.3744C38.5339 0.954677 35.6296 0.489638 32.785 1.03095C32.7778 1.033 32.7705 1.03407 32.7623 1.03612C32.7015 1.04745 32.6406 1.05878 32.5809 1.07118L33.1964 3.37138C33.4077 3.2662 33.6315 3.18065 33.8634 3.11776ZM25.0389 27.2923C24.8059 27.3407 24.5688 27.3644 24.3285 27.3644C22.3788 27.3644 20.7921 25.7787 20.7921 23.8291C20.7921 21.8784 22.3788 20.2927 24.3285 20.2927C24.5688 20.2927 24.8059 20.3164 25.0389 20.3648V17.7615H21.3942C21.1354 17.7615 20.8961 17.6224 20.7673 17.3975C20.6394 17.1727 20.6415 16.8954 20.7724 16.6727C20.9632 16.35 21.0642 15.9809 21.0642 15.6077C21.0642 15.0469 20.8456 14.52 20.4497 14.124C20.0559 13.7312 19.5331 13.5146 18.9775 13.5146H18.9692C18.4104 13.5146 17.8876 13.7311 17.4938 14.124C17.0979 14.5199 16.8793 15.0468 16.8793 15.6077C16.8793 15.9809 16.9804 16.3501 17.17 16.6727C17.3021 16.8955 17.3041 17.1727 17.1762 17.3975C17.0473 17.6224 16.8081 17.7615 16.5484 17.7615H13.7295C14.0429 20.6257 15.2286 22.0382 16.3782 23.4074C17.4505 24.6849 18.5599 26.0066 18.5599 28.2945C18.5599 28.6719 18.8929 28.9904 19.2878 28.9904H25.0389V27.2923ZM41.6652 30.4349C40.361 33.5764 39.9918 36.9159 40.5362 40.6462C40.9445 43.4434 41.8858 46.4952 43.4086 49.9512H22.1716C21.6819 47.618 20.9663 45.2002 19.0012 43.0588C18.76 42.7969 18.364 42.7495 18.0681 42.9475C17.3381 43.4352 15.3689 44.3774 13.2769 44.9466C10.9447 45.5827 9.19817 45.5683 8.35891 44.9074C7.297 44.0702 7.75881 42.036 8.33313 40.4771C8.40744 40.2761 8.38782 40.0523 8.28059 39.8668C8.17444 39.6812 7.98977 39.5533 7.77951 39.5162C6.58664 39.309 6.3175 38.9883 6.25666 38.8595C6.17004 38.6749 6.1845 38.245 6.75051 37.2531C6.93713 36.9263 6.84231 36.5118 6.53088 36.2994C5.75862 35.7725 5.36584 35.3447 5.33078 34.9931C5.2885 34.5734 5.68957 33.9362 6.55666 33.0444C6.71858 32.8784 6.78977 32.6454 6.75051 32.4176C6.71028 32.1887 6.56389 31.9938 6.35666 31.8928C4.56682 31.0184 3.59455 30.1565 3.38215 29.2574C3.07082 27.9397 4.32444 26.2963 5.91223 24.2157C6.60403 23.3095 7.38762 22.2815 8.1135 21.1722C8.26301 20.9433 8.27024 20.6484 8.13205 20.4123C6.0803 16.913 5.70803 13.0931 7.08352 9.65663C8.78254 5.41601 12.8799 3.0828 16.0195 1.87138C19.8435 0.395888 24.4564 -0.240342 28.3567 0.172158C29.2506 0.266005 30.1259 0.414443 30.9735 0.614443C30.9776 0.652626 30.9837 0.689736 30.9941 0.727822L32.0725 4.75292C32.1395 5.00351 32.3364 5.1994 32.588 5.26435C32.8406 5.32929 33.1076 5.25399 33.2881 5.06737C33.5438 4.80341 33.8727 4.61171 34.2387 4.51161C34.7779 4.36835 35.3418 4.44257 35.8265 4.72196C36.3111 5.00243 36.6565 5.45292 36.8008 5.99218C36.9462 6.53241 36.872 7.09638 36.5926 7.57997C36.3132 8.06454 35.8615 8.41103 35.3223 8.55536C34.9594 8.65224 34.5779 8.65018 34.2171 8.54921C33.9676 8.48017 33.6995 8.54921 33.515 8.73173C33.3315 8.91425 33.2593 9.18124 33.3263 9.43183L34.4573 13.6487C34.5605 14.0344 34.9553 14.2622 35.3409 14.1591L38.5516 13.3002C38.5659 13.5373 38.6041 13.7734 38.666 14.0054C39.0888 15.5828 40.5229 16.6263 42.0869 16.6263C42.388 16.6263 42.6942 16.5871 42.9984 16.5057C43.4664 16.3799 43.8881 16.1654 44.249 15.884C44.6903 20.2792 43.8098 25.2694 41.6652 30.4349ZM39.2948 17.0768C39.3041 16.8789 39.233 16.6861 39.0969 16.5418C38.9608 16.3985 38.7711 16.3181 38.5732 16.3181H34.9728C34.7129 16.3181 34.4738 16.4572 34.3459 16.682C34.217 16.9078 34.22 17.1851 34.3521 17.4079C34.5418 17.7275 34.6429 18.0956 34.6429 18.472C34.6429 19.6257 33.7035 20.564 32.5499 20.564C31.3962 20.564 30.4579 19.6257 30.4579 18.472C30.4579 18.0956 30.5579 17.7275 30.7476 17.4079C30.8806 17.1852 30.8826 16.9079 30.7548 16.682C30.626 16.4572 30.3866 16.3181 30.127 16.3181H26.4832V13.7147C26.7152 13.7622 26.9533 13.7869 27.1926 13.7869C29.1434 13.7869 30.729 12.2002 30.729 10.2505C30.729 8.29979 29.1433 6.71405 27.1926 6.71405C26.9534 6.71405 26.7153 6.73876 26.4832 6.78622V3.81991C26.4832 3.66425 26.4832 3.37558 26.2358 3.14257C25.9914 2.91161 25.7069 2.92919 25.5852 2.93739C25.5625 2.93837 25.5336 2.94052 25.4935 2.94052C21.9313 3.00858 18.5939 4.41796 16.0936 6.90995C13.5862 9.40917 12.2056 12.7157 12.2056 16.2212C12.2056 16.5377 12.2129 16.8182 12.2273 17.079V17.0821C12.4273 20.9454 14.0048 22.8249 15.272 24.3354C16.302 25.5624 17.1155 26.5315 17.1155 28.2946C17.1155 29.2576 17.766 30.0742 18.6558 30.3412V32.8651C18.6558 34.1869 19.7889 35.2623 21.1808 35.2623H21.5293V35.6272C21.5293 37.8192 23.4274 39.6018 25.7607 39.6018C28.0948 39.6018 29.993 37.8192 29.993 35.6272V35.2623H30.3405C31.7333 35.2623 32.8654 34.1869 32.8654 32.8651V30.3412C33.7562 30.0742 34.4058 29.2576 34.4058 28.2946C34.4058 26.5315 35.2193 25.5624 36.2492 24.3354C37.5174 22.8248 39.097 20.9442 39.2948 17.0768ZM20.1002 32.8649C20.1002 33.3815 20.5951 33.8176 21.1807 33.8176H30.3404C30.927 33.8176 31.4219 33.3814 31.4219 32.8649V30.4338H20.1002V32.8649ZM36.0863 18.4719C36.0863 20.4216 34.4995 22.0083 32.5499 22.0083C30.6002 22.0083 29.0135 20.4216 29.0135 18.4719C29.0135 18.2316 29.0382 17.9934 29.0857 17.7615H26.4833V21.4062C26.4833 21.665 26.3442 21.9042 26.1194 22.0331C25.8935 22.1609 25.6172 22.1589 25.3935 22.0279C25.0707 21.8372 24.7027 21.7361 24.3284 21.7361C23.1747 21.7361 22.2364 22.6744 22.2364 23.8291C22.2364 24.9828 23.1747 25.9211 24.3284 25.9211C24.7027 25.9211 25.0708 25.82 25.3935 25.6304C25.6172 25.4984 25.8935 25.4964 26.1194 25.6242C26.3441 25.7531 26.4833 25.9923 26.4833 26.2511V28.9905H32.2344C32.6293 28.9905 32.9624 28.672 32.9624 28.2946C32.9624 26.0067 34.0718 24.6849 35.1441 23.4075C36.2936 22.0383 37.4783 20.6258 37.7928 17.7616H36.0143C36.0626 17.9934 36.0863 18.2316 36.0863 18.4719Z" fill="#C73634"/>
</svg>
