<svg width="50" height="50" viewBox="0 0 50 50" fill="none" xmlns="http://www.w3.org/2000/svg">
<path d="M48.2266 35.1484C47.9134 34.8334 47.5408 34.5835 47.1305 34.4132C46.7202 34.2429 46.2802 34.1555 45.8359 34.1563H34.3125C34.2964 34.1565 34.2805 34.1523 34.2667 34.144C34.2529 34.1357 34.2417 34.1237 34.2344 34.1094L28.5859 24.3281L25.8984 28.9766L32.2188 39.9063C32.4413 40.3089 32.7822 40.6335 33.1953 40.8359C33.3022 40.8885 33.4199 40.9152 33.5391 40.9141H45.8359C46.733 40.9136 47.5932 40.5571 48.2275 39.9228C48.8618 39.2885 49.2183 38.4283 49.2187 37.5313C49.2209 37.0879 49.1342 36.6487 48.9638 36.2394C48.7934 35.8302 48.5427 35.4592 48.2266 35.1484Z" fill="#C73634"/>
<path d="M18.375 41.8983C18.375 42.3515 18.5781 43.2108 19.9141 43.8515C21.5101 44.6339 23.2616 45.0478 25.0391 45.0624C26.8312 45.0445 28.5972 44.631 30.2109 43.8515C30.5957 43.6683 30.93 43.3939 31.1846 43.0522C31.4392 42.7104 31.6065 42.3116 31.6719 41.8905V41.8749C31.6059 41.4663 31.4479 41.0782 31.2096 40.7398C30.9714 40.4014 30.6593 40.1216 30.2969 39.9218C28.7175 39.0525 26.9249 38.6463 25.125 38.7499C23.2757 38.6409 21.4322 39.0436 19.7969 39.914C19.4014 40.0836 19.0599 40.3581 18.8092 40.7079C18.5586 41.0577 18.4084 41.4693 18.375 41.8983Z" fill="#C73634"/>
<path d="M31.6719 44.75C31.4309 44.9474 31.1689 45.1177 30.8906 45.2578C29.0649 46.1399 27.0666 46.6068 25.0391 46.625C23.0298 46.6078 21.0496 46.1435 19.2422 45.2656C18.9371 45.1192 18.6467 44.9439 18.375 44.7422V45.5469C18.3059 46.1082 18.4094 46.6773 18.6718 47.1784C18.9342 47.6794 19.343 48.0886 19.8437 48.3516C21.324 49.1035 22.9649 49.4842 24.625 49.4609C24.7969 49.4688 24.9844 49.4687 25.1719 49.4687C26.0581 49.4802 26.9431 49.3991 27.8125 49.2266C28.7855 49.0404 29.717 48.6805 30.5625 48.1641C31.8047 47.3828 31.7422 46.4687 31.6719 45.5625V44.75Z" fill="#C73634"/>
<path d="M38.0469 4.82035C38.2657 4.4661 38.3795 4.05702 38.375 3.64067C38.3744 3.23219 38.2666 2.83102 38.0623 2.4773C37.858 2.12357 37.5645 1.82969 37.211 1.62504C36.6761 1.31771 36.0412 1.23477 35.4453 1.39436C34.8494 1.55395 34.341 1.94308 34.0313 2.4766L32.9813 4.29692L37.025 6.59145L38.0469 4.82035Z" fill="#C73634"/>
<path d="M32.2 5.64844L15.7657 34.1094C15.7583 34.1237 15.7471 34.1357 15.7333 34.144C15.7195 34.1523 15.7036 34.1565 15.6875 34.1563H4.1641C3.26659 34.1578 2.40546 34.5112 1.76566 35.1406C1.29456 35.6149 0.974349 36.218 0.845372 36.8739C0.716396 37.5299 0.784422 38.2093 1.04088 38.8266C1.29734 39.444 1.73076 39.9716 2.28654 40.3431C2.84233 40.7145 3.49561 40.9132 4.1641 40.9141H16.461C16.5801 40.9152 16.6978 40.8885 16.8047 40.8359C17.2151 40.636 17.5535 40.314 17.7735 39.9141L36.243 7.94297L32.2 5.64844Z" fill="#C73634"/>
<path d="M13.1578 6.91792L17.207 4.62027L15.9688 2.47652C15.7124 2.03297 15.3168 1.68638 14.8435 1.49045C14.3701 1.29453 13.8453 1.26021 13.3505 1.39283C12.8556 1.52544 12.4183 1.81757 12.1064 2.22396C11.7944 2.63034 11.6252 3.12827 11.625 3.64058C11.6259 4.04921 11.7336 4.4505 11.9375 4.80464L13.1578 6.91792Z" fill="#C73634"/>
<path d="M21.4141 21.2109L24.1016 16.5547L17.9922 5.97656L13.9375 8.27344L21.4141 21.2109Z" fill="#C73634"/>
</svg>
