<svg width="19" height="17" viewBox="0 0 19 17" fill="none" xmlns="http://www.w3.org/2000/svg">
<path fill-rule="evenodd" clip-rule="evenodd" d="M9.8295 0.954505C10.2688 0.515165 10.9812 0.515165 11.4205 0.954505L18.1705 7.70451C18.3815 7.91549 18.5 8.20163 18.5 8.5C18.5 8.79837 18.3815 9.08452 18.1705 9.2955L11.4205 16.0455C10.9812 16.4848 10.2688 16.4848 9.8295 16.0455C9.39016 15.6062 9.39017 14.8938 9.82951 14.4545L14.659 9.625L1.625 9.625C1.00368 9.625 0.5 9.12132 0.5 8.5C0.5 7.87868 1.00368 7.375 1.625 7.375L14.659 7.375L9.8295 2.5455C9.39016 2.10616 9.39016 1.39384 9.8295 0.954505Z" fill="#2F2F2F"/>
</svg>
