<svg width="105" height="105" viewBox="0 0 105 105" fill="none" xmlns="http://www.w3.org/2000/svg">
<path d="M92.1788 68.4729C86.1815 66.6629 64.0925 78.2734 58.6405 81.0429L53.7943 83.491C52.8534 83.9645 51.9178 84.5176 50.9121 84.8402C46.3169 86.3147 40.9293 81.3087 37.9348 78.477C29.7308 70.7187 21.6019 60.1916 16.207 50.1364C14.197 46.3901 11.6573 41.0498 12.9539 36.7653C13.9379 33.5138 16.2937 32.6012 19.2147 31.7153C25.2614 29.8815 31.215 27.8699 37.0911 25.5322L46.3908 21.776C47.8782 21.1804 49.5184 20.3773 51.0321 19.933C58.1163 17.8536 62.0975 30.2535 63.9614 35.2199C64.717 37.2333 65.5449 39.2497 66.196 41.2982C67.9396 36.9483 69.8023 32.6556 71.8797 28.4548C72.3188 27.5668 72.7529 26.3545 73.3083 25.5677C75.3704 22.6457 81.7957 24.3762 83.1069 27.4294C83.9447 29.3797 82.3879 31.5162 82.2435 33.5214C82.1658 34.5985 82.5163 36.8603 82.6141 38.0413L82.9265 41.7602C83.6459 49.4753 86.1761 50.699 93.0352 48.0623C90.2816 50.7082 85.6499 52.4292 82.6326 49.2281C80.17 46.6154 80.3162 42.5676 79.8435 39.2343C78.7096 43.3178 77.2688 47.3119 75.8494 51.3013C74.4678 55.1848 72.3512 61.6538 69.7389 64.7727C70.501 64.7431 71.3086 64.4417 72.0454 64.2503C76.6353 63.0594 80.1862 63.2893 84.7525 63.7352L84.7962 63.7391C82.643 61.8556 75.235 54.6691 75.8646 51.5812L75.9292 51.5244C76.7464 51.6714 77.7544 53.3133 78.28 53.9597C81.5828 58.02 85.744 61.4198 89.5909 64.9418C90.5195 65.7919 91.7797 66.565 92.5861 67.5002C92.4878 67.8544 92.3682 68.1554 92.1788 68.4729ZM49.4827 74.0608C52.416 72.4826 57.5382 68.7506 60.3791 68.2754C60.0518 66.5332 59.3066 63.527 59.3127 61.9288C59.3324 56.8041 63.9383 47.3513 65.9776 41.7844C62.7747 37.4087 57.7396 24.2057 53.097 23.4771C51.8432 23.2802 50.6484 23.9613 49.5116 24.386C40.1878 27.8701 31.4416 31.9011 21.7877 34.6541C20.6276 34.9851 18.1821 35.4832 17.2792 36.161C11.6269 40.4049 26.651 60.3272 29.5657 64.0385C33.0974 68.535 43.8956 82.0671 49.9181 81.3608C49.0457 79.3992 47.9539 77.5232 46.9486 75.6276C41.3852 65.1379 35.0147 55.157 27.9665 45.5972C25.4668 42.2069 22.8367 38.8344 19.667 36.0408C23.8197 37.2245 26.5974 40.9071 29.1734 44.1352C35.4798 52.0375 42.5554 61.6801 47.5097 70.5782L48.8685 73.0086C49.066 73.3546 49.2522 73.7372 49.4827 74.0608ZM60.4991 72.1473C59.8443 72.6128 59.114 72.93 58.3944 73.2805C56.5157 74.1956 54.7489 75.1925 52.9887 76.3186C52.417 76.6842 51.8424 77.122 51.2138 77.3821C51.6929 78.2754 52.1412 79.1878 52.6001 80.0918C53.4477 79.4513 54.4669 79.0436 55.4185 78.5824L59.1064 76.7982C66.7068 73.1864 80.527 66.6715 88.7868 66.7826C88.4025 66.4151 88.0146 66.0989 87.5721 65.8028C87.2717 65.9176 83.3516 66.0019 82.6982 66.0421C76.4745 66.426 70.0722 68.7042 64.4319 71.3528C63.8841 71.61 63.2833 71.9766 62.708 72.1473L62.6235 72.2045C61.7644 72.7978 61.028 73.5994 60.4991 72.1473ZM72.014 32.1847C72.6689 32.148 73.2925 32.2108 73.9418 32.2936C74.2309 31.3 74.9819 29.0062 75.4251 28.1266C76.4251 26.1429 77.5868 27.3082 78.5085 26.9132C73.9877 24.6735 74.2387 26.9636 72.4798 31.1109L72.014 32.1847ZM66.9566 63.7391C66.7118 62.4305 65.4136 60.5089 63.8499 60.714C62.9836 60.8887 62.3409 61.4147 61.7509 62.0486C62.0758 63.961 62.669 65.8218 62.8844 67.7557C63.2004 67.3566 63.5078 66.944 63.8499 66.5669C65.0994 65.1055 65.7009 64.8578 66.9566 63.7391ZM71.5705 34.2107C70.8755 35.7106 70.2772 37.2512 69.6481 38.7792L67.5292 43.8621C65.6066 48.5637 63.3282 53.9843 62.055 58.9173C62.7921 58.7315 63.4896 58.5475 64.2518 58.5055C64.5482 57.8865 64.725 57.1415 64.9444 56.4889C66.6996 51.272 68.6424 46.1493 70.6601 41.0316C71.446 39.0384 72.1672 36.978 73.1424 35.0675C74.2689 35.1819 77.9794 36.5426 78.1654 36.4868C75.9796 35.3673 74.1493 34.1801 71.5705 34.2107Z" fill="#2F2F2F"/>
<path d="M56.8419 36.0413C57.2751 35.9894 58.3355 35.9638 58.7252 36.1283L58.7151 36.208C58.0486 36.82 52.0439 38.4251 50.6806 38.8435C45.2031 40.5249 39.6078 43.0207 34.1894 44.4959L32.4647 45.0139C34.5165 43.1838 40.8132 40.8623 43.5262 39.8336C47.854 38.1924 52.2607 36.7702 56.8419 36.0413Z" fill="#2F2F2F"/>
<path d="M62.8843 45.0141C63.4302 44.9044 62.5787 45.3287 62.4506 45.3773C61.7008 45.6616 60.8969 45.8664 60.132 46.1111C54.1316 48.0306 48.2803 50.3687 42.3004 52.3404C41.3107 52.6666 40.33 52.9353 39.3081 53.1447C39.2093 53.1461 39.1121 53.1412 39.0132 53.1352L38.9736 53.0655C39.5284 52.3297 50.1174 47.9172 51.7988 47.2831C55.4102 45.9216 58.9956 45.0174 62.8843 45.0141Z" fill="#2F2F2F"/>
<path d="M56.8419 56.6201C57.2053 56.5724 57.9345 57.1189 58.2405 57.3082C57.7949 57.4856 57.3628 57.7392 56.9337 57.957C53.5034 59.6979 49.9264 61.3583 46.241 62.4595C45.7578 62.5912 45.2742 62.7093 44.7861 62.8201C46.7735 61.2939 54.5362 56.9999 56.8419 56.6201Z" fill="#2F2F2F"/>
<path d="M44.0914 29.0847C46.5326 28.8072 49.6082 33.2717 46.5642 33.9821C44.1441 34.2293 45.0979 30.9092 42.7625 29.6029C43.1617 29.2781 43.6004 29.1823 44.0914 29.0847Z" fill="#2F2F2F"/>
<path d="M36.4795 31.6352C39.1552 31.5326 41.9208 34.8151 39.3081 36.4869C36.83 36.7566 37.7668 33.7862 35.2369 32.1848C35.6448 31.9292 36.0152 31.766 36.4795 31.6352Z" fill="#2F2F2F"/>
<path d="M29.1184 34.2113C31.4116 33.9143 33.9825 38.109 31.2908 39.2349C28.673 39.0544 29.5118 36.1386 28.2563 34.8048C28.1394 34.7726 28.0502 34.7632 27.9618 34.6756L28.0307 34.5523C28.3551 34.3243 28.7358 34.2697 29.1184 34.2113Z" fill="#2F2F2F"/>
<path d="M51.2138 26.9137L51.3951 26.8622C53.9212 26.1742 56.8362 30.8986 53.6928 31.4783C51.9783 31.3141 52.2402 29.8293 51.5089 28.7434C51.1053 28.144 50.5046 27.7613 49.9181 27.3628C50.3633 27.0318 50.6551 26.9268 51.2138 26.9137Z" fill="#2F2F2F"/>
<path d="M69.7389 64.7735C70.501 64.7439 71.3086 64.4425 72.0454 64.2511C76.6353 63.0602 80.1862 63.2901 84.7525 63.736L84.7962 63.7399C85.7295 64.3774 86.7218 65.0612 87.5721 65.8036C87.2717 65.9184 83.3516 66.0027 82.6982 66.0429C76.4745 66.4268 70.0722 68.705 64.4319 71.3536C63.8841 71.6108 63.2833 71.9774 62.708 72.1481C64.4407 69.1494 67.3143 67.146 69.7389 64.7735Z" fill="#FEA500"/>
<path d="M60.3791 68.2754C60.3875 69.5569 60.6246 70.8707 60.4991 72.1473C59.8442 72.6128 59.114 72.93 58.3943 73.2805C56.5156 74.1956 54.7489 75.1925 52.9887 76.3186C52.4169 76.6842 51.8423 77.1221 51.2137 77.3821C50.9155 77.0509 49.7263 74.6082 49.4827 74.0608C52.4159 72.4826 57.5381 68.7506 60.3791 68.2754Z" fill="#FEA500"/>
<path d="M73.1424 35.0684C74.2689 35.1828 77.9794 36.5435 78.1654 36.4877C78.3401 36.6167 78.4959 36.7291 78.6986 36.8117C78.5548 37.266 78.4299 37.7106 78.1654 38.1119C78.0154 37.9911 75.6687 36.0935 75.9483 37.5625C76.0168 37.9218 77.3746 38.719 77.8686 39.2351C77.6966 39.836 77.5114 40.4439 77.2683 41.0203C76.8328 40.642 76.0151 39.7642 75.4034 39.8309C73.6569 40.0212 76.7758 41.8163 76.9958 42.008L76.0902 44.6832C75.6761 44.2097 74.8685 43.1954 74.1969 43.1386C73.7972 43.105 73.3464 43.6441 73.716 43.9581C74.4182 44.5545 75.0529 44.9437 75.801 45.6344C75.5045 46.4389 75.1958 47.2416 74.9495 48.0631C73.4414 45.4207 71.908 46.3606 72.7415 47.1579C73.3163 47.7079 74.0355 48.1554 74.6454 48.6806L73.7517 51.0487C73.3577 50.4964 72.7886 49.6396 72.0659 49.5073C71.5856 49.4193 71.236 49.714 71.3402 50.1898C71.6092 50.4724 73.0729 51.4235 73.5056 51.7246C73.2265 52.5037 72.9365 53.2779 72.6391 54.0502C72.1879 53.4514 71.5532 52.5997 70.751 52.4832C70.2569 52.4116 70.1704 52.9218 70.3084 53.2725C71.0293 53.8182 71.6865 54.2534 72.2821 54.9474C71.9765 55.7322 71.6549 56.4619 71.5705 57.3085C71.0752 56.8319 70.211 55.7452 69.5154 55.7556C67.8079 55.7817 70.6404 57.7455 70.9435 58.121C70.341 59.5939 69.6009 60.9962 68.9912 62.4598C68.1645 60.2052 66.6873 58.6792 64.2518 58.5063C64.5482 57.8874 64.7249 57.1424 64.9444 56.4898C66.6996 51.2728 68.6424 46.1502 70.6601 41.0324C71.446 39.0393 72.1672 36.9789 73.1424 35.0684Z" fill="#FEA500"/>
<path d="M78.5085 26.9134C83.1196 26.7771 80.1987 32.71 79.4848 34.7784C77.853 33.5609 75.9372 32.701 73.9418 32.2939C74.2309 31.3003 74.9819 29.0065 75.4251 28.1269C76.4251 26.1432 77.5868 27.3084 78.5085 26.9134Z" fill="#FEA500"/>
</svg>
