<svg width="107" height="107" viewBox="0 0 107 107" fill="none" xmlns="http://www.w3.org/2000/svg">
<path d="M50.2656 31.9645C56.9102 26.0697 69.6238 23.5088 78.435 23.6511C79.9735 23.676 81.7457 23.6285 82.0575 25.5539C82.1244 25.9665 81.9254 26.2872 81.688 26.6036C82.0103 27.6064 83.0092 29.4674 82.3037 30.4757C81.6182 31.4552 80.2638 31.1714 79.9359 30.0889C79.7177 29.3687 79.5533 27.2693 79.4573 26.4141C70.9989 26.5247 60.3273 27.7936 53.304 32.6826C52.6818 33.1156 52.0225 33.5484 51.5771 34.1716C51.6279 35.4798 52.0714 36.8988 52.3226 38.1923C53.7399 37.7417 56.2574 38.6322 54.323 39.7559C53.7846 39.7899 53.2419 39.7235 52.6981 39.7559C52.8507 40.6363 52.9698 41.5375 53.2166 42.3968C54.2687 42.317 56.9209 42.7978 55.2663 44.1468C54.6833 44.1548 54.1011 44.1523 53.5182 44.1468C53.7117 45.0645 53.8808 45.9947 54.0147 46.9228C54.8379 46.8864 55.9898 46.9719 56.5127 47.6895C57.4968 49.04 55.0795 48.9004 54.323 48.7282C54.3184 49.8538 54.5947 50.9708 54.7031 52.0891C56.1526 52.0582 58.7265 52.6772 56.4584 54.0489C55.9811 54.0494 55.524 54.0071 55.0448 54.0489C55.1779 55.1348 55.4325 56.227 55.4954 57.3179C56.4151 57.3152 57.4659 57.3085 58.0931 58.1199C59.2644 59.6351 56.5236 59.2773 55.8791 59.1607C56.0174 60.3285 56.1307 61.5287 56.4584 62.6601C60.1037 62.0867 60.3963 64.1255 58.8496 64.3983C58.506 64.4591 57.244 64.2867 56.6805 64.3165C56.6655 65.9452 57.7094 72.7296 58.1232 74.2939C58.9315 73.7729 59.6337 73.0511 60.3844 72.4477C67.4631 66.7569 79.8043 63.3525 88.6132 64.3165C88.4384 63.1642 88.1392 62.0127 87.8907 60.8729L86.6667 55.1208C85.674 50.334 84.915 45.8348 84.1745 41.02C80.5581 46.4699 78.1449 52.7338 73.351 57.3421C71.1617 59.4468 68.3045 60.7628 66.1032 62.8553L66.0428 62.9132C66.3266 61.1575 67.6846 53.5908 68.2037 52.5697C68.9594 51.0835 69.9442 49.6705 70.8096 48.2442C72.2712 45.8352 83.3246 29.1418 85.5469 28.4678C87.2512 27.951 89.2965 29.98 89.7241 31.4523C89.4867 32.5436 87.9567 34.4865 87.2991 35.7269L87.4284 36.088C87.9137 37.2838 88.2581 38.5239 88.632 39.7575L90.0299 44.3717C91.856 50.4613 93.993 56.1833 96.0193 62.1642C96.8118 64.503 98.0624 67.7364 97.0321 70.1501C95.9684 72.6429 92.9243 72.8569 90.5966 73.2571C83.7125 74.4406 76.8064 75.4182 69.9419 76.7405L65.427 77.6516C64.6464 77.8149 63.8445 77.9467 63.0771 78.1603C62.6381 82.8317 54.7462 82.7247 52.8114 80.3584C52.4791 79.9517 52.2752 79.4813 52.0862 78.9962C44.0075 78.9538 35.8555 80.1643 27.9105 81.6035C23.0731 82.4796 19.3752 84.0819 17.3767 78.1388C16.5048 75.5457 15.9396 72.7833 15.3277 70.1184L10.4489 48.1543C9.8567 45.4043 8.7533 42.2394 11.1109 39.9565C12.1751 38.926 15.4053 37.0656 16.5123 38.9059C17.06 40.5268 15.4381 40.5874 14.3064 40.8453C10.7853 41.6472 12.7543 46.84 13.241 49.0837L15.4675 59.2106C16.4064 63.4543 17.3221 67.7006 18.3326 71.9284L19.2025 75.4379C19.8897 78.1478 20.0256 80.1271 23.0922 79.996C20.8943 78.703 21.2073 77.2556 20.6771 74.8408C19.9562 71.5583 19.3379 68.2515 18.6629 64.959L14.6018 45.6958C14.281 44.1692 13.4464 42.7845 15.3389 42.233C16.6894 42.6208 16.654 43.6737 16.9127 44.8591L22.954 72.7654C23.1294 73.5405 23.1168 74.3848 23.6226 75.0418C23.1854 73.3367 22.9392 71.5788 22.6412 69.845L20.0789 54.6512C19.5878 51.6203 18.8403 48.2235 19.0704 45.1577L19.2414 45.3468C20.5382 46.7644 20.971 49.8787 21.3609 51.7041C22.9421 59.1059 24.233 66.5669 25.8361 73.9664C36.2634 71.2118 44.3503 70.635 54.5968 73.8492C55.3328 74.0801 57.291 75.1438 57.9811 74.5417C58.016 74.4617 55.5928 66.6505 55.2663 64.9053C53.4551 65.3677 53.7261 63.9688 55.0448 63.2775C54.6787 62.061 54.5332 60.7314 54.323 59.4775C51.1387 60.9076 51.1987 58.9053 54.0147 57.572C53.8446 56.4771 53.6568 55.3906 53.5182 54.2907C53.0607 54.5212 52.5755 54.7495 52.0862 54.9014C49.7874 54.324 52.3044 52.882 53.2166 52.4648C53.0179 51.4124 52.8024 50.3683 52.6981 49.3014C52.1466 49.4962 51.6714 49.7921 51.0844 49.8855L51.0317 49.868C49.2142 49.2477 51.4263 47.8304 52.3226 47.5054C51.9182 46.547 51.8365 45.5579 51.5771 44.5615C49.2259 45.9443 48.7256 43.7809 51.2457 42.8616C51.1222 42.1333 50.9953 41.4234 50.7884 40.7134C50.2185 41.0643 49.1569 41.7694 48.5504 41.1218C47.8616 40.3862 49.8058 39.2717 50.2656 38.9059C50.197 37.2986 49.6315 35.7507 49.3437 34.1716C41.2993 29.9881 31.7207 31.3902 23.1849 33.1298C22.5827 33.2527 21.8383 33.4872 21.2232 33.47C20.254 33.4431 19.8213 32.2218 20.3328 31.4634C20.8286 30.7284 22.312 30.6582 23.0913 30.5014C30.7326 28.9652 43.3398 27.1516 50.2656 31.9645ZM69.3387 54.2907C68.8925 55.1902 68.5989 56.1553 68.2878 57.1074L68.8554 57.3179C69.62 56.6851 70.0681 55.6429 70.7362 54.9014C70.2635 54.557 69.9277 54.3814 69.3387 54.2907ZM94.2802 65.2566C93.8384 66.1343 95.0511 67.6129 93.7274 69.2206C93.2522 69.798 92.6369 69.9303 92.2376 70.3449C95.4497 70.0482 95.0284 67.7178 94.2802 65.2566ZM83.3601 33.0771C79.3894 38.5421 75.2547 44.2942 71.5149 49.9263C70.8896 50.8682 70.1393 51.8613 69.7076 52.9054C71.07 52.776 72.3491 53.8287 73.0632 54.9014C74.6394 53.6113 76.6549 49.6444 77.4605 47.7612C76.9675 47.9257 74.8007 51.9035 73.7855 48.7282C74.1583 47.3403 75.9125 45.3757 76.7794 44.1479C77.5769 43.0181 83.4698 33.9996 83.3601 33.0771ZM84.5741 40.5195C85.0767 41.872 85.4347 43.257 85.8253 44.6444L87.2928 49.7658C88.5289 54.0101 90.5686 60.0961 91.1634 64.4411C91.5788 67.4749 88.711 66.5134 86.9078 66.4175C79.9731 66.049 68.0976 69.825 62.7106 73.9664C63.1116 73.9677 64.3097 73.2116 64.7712 73.041C71.5291 70.5428 76.9169 69.5767 84.0715 68.5671C85.7597 68.3288 89.1973 68.305 90.6505 67.6551C93.0507 66.5815 91.3331 62.2572 90.8491 60.2234L89.8388 55.7839C88.6821 50.6941 87.4205 45.3686 86.3812 40.2953C86.2487 39.648 86.1906 38.7872 85.9221 38.1923C85.4247 38.9398 84.9917 39.7254 84.5741 40.5195Z" fill="#2F2F2F"/>
<path d="M87.2991 35.7266L87.4284 36.0877C87.9137 37.2835 88.2581 38.5236 88.632 39.7572L90.0299 44.3714C91.856 50.461 93.993 56.183 96.0193 62.1639C96.8118 64.5027 98.0624 67.7361 97.0321 70.1498C95.9684 72.6426 92.9243 72.8566 90.5966 73.2568C83.7125 74.4403 76.8064 75.4179 69.9419 76.7402L65.427 77.6513C64.6464 77.8146 63.8445 77.9464 63.0771 78.16C62.6381 82.8314 54.7462 82.7244 52.8114 80.3581C52.4791 79.9514 52.2752 79.481 52.0862 78.9959C44.0075 78.9535 35.8555 80.164 27.9105 81.6032C23.0731 82.4793 19.3752 84.0816 17.3767 78.1385C16.5048 75.5454 15.9396 72.783 15.3277 70.1181L10.4489 48.154C9.8567 45.404 8.7533 42.2391 11.1109 39.9562C12.1751 38.9257 15.4053 37.0653 16.5123 38.9056C17.06 40.5265 15.4381 40.5871 14.3064 40.845C10.7853 41.6469 12.7543 46.8397 13.241 49.0834L15.4675 59.2104C16.4064 63.454 17.3221 67.7003 18.3326 71.9281L19.2025 75.4376C19.8897 78.1475 20.0256 80.1268 23.0922 79.9957C20.8943 78.7027 21.2073 77.2553 20.6771 74.8405C19.9562 71.558 19.3379 68.2512 18.6629 64.9587L14.6018 45.6955C14.281 44.1689 13.4464 42.7842 15.3389 42.2327C16.6894 42.6205 16.654 43.6734 16.9127 44.8588L22.954 72.7651C23.1294 73.5402 23.1168 74.3845 23.6226 75.0415C23.888 75.7001 23.6896 76.6518 24.4014 77.0647C25.2907 77.5807 25.7605 77.0695 26.1853 76.3126C33.863 73.7229 45.9296 73.6714 53.3947 76.1652C55.0549 76.7199 56.9771 77.555 58.7418 76.932C60.2778 76.3897 61.3192 74.7864 62.7106 73.9661C63.1116 73.9674 64.3097 73.2113 64.7712 73.0407C71.5291 70.5425 76.9169 69.5764 84.0715 68.5668C85.7597 68.3285 89.1973 68.3047 90.6505 67.6548C93.0507 66.5812 91.3331 62.2569 90.8491 60.2231L89.8388 55.7836C88.6821 50.6938 87.4205 45.3683 86.3812 40.295C86.2487 39.6477 86.1906 38.7869 85.9221 38.192C86.2673 37.3688 86.8102 36.4756 87.2991 35.7266ZM92.2376 70.3446C95.4497 70.0479 95.0284 67.7175 94.2802 65.2563C93.8384 66.134 95.0511 67.6126 93.7274 69.2203C93.2522 69.7977 92.6369 69.93 92.2376 70.3446Z" fill="#2F2F2F"/>
<path d="M87.299 35.7266L87.4284 36.0877C87.0455 39.5658 91.1717 55.7025 92.2676 59.3428C92.8338 61.2233 93.9424 63.3762 94.2802 65.2563C93.8384 66.134 95.0511 67.6126 93.7274 69.2203C93.2522 69.7977 92.6369 69.93 92.2375 70.3446C91.3435 70.6048 90.3761 70.7089 89.4574 70.8558C82.7246 71.9329 75.9974 72.8886 69.3128 74.2733C66.5264 74.8505 63.7214 75.4273 61.0126 76.3126C61.4213 78.2672 60.9432 78.908 58.9758 79.2417C57.696 79.459 55.8312 79.6285 54.7031 78.8451C54.45 78.2605 54.2373 77.6582 54.0147 77.0616C50.7644 75.5548 37.4107 77.2827 34.0233 77.9523C30.765 78.5966 26.322 79.8942 23.0921 79.9957C20.8943 78.7027 21.2073 77.2553 20.677 74.8405C19.9562 71.558 19.3379 68.2512 18.6628 64.9587L14.6018 45.6955C14.281 44.1689 13.4464 42.7842 15.3389 42.2327C16.6894 42.6205 16.654 43.6734 16.9127 44.8588L22.954 72.7651C23.1293 73.5402 23.1168 74.3845 23.6225 75.0415C23.888 75.7 23.6896 76.6518 24.4014 77.0647C25.2907 77.5807 25.7605 77.0695 26.1853 76.3126C33.863 73.7228 45.9295 73.6714 53.3947 76.1652C55.0548 76.7199 56.9771 77.555 58.7417 76.932C60.2778 76.3897 61.3191 74.7864 62.7106 73.9661C63.1116 73.9674 64.3097 73.2113 64.7712 73.0407C71.5291 70.5425 76.9169 69.5764 84.0715 68.5668C85.7597 68.3285 89.1972 68.3047 90.6505 67.6548C93.0507 66.5812 91.3331 62.2569 90.8491 60.2231L89.8388 55.7836C88.6821 50.6938 87.4205 45.3683 86.3812 40.295C86.2487 39.6477 86.1906 38.7869 85.922 38.192C86.2673 37.3688 86.8102 36.4756 87.299 35.7266Z" fill="#FEA500"/>
<path d="M85.3331 30.1318C86.0322 30.5609 86.7697 30.9642 87.4284 31.4524C86.7417 32.3143 86.2194 33.3602 85.6522 34.3078L82.8328 38.9472C81.219 41.5827 78.7265 45.079 77.4605 47.7613C76.9675 47.9258 74.8007 51.9036 73.7855 48.7283C74.1583 47.3404 75.9125 45.3758 76.7794 44.148C77.5769 43.0182 83.4698 33.9997 83.3601 33.0773C83.8318 32.1535 84.6976 30.9772 85.3331 30.1318Z" fill="#FEA500"/>
<path d="M70.7362 54.9014C71.2996 55.1749 71.7462 55.5783 72.1897 56.0163C71.4777 56.8148 70.633 57.5651 69.7076 58.1078C69.3933 57.8692 69.1274 57.6029 68.8553 57.3179C69.62 56.6851 70.0681 55.6428 70.7362 54.9014Z" fill="#FEA500"/>
<path d="M17.5819 31.772C19.7393 31.6306 18.9738 34.2853 19.151 35.8165C19.4115 38.0681 19.8011 40.281 20.2072 42.509C20.377 43.4407 20.34 44.0411 19.3227 44.3604C18.6054 44.4365 18.1133 44.1101 17.8963 43.4231C17.2488 41.3734 16.0955 33.4633 16.6981 32.3965C16.885 32.0655 17.2337 31.8841 17.5819 31.772Z" fill="#2F2F2F"/>
<path d="M39.1729 38.5609C40.1942 38.4986 43.7599 38.6973 44.2234 39.9278L44.1647 39.9926C43.7528 40.0064 43.3074 39.8196 42.9001 39.7404C36.2678 38.4509 32.606 44.956 27.0025 44.9882C25.0733 45.1171 23.1126 44.3771 22.517 42.3966C24.0207 42.6196 25.4265 43.4363 26.9467 43.4837C30.5339 43.5957 34.4693 39.0781 39.1729 38.5609Z" fill="#2F2F2F"/>
<path d="M40.6274 47.5054C43.1427 46.739 47.7665 49.7116 46.4915 53.1484C45.7684 51.7037 45.3952 50.3338 43.8439 49.5476C40.5545 47.8807 36.0657 50.1718 32.8254 51.2541C29.8077 52.2228 26.5776 53.2309 23.6226 51.4514C28.5239 52.2408 31.9615 50.2397 36.4452 48.5622C37.7762 48.0642 39.1969 47.5457 40.6274 47.5054Z" fill="#2F2F2F"/>
<path d="M29.2994 60.6387C29.9752 61.1321 30.2954 61.6163 31.1368 62.0019C35.8561 64.1653 42.7283 59.819 47.3868 61.0416C49.0465 61.4773 50.7648 63.2382 50.2655 65.0911C50.1748 65.2827 50.0551 65.4503 49.9349 65.6238C49.7042 64.7285 49.4229 63.7553 48.7094 63.1158C46.5997 61.2249 39.6715 63.5308 36.3553 63.7239C34.2212 63.8483 29.4367 63.6255 29.2994 60.6387Z" fill="#2F2F2F"/>
</svg>
