<svg width="105" height="105" viewBox="0 0 105 105" fill="none" xmlns="http://www.w3.org/2000/svg">
<path d="M79.8086 51.5379C76.407 51.6228 72.0807 51.3042 69.7032 48.6431C68.2029 46.9637 67.9769 45.1295 67.706 42.9831C67.1582 38.6447 65.9739 31.0363 69.6839 27.7536C72.6805 25.1026 83.9451 24.4375 87.5877 24.6772C91.0032 24.9022 94.0811 25.9713 95.1198 29.4861C96.001 32.4675 96.1347 40.362 95.8956 43.615C95.6415 47.0726 94.6809 49.7773 91.1125 50.747C88.9637 51.3308 83.2189 51.8023 80.7526 51.5379C78.5249 57.9854 74.7389 65.6725 70.8822 71.3128C69.7182 73.0152 68.563 75.1486 66.1812 74.6915C63.4984 74.1763 57.2624 68.4153 55.6703 66.1005C54.1103 66.2628 52.4797 66.1229 50.9107 66.1075C47.3109 66.0722 43.6964 65.9545 40.0977 66.0261C41.6719 67.542 47.6868 72.7077 45.4818 74.988C44.9966 75.0616 44.6166 75.1074 44.1347 74.988C43.3716 74.3869 43.3753 73.2473 42.7447 72.4457C40.9398 70.1512 38.7834 68.0949 36.7293 66.0261C35.3278 66.0238 35.2247 66.022 34.0834 67.0248C32.2315 68.6525 30.4953 70.6555 29.2817 72.8091C28.9628 73.3753 28.5475 74.8361 28.2436 75.1502C27.6156 75.7993 26.6551 75.1461 26.7623 74.3055C27.1173 71.5238 30.3407 67.7524 32.5492 66.1005C27.8349 66.0956 23.1421 66.4077 18.4343 66.5078C12.1414 66.6417 11.1824 63.5397 10.4014 57.7733C9.54052 51.4163 9.06856 44.9715 9.07385 38.5544C9.07504 37.1224 8.9716 35.6147 9.12858 34.1957C9.83918 27.7737 16.7609 27.7159 21.7125 27.4683C31.3294 26.9876 41.1003 27.6232 50.6609 28.7681C54.9191 29.2779 60.5475 29.2193 62.0569 34.1773C63.1364 37.7231 62.7851 49.8409 62.6366 53.6051C62.4275 58.9171 63.0384 64.0295 56.8698 65.8745C57.6329 66.6309 65.9251 72.6639 66.8547 72.2642C68.6196 71.5052 75.5283 59.0943 76.7827 56.9149L78.5763 53.802C79.0064 53.0594 79.468 52.3269 79.8086 51.5379ZM45.2837 63.5106C47.5345 63.5032 49.7885 63.4864 52.039 63.5406C54.479 63.5992 58.5037 63.9027 59.3804 60.991C60.5733 57.0293 60.1576 43.8245 59.9825 39.5862C59.896 37.4917 60.1496 34.9358 58.5029 33.3483C55.3996 30.3567 30.5854 29.7408 26.2119 29.7951C22.8685 30.015 17.3312 29.9473 14.4919 31.0104C11.7793 32.0262 11.8505 34.0917 11.7596 36.4934C11.4923 43.5547 12.046 50.8021 12.9712 57.807C13.7001 63.3254 14.0815 64.1246 20.1936 63.8787C28.614 63.5401 36.8515 63.5098 45.2837 63.5106ZM78.968 49.3213C81.5268 49.383 90.3289 49.3143 92.2003 47.5014C94.1198 45.6417 93.5655 38.8561 93.4574 35.9415C93.1453 27.5352 92.4804 26.7584 83.514 26.7577C80.8476 26.9489 71.9749 27.4909 70.1566 29.6014C68.3257 31.7264 68.7106 36.4337 68.9295 39.0934C69.5847 47.0601 69.7418 49.3992 78.968 49.3213Z" fill="#2F2F2F"/>
<path d="M37.3088 37.1215C40.4176 37.1537 47.5109 36.1811 48.6066 40.0486C49.0336 41.5555 49.2797 51.9023 48.7504 53.9888C47.9567 57.1169 44.5241 56.6474 42.0295 56.7812C39.8871 56.896 37.7366 57.0955 35.5911 57.1105C33.3746 57.2785 27.3554 57.7553 25.6881 56.3806C23.6256 54.6801 23.9781 51.1323 23.9412 48.7005L23.867 45.2377C23.8485 43.8994 23.72 41.5818 23.9285 40.3632C24.3512 37.8947 26.6429 37.8972 28.6367 37.68C31.5271 37.3654 34.409 37.2725 37.3088 37.1215ZM41.3314 54.9143C43.1917 54.7105 46.6526 55.5396 46.96 53.3141C47.3281 50.6466 47.1267 45.9778 47.0129 43.1904C46.9766 42.3045 47.1501 40.3163 46.3257 39.7262C44.3672 38.3247 33.1814 38.3061 30.7841 38.4008C24.966 38.9326 25.3569 38.1426 25.554 43.528C25.6417 45.9278 25.7504 48.327 25.9129 50.7231C26.0587 52.8752 25.6545 55.1323 28.4644 55.3015C29.5475 55.3667 30.6649 55.2771 31.751 55.247L38.3147 55.005C39.3221 54.9687 40.3227 54.9096 41.3314 54.9143Z" fill="#2F2F2F"/>
<path d="M35.1703 51.7341C36.4879 51.964 42.29 51.7304 43.3976 51.558C44.3793 50.6191 43.3859 42.3828 43.9322 40.986C44.2267 40.2338 45.7457 40.3535 45.984 41.1197C46.3023 42.1434 46.1329 47.3584 46.0997 48.539C46.0482 50.3714 46.3983 53.2899 44.175 53.9352C42.1883 54.5119 29.5776 54.232 27.4583 53.9338C26.0656 53.7379 25.7693 52.1422 27.1538 51.7473C28.2312 51.44 31.5765 52.0071 32.1932 51.7341C33.4821 52.4328 33.9568 52.2245 35.1703 51.7341Z" fill="#FEA500"/>
<path d="M32.1932 51.734C30.8241 50.4683 31.2912 47.9358 31.2783 46.2183C31.2711 45.261 31.1403 44.1697 31.2998 43.229C31.5369 41.8314 33.0405 41.0907 34.272 41.7256C35.185 42.1963 39.4146 45.158 40.0954 45.8538C41.7963 47.5915 36.4229 50.6365 35.1703 51.734C33.9568 52.2244 33.4821 52.4327 32.1932 51.734ZM34.232 44.0734C33.4897 43.4829 33.0852 43.0537 33.1185 44.3307C33.4868 44.2352 33.8608 44.1568 34.232 44.0734Z" fill="#2F2F2F"/>
<path d="M34.232 44.0732L36.6433 45.7541C37.1587 46.1111 37.7052 46.4528 38.1933 46.8453C32.3211 51.4013 33.1111 52.1191 33.1185 44.3306C33.4868 44.235 33.8608 44.1567 34.232 44.0732Z" fill="#FEA500"/>
<path d="M52.0439 48.357C54.8793 48.3 54.1669 52.9335 52.588 53.972C51.8733 53.9798 50.8916 53.8256 50.713 53.02C50.4232 51.7141 50.2128 48.6714 52.0439 48.357Z" fill="#FEA500"/>
<path d="M19.3342 49.5971C20.2565 49.4488 21.8564 49.1463 22.6078 49.8118C22.6904 50.0263 22.737 50.2601 22.7938 50.483C22.7003 50.8485 22.607 51.0702 22.3389 51.3442C22.7548 51.5408 23.369 51.5693 23.5557 52.0636C24.0595 53.3968 19.6387 53.7505 19.4043 52.4419C19.3403 52.0843 19.6148 51.8517 19.714 51.5378C18.3676 51.5006 18.4688 50.2388 19.3342 49.5971Z" fill="#2F2F2F"/>
<path d="M19.714 51.5373C20.5999 51.5242 21.4612 51.4654 22.339 51.3438C22.7549 51.5404 23.3691 51.5689 23.5557 52.0632C24.0596 53.3964 19.6387 53.7501 19.4044 52.4415C19.3403 52.0839 19.6148 51.8513 19.714 51.5373Z" fill="#FEA500"/>
<path d="M52.9705 40.9297C53.7348 40.8731 54.1288 41.1669 54.2916 41.9167C53.9046 43.1872 52.5054 43.0891 51.3848 43.0561C50.3213 43.3034 49.6316 42.4142 50.2118 41.6394C50.6562 41.0459 52.2646 41.0121 52.9705 40.9297Z" fill="#2F2F2F"/>
<path d="M21.057 45.1691C22.6903 44.9907 24.3184 47.2695 20.1882 47.2708C19.2629 47.3302 18.0013 46.7376 18.7039 45.8219C19.2002 45.1751 20.326 45.2581 21.057 45.1691Z" fill="#2F2F2F"/>
<path d="M52.588 45.1695C53.7286 45.0941 55.172 45.6824 54.1379 46.8266C53.7089 47.3013 52.9614 47.2503 52.3749 47.2712C51.1977 47.3723 49.7921 46.7933 50.7784 45.6203C51.1352 45.196 52.0701 45.2165 52.588 45.1695Z" fill="#2F2F2F"/>
<path d="M19.9766 41.1183C23.2446 40.9718 23.0094 42.9031 20.7024 43.0563C20.1808 43.0688 19.1854 43.1723 18.7628 42.8563C17.671 42.0399 18.9073 41.2216 19.9766 41.1183Z" fill="#2F2F2F"/>
<path d="M85.1021 28.3002C86.4296 28.1548 89.6499 28.1488 90.5229 28.9726C92.5628 30.8977 93.1157 43.9074 91.093 45.9619C89.1013 47.9848 80.9956 47.6716 77.6161 47.7699C77.0392 47.669 76.4476 47.6716 75.866 47.6048C71.5721 47.1118 70.4404 45.2111 70.4146 41.0739C70.4009 38.9045 70.2311 34.7454 70.7306 32.7335C71.8026 28.4164 74.4481 28.8225 78.1657 28.5918C80.6021 28.4408 82.6524 28.3043 85.1021 28.3002ZM83.514 32.0547C76.1369 31.865 74.9276 42.0781 81.1269 43.0561C82.0397 42.8273 82.9106 42.7551 83.7892 42.3607C87.1016 40.8735 88.4482 36.4334 85.0387 34.191C83.8413 33.4035 82.8311 33.7025 83.514 32.0547Z" fill="#FEA500"/>
<path d="M82.7548 30.2493C86.747 29.9868 89.9768 33.4788 90.0586 37.3347C90.1399 41.1652 87.0212 44.72 83.1377 44.8117C81.2692 44.8272 79.3972 43.9315 78.0605 42.6522C73.3632 38.1565 76.3408 30.3301 82.7548 30.2493ZM83.514 32.0548C76.1369 31.8651 74.9276 42.0782 81.1269 43.0562C82.0397 42.8273 82.9106 42.7551 83.7892 42.3608C87.1016 40.8735 88.4482 36.4334 85.0387 34.1911C83.8413 33.4036 82.8311 33.7026 83.514 32.0548Z" fill="#2F2F2F"/>
<path d="M79.8086 38.4005C79.8068 37.4775 79.2153 32.7822 81.5522 34.0752C82.108 34.3826 85.2822 36.5237 85.5964 36.8877C86.5836 38.0314 84.7879 38.9325 84.0492 39.4446C83.1305 40.0813 82.2029 40.9529 81.1269 41.3034C80.5824 41.1648 80.21 40.9937 79.8086 40.585C79.0357 41.5665 76.9316 37.9342 79.8086 38.4005Z" fill="#2F2F2F"/>
<path d="M79.8086 40.5854C79.0357 41.5669 76.9316 37.9346 79.8086 38.4009C79.8029 39.1245 79.768 39.8631 79.8086 40.5854Z" fill="#FEA500"/>
<path d="M83.5139 32.0547C88.4627 32.8744 89.8129 39.2195 85.6697 42.1447C84.6269 42.8812 82.3776 43.6898 81.1268 43.0561C82.0396 42.8272 82.9106 42.755 83.7892 42.3607C87.1016 40.8735 88.4481 36.4333 85.0387 34.191C83.8412 33.4035 82.831 33.7025 83.5139 32.0547Z" fill="#FEA500"/>
<path d="M45.4818 74.9882C46.441 75.1293 48.495 75.0815 49.5368 75.1131C50.7107 75.149 55.0696 74.7591 54.7187 76.8608C54.6236 77.4313 54.2085 77.9462 53.6472 78.1117C53.8906 80.2359 51.6633 79.6533 50.3887 79.5145C40.0226 78.3845 29.3719 78.848 19.0036 79.8498C16.1026 80.1301 16.6006 77.6601 18.0337 77.3199C20.5047 76.7334 25.8444 76.7629 28.6055 76.5111C32.7274 75.005 39.5333 74.8366 44.1347 74.9882C44.6166 75.1075 44.9966 75.0618 45.4818 74.9882Z" fill="#2F2F2F"/>
<path d="M45.4818 74.9882C46.441 75.1293 48.495 75.0815 49.5368 75.1131C50.7107 75.149 55.0696 74.7591 54.7187 76.8608C54.6236 77.4313 54.2085 77.9462 53.6472 78.1117C52.944 76.6881 50.6184 76.9696 49.1269 76.8472C42.9932 76.3435 36.8089 76.1735 30.6582 76.4635C29.9943 76.4949 29.2655 76.5866 28.6055 76.5111C32.7274 75.005 39.5333 74.8366 44.1347 74.9882C44.6166 75.1075 44.9966 75.0618 45.4818 74.9882Z" fill="#FEA500"/>
</svg>
