<svg width="105" height="105" viewBox="0 0 105 105" fill="none" xmlns="http://www.w3.org/2000/svg">
<path d="M11.9865 50.5224C11.531 49.0272 10.2463 47.0966 11.0529 45.5329C11.5228 44.6217 12.9239 43.2417 13.676 42.4565C21.1559 34.6477 33.7376 29.7778 42.5106 38.3383C43.3433 39.1506 45.1929 41.1709 45.1701 42.3944C45.1404 43.9882 43.3994 41.6633 43.2567 41.5158C36.9118 34.9623 27.5933 34.8573 20.2328 39.8883C20.1259 40.4041 19.9166 40.9127 19.8508 41.4334C19.4489 44.6131 19.7725 51.7002 20.6507 55.0266C20.9945 54.8543 21.3218 54.6439 21.6655 54.4772C21.1741 51.7595 20.5585 41.717 21.0824 40.3674C21.3322 39.7245 21.5176 41.1194 21.5293 41.2076C22.0402 45.0799 22.3964 49.7509 22.722 53.6706C24.4787 53.0338 26.1208 52.1641 27.9062 51.5689C27.7307 49.6631 27.5818 47.7715 27.4823 45.86C27.3716 43.7294 26.7891 42.7576 29.3225 42.2151C29.7773 42.0925 30.1902 42.1395 30.6473 42.2151C31.0978 48.9599 32.234 55.4763 32.7899 62.1454C32.8586 62.9684 33.0176 63.9001 32.936 64.7222C33.1667 65.309 33.2948 65.9408 33.4657 66.5476C32.551 67.7515 30.4559 68.6651 29.8877 66.684C29.3368 64.7633 28.4568 58.955 28.4523 56.7351C27.2662 57.3811 24.4414 58.6167 23.611 59.4156C23.8323 61.9847 24.949 65.7269 25.5316 68.2963C25.031 69.6995 23.7827 70.0213 22.576 70.6771C21.7906 71.1041 20.5578 72.0923 19.6115 71.6697C18.5108 71.1779 17.9195 68.0866 17.5415 66.9843C15.9801 62.4301 14.5959 57.3224 12.8217 52.9095C7.17508 59.319 7.49224 68.9897 15.4212 73.2447C25.7654 78.7957 40.3132 67.9221 50.4365 64.9171C57.0097 62.9657 64.1136 63.4009 70.1749 66.6953C73.292 68.3892 76.3182 71.295 77.3167 74.7729C77.6128 75.8041 78.314 80.4251 76.6631 80.6336C75.9792 80.72 76.086 79.187 76.0518 78.7976C75.4999 72.5146 69.6433 68.5104 63.9358 67.1709C54.7212 65.0081 48.3589 68.4858 40.4812 72.2016C31.6382 76.3725 19.438 81.1201 11.1348 73.3452C4.11042 66.7677 5.8155 57.0681 11.9865 50.5224ZM21.8878 59.9536C21.8002 63.0999 22.3535 64.7747 23.1 67.8308C23.4644 67.6317 23.8233 67.4274 24.1783 67.2119C23.6875 65.4412 23.3127 63.6275 22.9296 61.8304C22.84 61.4094 22.7889 59.818 22.3621 59.7349C22.2067 59.8149 22.0545 59.8992 21.8878 59.9536Z" fill="#2F2F2F"/>
<path d="M13.0303 46.6508C15.0791 44.3141 17.5567 41.4311 20.2328 39.8877C20.1259 40.4035 19.9167 40.9121 19.8508 41.4328C19.4489 44.6125 19.7726 51.6996 20.6508 55.0259C20.9945 54.8537 21.3218 54.6433 21.6655 54.4765C21.1742 51.7588 20.5585 41.7164 21.0825 40.3668C21.3323 39.7238 21.5177 41.1188 21.5293 41.207C22.0402 45.0792 22.3964 49.7503 22.7221 53.67C24.4788 53.0332 26.1208 52.1635 27.9063 51.5683C27.7307 49.6625 27.5818 47.7709 27.4824 45.8594C27.3716 43.7288 26.7892 42.7569 29.3225 42.2145C29.7774 42.0919 30.1902 42.1388 30.6473 42.2145C31.0979 48.9593 32.234 55.4757 32.79 62.1448C32.8587 62.9678 33.0176 63.8995 32.936 64.7216C32.5474 64.834 32.1522 65.0358 31.7685 65.1777C31.6582 64.3371 30.2163 53.8109 30.0883 53.679C29.3188 53.5678 22.2535 57.5859 21.2627 58.3031C21.4871 58.9237 21.7863 59.3912 22.3622 59.7343C22.2067 59.8143 22.0546 59.8986 21.8878 59.9529C21.8003 63.0993 22.3536 64.7741 23.1 67.8302C22.4819 68.2974 21.3702 68.8312 20.6508 69.1562C20.1224 67.3786 19.4874 65.6322 18.9001 63.8732L14.7383 51.5685C14.1776 49.9252 13.5643 48.3039 13.0303 46.6508Z" fill="#FEA500"/>
<path d="M21.6654 54.4768C21.1741 51.7591 20.5584 41.7166 21.0824 40.367C21.3322 39.7241 21.5176 41.119 21.5293 41.2072C22.0401 45.0795 22.3963 49.7506 22.722 53.6702C24.4787 53.0335 26.1207 52.1637 27.9062 51.5686C27.7306 49.6628 27.5817 47.7711 27.4823 45.8596C27.3715 43.7291 26.7891 42.7572 29.3224 42.2148C29.2554 44.8765 29.5197 49.355 30.0055 51.8661C28.1927 52.5571 26.3765 53.4247 24.6518 54.3127C23.0702 55.1269 21.8299 56.684 21.6654 54.4768Z" fill="#2F2F2F"/>
<path d="M75.8616 32.4532C80.3459 32.2408 83.9635 35.1697 84.5367 39.6441C85.3584 46.0585 80.0801 57.0642 72.9013 57.9842C58.3898 58.219 63.0709 34.0227 75.8616 32.4532ZM71.2663 39.206C70.5741 39.7282 69.5824 43.6251 69.4655 44.4813C69.1585 46.7279 69.172 49.8615 70.6073 51.7232C72.4204 54.0754 76.2693 52.4073 76.3565 51.5683C76.5038 51.1457 77.361 50.1775 77.662 49.5412C79.4608 45.7384 77.2982 41.5423 73.5496 40.0257C72.7992 39.722 71.9928 39.5705 71.2663 39.206ZM82.1514 45.0196C83.597 40.8883 83.1413 35.4533 78.2881 34.0682C78.7569 34.5602 79.382 34.8686 79.8488 35.3639C81.6812 37.3091 82.1717 40.2977 82.1863 42.87C82.1902 43.543 82.0064 44.3732 82.1514 45.0196Z" fill="#2F2F2F"/>
<path d="M82.1514 45.02C81.33 47.6585 78.7487 51.986 76.7199 53.8533C73.5356 56.7838 69.0221 56.6938 67.1587 52.4128C64.5932 46.5185 68.2042 36.9739 74.1874 34.4457C75.3294 33.9632 77.0919 33.5819 78.2881 34.0686C78.7569 34.5606 79.382 34.869 79.8488 35.3643C81.6811 37.3094 82.1717 40.298 82.1862 42.8703C82.1901 43.5434 82.0064 44.3735 82.1514 45.02ZM71.2662 39.2064C70.5741 39.7285 69.5823 43.6254 69.4654 44.4816C69.1584 46.7283 69.172 49.8618 70.6073 51.7235C72.4204 54.0758 76.2693 52.4077 76.3565 51.5687C76.5037 51.146 77.3609 50.1779 77.662 49.5415C79.4607 45.7388 77.2982 41.5426 73.5496 40.0261C72.7992 39.7224 71.9928 39.5708 71.2662 39.2064Z" fill="#FEA500"/>
<path d="M72.057 37.8438C82.0751 40.4015 81.2941 51.3691 76.3565 51.5684C76.5037 51.1457 77.361 50.1776 77.662 49.5412C79.4607 45.7384 77.2982 41.5423 73.5496 40.0258C72.7992 39.7221 71.9928 39.5705 71.2662 39.2061C71.4342 38.7178 71.7716 38.2685 72.057 37.8438Z" fill="#2F2F2F"/>
<path d="M49.8473 36.2988C51.7387 35.8241 57.088 35.5968 58.4675 36.2988C58.689 36.1602 58.9027 36.031 59.1439 35.9274C60.4066 36.4391 59.7977 37.5767 59.6459 38.7715L58.2223 49.1652C57.9327 51.3056 57.8234 53.7762 57.3415 55.8541C59.0446 55.716 64.8092 56.54 66.0809 57.6684C66.5936 58.1235 66.5076 59.5024 66.538 60.1644C67.1696 61.014 66.6807 61.7027 65.7739 61.9656L65.6237 61.9416C64.5658 61.7718 63.5518 61.3653 62.4815 61.191C60.0231 60.7909 57.4104 60.8102 54.958 61.2648C54.1018 61.4236 51.4022 62.314 50.6674 61.7367C49.9945 61.2082 49.6845 55.1461 49.5848 54.1291L48.1771 40.0194C47.9645 37.93 47.2863 36.6557 49.8473 36.2988ZM58.2949 37.1113C56.6405 39.5944 54.7704 52.0458 55.5259 55.7851C55.5858 56.0813 55.8231 56.0155 56.0811 56.004C56.2107 54.0379 56.4734 52.0956 56.717 50.1418L57.7643 41.845C57.9588 40.2737 58.1932 38.6911 58.2949 37.1113Z" fill="#FEA500"/>
<path d="M65.7739 61.9656L65.6237 61.9416C64.5658 61.7718 63.5518 61.3653 62.4815 61.191C60.0231 60.7909 57.4104 60.8102 54.958 61.2648C54.1018 61.4236 51.4022 62.314 50.6674 61.7367C49.9945 61.2082 49.6845 55.1461 49.5848 54.1291L48.1771 40.0194C47.9645 37.93 47.2863 36.6557 49.8473 36.2988C49.7484 37.5605 50.0226 38.9222 50.1691 40.1805L51.8917 55.238C52.0572 56.6223 52.1856 58.0474 52.4532 59.415C55.9957 58.6064 63.3482 57.7849 66.538 60.1644C67.1696 61.014 66.6807 61.7027 65.7739 61.9656Z" fill="#2F2F2F"/>
<path d="M58.4675 36.2991C58.689 36.1605 58.9027 36.0313 59.1439 35.9277C60.4066 36.4394 59.7977 37.577 59.6459 38.7718L58.2223 49.1655C57.9327 51.3059 57.8234 53.7765 57.3415 55.8544C56.9781 56.0069 56.4736 55.9856 56.0811 56.0043C56.2107 54.0382 56.4734 52.0959 56.717 50.1421L57.7643 41.8453C57.9588 40.274 58.1932 38.6914 58.2949 37.1116C58.3291 36.8288 58.3898 36.5721 58.4675 36.2991Z" fill="#2F2F2F"/>
<path d="M47.2321 60.1648C47.8814 60.3639 48.4761 61.5579 47.8092 61.9978C47.1944 62.4034 45.7654 62.6054 45.0023 62.8111C42.7003 63.4315 40.444 64.4425 38.3582 65.5776C37.5206 66.0333 35.5332 67.7076 34.7392 66.4006C33.9065 65.0303 32.2497 44.665 32.4568 43.9595C32.6705 43.2323 33.8602 42.7805 34.5304 43.0123C35.3121 43.4208 36.325 43.4394 37.1831 43.6496C39.0815 44.1145 45.1936 45.8011 46.4538 47.0059C46.4639 47.3088 46.4633 47.6085 46.4538 47.9114C46.9717 50.2511 44.8079 49.0336 43.1515 48.7032C42.2188 48.5172 41.2746 48.4021 40.3273 48.3221C40.2982 48.7179 40.2607 49.099 40.3273 49.4925C41.3359 49.8344 44.7392 50.4597 45.0263 50.9853C45.1432 51.1992 45.1604 51.6216 45.151 51.8663C46.301 54.1234 43.0305 53.536 40.8214 54.2391C40.928 55.3737 41.13 56.481 41.1517 57.6241C42.1103 57.1188 45.9083 56.0257 46.896 56.3409C47.4733 56.5251 47.4271 57.2964 47.0155 57.6241C47.0215 58.4751 47.2294 59.3139 47.2321 60.1648Z" fill="#FEA500"/>
<path d="M47.2321 60.1648C47.8814 60.3639 48.4761 61.5579 47.8092 61.9978C47.1944 62.4034 45.7654 62.6054 45.0023 62.8111C42.7003 63.4315 40.444 64.4425 38.3582 65.5776C37.5206 66.0333 35.5332 67.7076 34.7392 66.4006C33.9065 65.0303 32.2497 44.665 32.4568 43.9595C32.6705 43.2323 33.8602 42.7805 34.5304 43.0123C34.4832 45.3542 34.8405 47.7485 35.0289 50.0829C35.3929 54.5955 35.7695 59.4895 36.3308 63.9829C39.8897 62.2248 43.2154 60.7027 47.2321 60.1648Z" fill="#2F2F2F"/>
<path d="M40.3274 48.3216C39.6648 48.2764 38.6536 48.1513 38.9815 47.2109C39.4351 45.9092 45.4349 47.5621 46.4539 47.9108C46.9717 50.2505 44.8079 49.033 43.1515 48.7026C42.2188 48.5166 41.2747 48.4015 40.3274 48.3216Z" fill="#2F2F2F"/>
<path d="M41.1517 57.6235C42.1103 57.1181 45.9083 56.0251 46.896 56.3403C47.4733 56.5244 47.4271 57.2957 47.0155 57.6235C45.7307 57.752 42.2319 58.8775 41.2012 58.4994C40.7703 58.3414 40.8817 57.8888 41.1517 57.6235Z" fill="#2F2F2F"/>
<path d="M40.8214 54.2385C39.725 54.3675 39.351 53.3813 39.9598 52.9516C40.6099 52.4929 44.3672 51.7546 45.151 51.8657C46.3011 54.1228 43.0305 53.5355 40.8214 54.2385Z" fill="#2F2F2F"/>
<path d="M89.4791 59.7348C87.2605 58.6034 87.3021 54.857 87.0919 52.7775C86.4624 46.554 85.8736 32.0454 88.0765 26.5915C88.2109 26.2587 88.4563 25.8852 88.5053 26.48C92.1533 26.4334 94.6195 28.483 97.4254 30.2996C93.3234 35.5295 89.2729 47.8815 90.0248 54.0917C90.1019 54.7291 90.114 56.2756 90.5018 56.7349C90.561 49.1331 93.0324 42.0958 95.9683 35.1851C96.2725 34.4692 97.6451 30.9593 98.3382 30.874C98.9598 31.1761 98.2896 32.5525 98.1424 33.0138L97.4685 35.1702C95.3886 41.8395 92.8762 48.6473 92.5483 55.6825C92.4531 57.723 92.8989 59.4213 90.1685 59.7348C89.9505 59.6922 89.6993 59.7162 89.4791 59.7348Z" fill="#FEA500"/>
<path d="M89.4791 59.7348C87.2605 58.6034 87.3021 54.857 87.0919 52.7775C86.4624 46.554 85.8736 32.0454 88.0765 26.5915C88.2109 26.2587 88.4563 25.8852 88.5053 26.48C88.5105 27.5216 88.4053 28.5656 88.3448 29.6047C88.0972 33.8507 88.0849 38.0652 88.2545 42.3159C88.3185 43.9239 89.1673 56.1845 90.0957 57.1219C90.3426 57.3713 90.5237 56.9681 90.5018 56.7349C90.561 49.1331 93.0324 42.0958 95.9683 35.1851C96.2725 34.4692 97.6451 30.9593 98.3382 30.874C98.9598 31.1761 98.2896 32.5525 98.1424 33.0138L97.4685 35.1702C95.3886 41.8395 92.8762 48.6473 92.5483 55.6825C92.4531 57.723 92.8989 59.4213 90.1685 59.7348C89.9505 59.6922 89.6993 59.7162 89.4791 59.7348Z" fill="#2F2F2F"/>
<path d="M89.4791 59.7348C89.6993 59.7161 89.9505 59.6921 90.1685 59.7348C91.7792 61.0349 92.431 63.1792 91.0108 64.9019C90.4922 65.5309 89.8425 65.7427 89.1944 66.1843C92.0914 66.3852 93.0341 64.3652 92.9431 61.8091C95.4421 67.1996 87.9336 70.6176 85.2709 66.0571C84.1612 64.1562 84.8941 61.5046 86.8057 60.416C88.4838 59.3953 88.6801 60.0044 89.4791 59.7348Z" fill="#FEA500"/>
<path d="M86.8057 60.416C85.2696 62.7457 86.0949 65.9236 89.1944 66.1843C92.0914 66.3852 93.0341 64.3652 92.9431 61.8091C95.4421 67.1996 87.9336 70.6176 85.2709 66.0571C84.1612 64.1562 84.8941 61.5046 86.8057 60.416Z" fill="#2F2F2F"/>
<path d="M51.184 71.958C51.7535 72.4678 52.5931 84.2202 50.16 85.0252C48.8492 83.9325 49.706 73.7397 51.184 71.958Z" fill="#2F2F2F"/>
<path d="M57.8822 71.5938C59.3194 72.5857 61.4219 81.8698 60.5784 83.7612C59.8867 84.2581 59.4324 83.0792 59.2171 82.6036C58.4292 80.8631 57.1384 73.5551 57.8822 71.5938Z" fill="#2F2F2F"/>
<path d="M80.0639 68.2959C81.2792 68.3867 87.0007 76.5823 86.4851 78.186C83.8808 78.6019 79.8754 69.9527 80.0639 68.2959Z" fill="#2F2F2F"/>
<path d="M38.0929 20.6554C40.285 20.614 41.9506 28.0797 40.8215 28.5544C39.9735 27.747 36.5878 21.5957 38.0929 20.6554Z" fill="#2F2F2F"/>
<path d="M57.8822 19.9014C60.0786 20.4077 56.0129 26.7542 55.303 27.5474C53.7919 28.75 56.0601 21.8626 56.8335 20.7033C57.1015 20.3015 57.3978 20.0008 57.8822 19.9014Z" fill="#2F2F2F"/>
<path d="M66.538 24.5122C66.9385 24.4804 67.3946 24.6727 67.421 25.1313C67.5088 26.6511 63.4091 29.1715 62.3548 30.2993C60.1313 30.9278 64.3746 25.022 66.538 24.5122Z" fill="#2F2F2F"/>
<path d="M47.7282 19.5338C50.0852 19.4574 48.6701 26.4334 48.1357 27.5474C47.996 27.6427 47.9483 27.6255 47.8006 27.5394C47.2165 26.6473 46.3624 20.7371 47.7282 19.5338Z" fill="#2F2F2F"/>
<path d="M31.2614 25.1318C33.7095 25.3787 37.1622 30.6497 35.8527 30.8644C34.9959 30.3656 29.0724 25.6663 31.2614 25.1318Z" fill="#2F2F2F"/>
</svg>
