<svg width="105" height="105" viewBox="0 0 105 105" fill="none" xmlns="http://www.w3.org/2000/svg">
<path d="M83.8105 19.8524C85.3806 19.7075 87.8385 21.0736 88.1383 22.7232C88.4467 24.419 85.719 27.319 84.7738 28.6317L67.306 52.7268C64.5545 56.5445 61.7339 60.3249 59.0545 64.1931C62.0281 66.2925 64.38 68.6156 67.5792 70.6529C72.911 74.0481 74.0521 72.4036 78.9457 69.7337C82.5054 67.7916 89.693 64.4679 93.3307 65.1469C99.1659 66.2359 100.42 75.0122 94.9647 78.5594C89.5072 82.1079 74.1232 84.5766 67.6739 83.1815C61.8097 81.9127 57.5728 76.2779 54.5022 71.5002C54.5112 71.137 54.4054 70.7968 54.4907 70.4338L54.4622 70.4191C51.831 73.8775 48.7473 78.7268 45.1923 81.2782C38.9612 85.7501 26.2781 83.1401 19.731 80.9802C16.071 79.7729 12.586 78.1405 11.3306 74.138C10.3511 71.0148 11.8922 66.6227 15.2413 65.627C19.0516 64.4944 25.9477 67.607 29.2977 69.4017C31.4807 70.6537 34.0428 72.8855 36.5051 72.7539C41.3868 72.4924 50.2167 62.6273 53.2426 59.2675C52.6768 58.3847 52.0398 57.5412 51.4318 56.6868C48.5904 52.6933 45.804 48.7175 43.169 44.5821C39.277 38.4745 36.0698 31.9187 33.1072 25.3173C32.6823 24.3702 32.3121 22.6763 31.2465 22.2284C30.6711 21.9864 29.8625 22.1035 29.6387 22.7616C29.3807 23.5191 32.1466 29.6625 32.6265 30.6848C34.5862 34.8604 37.0086 38.9543 39.6067 42.7739C40.1808 43.618 40.8661 44.4072 41.3011 45.3372C39.9597 43.821 38.5504 42.3716 37.2713 40.7992C35.3054 38.3826 27.6125 26.8818 27.3201 23.6746C27.1688 22.0135 28.4316 20.5877 30.0967 20.4973C32.5416 20.3646 33.1958 22.642 34.0735 24.3997C39.3387 34.9453 44.495 43.9105 51.3263 53.5061L52.6858 55.4217C53.2475 56.2283 53.7616 57.0752 54.5022 57.7325L54.5477 57.6597C55.5227 56.1243 57.2258 54.2983 58.3858 52.7996L80.9958 22.5791C81.7827 21.5085 82.4201 20.1603 83.8105 19.8524ZM73.4588 37.0805C73.1079 36.9392 72.7482 36.8051 72.4065 36.6425C71.6285 37.359 71.0641 38.311 70.4581 39.1732L62.7318 50.1945C60.1306 53.9443 57.2779 58.0613 54.3888 61.6001C50.8571 65.9264 43.4879 73.4719 38.1296 75.0428C34.9105 75.9867 32.8699 74.5871 30.1941 72.9581C26.9737 70.9978 13.9674 63.5988 13.6595 71.91C13.4251 78.2364 25.7761 80.407 30.273 80.9863C29.9949 79.48 31.04 76.4256 31.7992 75.1051C34.0036 76.4207 35.3325 77.3962 38.0332 77.0017C45.8883 75.854 55.8028 61.3208 60.845 54.4669L73.4588 37.0805ZM78.5222 80.9863C78.4574 79.3285 78.0158 77.6356 77.3653 76.1098C77.1188 75.5317 76.4203 74.6695 76.5612 74.0356L76.6352 73.9626C77.8263 74.0211 78.7898 77.8451 78.8017 78.873C78.8093 79.5372 78.6928 80.1744 78.782 80.8374L78.8013 80.9863C80.3623 80.7825 81.8738 80.4002 83.4143 80.101C83.4512 77.5062 82.7414 74.9031 81.3974 72.6825C81.1906 72.3411 80.9206 71.9762 81.4894 71.8747C82.6163 72.7914 83.6194 75.255 83.7642 76.6686C83.8862 77.8585 83.6126 78.9401 83.6032 80.101C84.2207 79.9037 84.8336 79.7157 85.4733 79.6021C84.9784 76.1114 85.2463 74.6545 82.6229 71.5002C83.5335 70.9968 85.3433 70.0885 86.3307 69.9669C88.328 68.9597 91.9199 68.1704 94.153 68.0502C91.8576 66.709 84.8412 69.4464 82.714 70.4638C79.3847 72.056 75.4938 75.1564 71.746 74.9447C67.2156 74.689 60.7361 68.891 57.8257 65.8507C57.4405 66.3306 55.5508 68.7233 55.5138 69.1673C56.4127 69.4605 56.7989 70.3932 57.3093 71.1321C63.4559 80.0313 67.3116 82.6069 78.5222 80.9863ZM85.0252 21.1253C83.3212 20.0951 82.4683 22.2042 81.6849 23.3532C81.084 24.2342 80.4571 25.0974 79.856 25.9774C80.3092 26.0434 80.7598 26.1208 81.2109 26.1999C81.698 25.3646 84.3285 21.8252 85.0252 21.1253ZM72.4065 36.4452C72.8183 36.5063 73.2291 36.5699 73.639 36.6425C73.9502 35.9936 75.2581 34.2993 75.7809 33.8182C75.4156 33.7068 75.1107 33.5971 74.7965 33.3719L74.7793 33.3514L74.6741 33.3953C74.7075 33.4027 74.7407 33.4125 74.7746 33.417C74.1911 33.5354 72.8913 35.8659 72.4065 36.4452ZM79.4436 26.4948C78.7375 27.4546 78.0985 28.4603 77.4428 29.4547C77.9002 29.4803 78.3565 29.5292 78.8013 29.6442C79.389 28.6908 80.1337 27.7161 80.8617 26.864C80.3894 26.7397 79.9179 26.6101 79.4436 26.4948ZM78.5222 30.1926C78.0365 30.0868 77.5421 29.9951 77.0624 29.8667C76.2468 30.928 75.4843 32.0567 74.7965 33.2046C75.2776 33.1102 75.6638 33.1256 76.1461 33.2046C76.8633 32.1923 77.5782 31.0061 78.5222 30.1926Z" fill="#2F2F2F"/>
<path d="M21.7773 78.5329C19.4636 77.2062 16.4581 76.4448 15.3042 73.7517C14.6131 72.1385 15.2305 69.7674 16.9484 69.0589C18.4932 68.4217 22.6226 70.0117 24.1529 70.6734L24.232 70.7735C24.0776 71.2575 23.7269 71.7583 23.5052 72.2286C22.907 73.4972 22.5358 74.9522 22.3443 76.3437C22.2774 76.8307 22.1841 78.383 22.0467 78.6906L21.9567 78.7074C21.8923 78.6506 21.8314 78.5995 21.7773 78.5329Z" fill="#FEA500"/>
<path d="M24.1528 70.6738L24.232 70.7739C24.0776 71.2579 23.7269 71.7587 23.5052 72.2289C22.907 73.4976 22.5358 74.9526 22.3442 76.344C22.2774 76.8311 22.1841 78.3833 22.0467 78.691L21.9566 78.7078C21.8922 78.651 21.8313 78.5999 21.7772 78.5332C21.1536 76.0938 21.9929 72.0741 24.1528 70.6738Z" fill="#2F2F2F"/>
<path d="M25.1735 71.2949C26.7048 71.9635 28.1777 72.737 29.5599 73.6716C29.723 73.4694 29.976 73.2145 29.8189 73.6716C30.1425 73.8812 30.445 74.0903 30.7276 74.3539C30.0845 75.6902 29.4902 76.9938 29.2566 78.4737C28.9193 80.6122 29.8154 80.8663 27.6673 80.3126H27.4308C26.76 79.9144 24.3489 79.3567 23.4346 79.0844C23.3522 76.6838 24.2636 73.5053 25.1735 71.2949Z" fill="#FEA500"/>
<path d="M29.8189 73.6719C30.1425 73.8815 30.445 74.0906 30.7276 74.3542C30.0845 75.6905 29.4902 76.9941 29.2566 78.474C28.9192 80.6125 29.8154 80.8666 27.6672 80.3129C28.2648 77.6719 28.8895 76.1357 29.8189 73.6719Z" fill="#FEA500"/>
<path d="M29.5599 73.6719C29.723 73.4697 29.976 73.2148 29.819 73.6719C28.8895 76.1357 28.2649 77.672 27.6673 80.313H27.4308C27.2887 78.0714 27.6361 75.1159 29.5599 73.6719Z" fill="#2F2F2F"/>
<path d="M73.4587 37.0801C74.0928 37.3963 74.7187 37.7142 75.2985 38.1252C74.495 39.4717 73.4501 40.7192 72.5256 41.9862C69.7527 45.7861 66.831 49.3979 64.0467 53.1512L58.0549 61.3283C54.9463 65.5482 51.8074 69.942 48.5563 74.0216C46.1755 77.0092 43.9184 79.9188 40.0168 80.9137C37.2146 81.6282 33.1317 81.4641 30.273 80.9859C29.9949 79.4796 31.0399 76.4251 31.7991 75.1046C34.0035 76.4202 35.3324 77.3958 38.0331 77.0012C45.8882 75.8536 55.8027 61.3203 60.845 54.4664L73.4587 37.0801Z" fill="#FEA500"/>
<path d="M94.153 68.0498C96.3049 69.3016 96.2948 72.7935 95.1938 74.6958C93.9584 76.8298 91.3713 77.7685 89.1595 78.5332C89.2871 77.8989 89.4235 77.2627 89.4565 76.6149C89.5549 74.681 88.4026 70.7788 86.3307 69.9665C88.3279 68.9593 91.9199 68.17 94.153 68.0498Z" fill="#FEA500"/>
<path d="M82.6229 71.5002C83.5335 70.9967 85.3433 70.0884 86.3307 69.9668C86.5012 70.6684 86.9388 71.1952 87.2585 71.8285C88.3157 73.9217 88.9883 76.1667 88.8729 78.5335C87.7915 79.0029 86.6109 79.2997 85.4733 79.602C84.9784 76.1113 85.2463 74.6545 82.6229 71.5002Z" fill="#FEA500"/>
<path d="M85.0252 21.125C87.683 23.225 84.5398 24.7526 83.4143 27.101C82.6959 26.722 81.9991 26.4037 81.2109 26.1997C81.698 25.3644 84.3285 21.8249 85.0252 21.125Z" fill="#FEA500"/>
<path d="M78.5222 30.1924C79.1649 30.4881 79.834 30.72 80.4747 31.0193C79.7856 32.1078 79.009 33.1599 78.2512 34.2023C77.6018 33.7142 76.9092 33.4607 76.1461 33.2044C76.8633 32.1921 77.5782 31.0059 78.5222 30.1924Z" fill="#FEA500"/>
<path d="M75.7809 33.8174C76.4749 34.1012 77.1781 34.3719 77.844 34.7175C77.2474 35.65 76.578 36.6311 75.7809 37.4022C75.0869 37.1007 74.3865 36.7865 73.639 36.6417C73.9501 35.9929 75.2581 34.2985 75.7809 33.8174Z" fill="#FEA500"/>
<path d="M80.8617 26.8633C81.5655 27.0755 82.2421 27.3196 82.909 27.6319C82.2497 28.6142 81.5079 29.543 80.8617 30.5327C80.2026 30.0645 79.5746 29.8562 78.8013 29.6435C79.389 28.6901 80.1337 27.7154 80.8617 26.8633Z" fill="#FEA500"/>
<path d="M18.8021 36.1446C20.3085 35.83 23.4446 36.5332 24.7538 37.2281C27.3747 38.6185 27.7547 40.9055 28.6334 43.486C29.4392 45.852 30.6168 47.4895 29.2653 49.9716C26.4859 55.0766 22.5057 55.8291 17.7225 57.2915L17.6367 57.3181C14.9709 57.5509 11.8389 57.0595 9.67309 55.4412C8.61729 54.6523 8.45118 53.0966 8.06188 51.9199L7.04504 48.9253C6.10758 46.1299 6.10075 44.1445 8.0702 41.5936C10.659 38.2403 14.7219 36.6522 18.8021 36.1446ZM14.2658 49.9876C17.9901 49.7075 21.8441 47.8638 24.2887 45.0126C28.3199 40.3108 23.4833 37.2162 18.8021 37.4024C15.1687 37.5515 11.2985 39.0135 8.80299 41.7394C6.96522 43.7469 6.35015 46.5064 8.58493 48.4905C10.1053 49.8402 12.3334 50.0063 14.2658 49.9876ZM12.8629 54.9616C13.2203 54.3334 15.6868 51.5138 15.6964 51.4076C12.8531 51.2224 10.9553 51.6848 8.32434 49.6152C9.62055 52.4621 9.50983 53.8982 12.8629 54.9616Z" fill="#2F2F2F"/>
<path d="M26.9208 44.0176C27.3925 45.1221 27.8471 46.2894 28.157 47.451C26.8326 52.9971 18.1586 56.2351 12.9579 54.9829C12.9264 54.9753 12.8952 54.9644 12.8628 54.9618C13.2203 54.3336 15.6867 51.514 15.6963 51.4078C16.5324 51.0025 17.481 50.942 18.3509 50.6361C22.2429 49.2678 24.7775 47.4672 26.9208 44.0176Z" fill="#FEA500"/>
</svg>
