<svg width="106" height="106" viewBox="0 0 106 106" fill="none" xmlns="http://www.w3.org/2000/svg">
<path d="M90.1325 26.2187C94.0725 26.0603 100.128 26.7145 97.8916 32.0445C95.3227 38.1679 84.742 44.7598 78.6172 48.3052C77.4893 48.958 75.82 50.1113 74.6865 50.5747C74.7045 52.8025 74.4931 55.0403 74.3567 57.2636L73.2735 74.3951C73.1418 76.1281 73.2337 77.8664 72.0843 79.2934C71.6021 79.8922 66.9973 84.1576 66.4936 84.4168C65.2144 85.0746 65.1115 82.6107 64.985 81.8782L62.6052 68.5067C62.0476 65.4354 61.6253 62.1196 60.3659 59.2418C53.4823 62.1241 46.9325 64.0859 39.9971 66.4856C38.4612 69.7141 36.142 73.8938 34.317 76.931C33.7736 77.8355 30.189 80.2679 29.1765 80.5153C27.5641 80.1193 27.9933 78.8713 28.1989 77.6332L29.7029 69.0574L29.7087 68.9791C28.9491 68.4048 26.265 69.2903 26.3523 65.4405L18.9464 61.8713C17.9958 61.4225 11.6603 59.1499 14.6924 57.4576C18.9419 55.0861 18.6482 54.4702 23.1937 55.2728L33.6022 57.1438C34.3023 57.275 35.0348 57.3792 35.7211 57.5692C36.6213 56.8995 37.4823 56.1862 38.3659 55.4962L46.0948 49.3728C47.343 48.3861 48.5496 47.3135 49.8578 46.408C48.7761 45.8997 47.731 45.1819 46.7126 44.5542L32.6813 36.022C29.6905 34.1705 29.2731 33.8403 32.525 32.182L35.6352 30.5732C38.7001 28.9693 41.8406 30.7326 45.1148 31.7578C49.9131 28.3894 48.4078 27.7081 54.7316 30.1591C59.0268 31.8241 63.2312 33.7217 67.5135 35.4167C68.1292 35.1392 68.7145 34.7277 69.289 34.3724C75.6446 30.4411 82.4648 26.4385 90.1325 26.2187ZM64.9247 39.2534C63.0294 38.8468 61.1885 38.1673 59.321 37.6514L40.4845 32.2741C39.628 32.0284 38.7672 31.7189 37.8958 31.5359C36.2878 32.2245 34.3301 33.1482 32.8411 34.0695C34.27 34.8219 35.6445 35.7009 37.0296 36.5315L50.8098 44.9107C53.7049 46.646 56.5818 48.1601 58.5312 51.0067C59.2386 50.5167 59.9715 50.0581 60.6926 49.5877C60.9473 49.3683 61.1976 49.1441 61.4487 48.9207C62.5054 48.5246 63.2977 47.6727 64.2268 47.0593C67.3884 44.972 70.4575 42.7073 73.6981 40.7483C74.7904 40.0879 76.2906 39.0693 77.3307 38.5582L77.6696 38.3683C78.2193 37.918 79.6668 37.1522 80.3465 36.7259C80.6521 36.369 80.9109 36.2104 81.3657 36.0912C82.5402 35.4922 83.6681 34.6974 84.7966 34.013C87.5276 32.3567 90.4024 30.7411 93.3176 29.432C93.9155 29.1635 94.5695 28.985 95.1515 28.6902L95.242 28.6436C92.9872 27.9211 91.4051 28.0931 89.1522 28.0192C89.3066 28.7045 89.3346 29.3587 88.9369 29.9798C88.451 30.739 85.5865 32.9221 84.7788 33.0967C83.9027 33.2861 83.5812 32.1636 84.0853 31.5882C84.576 31.028 88.1419 29.289 87.3537 28.3877C83.2244 28.2151 73.4961 33.8724 70.0573 36.0616L67.0222 38.0215C66.3682 38.4433 65.6556 38.9861 64.9247 39.2534ZM61.8093 35.0109C61.0808 34.8034 60.3703 34.4345 59.6705 34.1409L55.393 32.395C51.3609 30.7336 50.6294 29.1985 47.3499 32.3398C47.655 32.3984 47.9445 32.4998 48.2384 32.5983C49.0939 31.6785 50.3647 31.2551 51.6056 31.198C52.8803 31.1394 50.0061 32.8967 49.8578 33.0528C51.2841 33.5302 52.7619 33.8915 54.2096 34.3008L60.3659 36.0912C60.1612 34.8782 60.6508 34.7687 61.8093 35.0109ZM17.499 59.2418C20.0103 57.1769 20.9056 57.4847 23.5678 57.9429L29.1125 58.9108C30.4832 59.1627 31.8432 59.4822 33.2339 59.6002C33.4726 59.4393 33.6835 59.2418 33.8997 59.0522C31.9149 58.516 20.593 56.5804 20.4498 56.604C19.6612 56.7334 17.1563 58.1845 16.3137 58.6421C16.6914 58.8648 17.1059 59.046 17.499 59.2418ZM61.9238 36.6257C62.8803 36.6976 63.8264 37.0953 64.7513 37.3416L65.239 37L65.7562 36.6257L61.8093 35.0109C62.2843 35.5784 62.235 35.9964 61.9238 36.6257ZM66.1885 78.4239C66.4412 79.4986 66.6634 80.6602 66.7951 81.7554C68.1151 80.7743 70.9698 78.2545 71.1916 76.7743C71.8371 72.4664 71.905 67.145 72.1893 62.7541L72.6806 55.0869C72.7151 54.5132 73.5201 48.741 71.5123 49.8124C70.356 49.8592 62.8364 55.7801 61.4487 56.7252C62.8025 61.1293 63.6078 63.6847 64.4233 68.3545L65.9667 77.0618C66.044 77.4794 66.1957 78.0028 66.1885 78.4239ZM55.3916 50.1175C54.2235 49.0308 52.7298 48.3102 51.4052 47.4379C47.7908 50.238 44.2796 53.1793 40.6872 56.0101L31.808 63.0856C30.7178 63.9688 26.6803 66.0577 29.0208 67.0786H29.7029C30.5992 66.267 31.8621 65.7625 32.8997 65.1424C39.3417 61.2935 45.5069 56.9268 51.7068 52.6957C52.943 51.8523 54.1353 50.9295 55.3916 50.1175Z" fill="#2F2F2F"/>
<path d="M95.242 28.6436C96.6681 29.0642 96.7871 29.8002 96.3004 31.1199C94.3207 36.4867 85.0283 42.1966 80.2577 45.1932C78.2868 46.4313 76.0676 47.937 73.9571 48.9206C71.9992 46.9584 70.2055 48.0681 68.323 49.469L66.1844 51.0514C64.3613 52.3933 62.4551 53.6695 60.6927 55.0881C60.0299 53.6761 59.3515 52.3354 58.5312 51.0067C59.2387 50.5166 59.9716 50.058 60.6927 49.5877C60.9473 49.3682 61.1976 49.144 61.4487 48.9206C62.5054 48.5246 63.2977 47.6726 64.2269 47.0592C67.3885 44.9719 70.4575 42.7072 73.6982 40.7483C74.7904 40.0878 76.2906 39.0692 77.3307 38.5581L77.6696 38.3682C78.2193 37.9179 79.6669 37.1521 80.3465 36.7258C80.6521 36.3689 80.9109 36.2103 81.3658 36.0911C82.5402 35.4921 83.6682 34.6974 84.7967 34.0129C87.5276 32.3567 90.4025 30.741 93.3177 29.4319C93.9156 29.1634 94.5696 28.9849 95.1516 28.6901L95.242 28.6436Z" fill="#FEA500"/>
<path d="M81.3658 36.0908C82.567 36.5128 82.7134 37.7493 81.3658 38.1794C80.5658 37.9083 80.3046 37.5628 80.3466 36.7256C80.6522 36.3687 80.9109 36.2101 81.3658 36.0908Z" fill="#2F2F2F"/>
<path d="M77.6696 38.3679C78.3448 38.3284 79.0394 38.4818 79.0547 39.3037C79.0804 40.671 76.4624 40.4316 77.3307 38.5578L77.6696 38.3679Z" fill="#2F2F2F"/>
<path d="M61.6063 49.3916C62.2477 49.3976 62.675 49.7754 62.6827 50.4392C62.698 51.7702 60.156 51.5807 60.914 49.8119C61.1175 49.5889 61.3237 49.4922 61.6063 49.3916Z" fill="#2F2F2F"/>
<path d="M74.6865 40.4828C76.0165 40.3551 76.3196 41.7488 75.2259 42.3248C73.9385 42.6382 73.4042 41.024 74.6865 40.4828Z" fill="#2F2F2F"/>
<path d="M64.7514 47.0552C66.1157 46.8852 66.5355 48.1842 65.4948 48.921C64.2332 49.2108 63.6671 47.6825 64.7514 47.0552Z" fill="#2F2F2F"/>
<path d="M68.2408 44.7207C69.6306 44.7306 69.7299 46.1879 68.5627 46.6326C67.2234 46.6929 67.0688 45.1207 68.2408 44.7207Z" fill="#2F2F2F"/>
<path d="M71.5123 42.6573C72.7596 42.5279 72.9402 44.0262 71.9468 44.5465C70.4904 44.5686 70.2334 43.1641 71.5123 42.6573Z" fill="#2F2F2F"/>
<path d="M55.3916 50.1172C56.9344 51.5227 59.1141 55.5876 59.7942 57.5689C58.9754 57.7597 58.1814 58.0987 57.3955 58.3939L52.6332 60.2365C46.1475 62.6722 39.0157 65.0663 32.2543 66.5085C31.6373 66.6401 30.2094 67.0515 29.703 67.0782C30.5992 66.2667 31.8621 65.7621 32.8998 65.1421C39.3418 61.2931 45.5069 56.9264 51.7069 52.6953C52.9431 51.8519 54.1354 50.9292 55.3916 50.1172Z" fill="#FEA500"/>
<path d="M50.7378 54.0927C51.9893 53.9974 52.3897 55.3481 51.4053 55.9961C49.99 56.2568 49.5647 54.7105 50.7378 54.0927Z" fill="#2F2F2F"/>
<path d="M41.054 60.7194C42.3627 60.6618 42.607 62.1789 41.4497 62.6193C40.1607 62.6481 39.9296 61.1953 41.054 60.7194Z" fill="#2F2F2F"/>
<path d="M54.1631 51.8135C55.4198 51.8373 55.5046 53.3246 54.3585 53.742C52.9878 53.7161 53.0428 52.2166 54.1631 51.8135Z" fill="#2F2F2F"/>
<path d="M47.6197 56.426C48.8466 56.3655 49.2151 57.6106 48.2385 58.2337C46.8454 58.3501 46.3862 57.0003 47.6197 56.426Z" fill="#2F2F2F"/>
<path d="M44.3078 58.6421C45.6517 58.3051 45.8278 59.8605 44.7269 60.3023C43.5041 60.4425 43.0845 58.9167 44.3078 58.6421Z" fill="#2F2F2F"/>
<path d="M17.4991 59.242C20.0104 57.177 20.9057 57.4849 23.5679 57.9431L29.1126 58.9109C30.4833 59.1629 31.8433 59.4823 33.234 59.6003C31.6613 61.0885 29.3896 62.6211 27.6634 64.0484C24.3022 62.5286 20.8715 60.8142 17.4991 59.242Z" fill="#FEA500"/>
<path d="M37.4773 67.0781C37.5187 67.1247 37.5195 67.1071 37.5104 67.1721C37.4537 67.5818 32.9733 75.6413 32.5756 76.0985C32.064 76.6862 30.7498 77.4665 30.0517 78.0073L30.0038 77.9535C29.9399 76.7264 31.4183 69.9107 31.7056 68.5006C33.189 68.3391 36.0941 67.616 37.4773 67.0781Z" fill="#FEA500"/>
<path d="M48.2385 32.5981C49.094 31.6782 50.3647 31.2549 51.6057 31.1977C52.8804 31.1391 50.0062 32.8964 49.8579 33.0525C49.3182 32.9486 48.7687 32.748 48.2385 32.5981Z" fill="#FEA500"/>
<path d="M19.9198 15.8895C24.7108 15.3267 29.4162 18.6332 30.4532 23.3415C31.7931 29.4266 24.5299 38.833 21.4103 43.7107C20.6017 45.0523 19.4182 42.2975 18.8297 41.4327C16.413 37.8813 11.9139 31.1118 11.2795 26.954C10.3757 21.031 14.1969 16.777 19.9198 15.8895ZM21.1171 28.2096C24.7048 27.8364 24.3537 22.461 20.7136 22.4877C16.8277 22.7755 17.0348 28.3115 21.1171 28.2096ZM25.782 19.2354C22.2908 16.7344 16.8453 17.3168 14.3212 20.9267C10.4168 26.5107 15.7708 32.5697 18.3069 37.3418C18.3185 36.7611 17.2935 35.339 16.9884 34.7411C15.141 31.1217 12.7778 26.2209 15.2635 22.3302C17.0281 19.5681 20.5243 17.9081 23.7812 18.6314C24.3276 18.7527 25.2926 19.3406 25.782 19.2354Z" fill="#2F2F2F"/>
<path d="M18.3069 37.3417C18.3185 36.761 17.2935 35.3389 16.9884 34.741C15.1411 31.1217 12.7778 26.2208 15.2635 22.3301C17.0281 19.568 20.5244 17.908 23.7813 18.6313C24.3276 18.7526 25.2926 19.3406 25.782 19.2353C27.8494 20.7016 29.1682 23.5975 28.8067 26.1386C28.224 30.237 23.5838 37.3413 20.9164 41.1451L19.1807 38.6071C18.9043 38.1959 18.6441 37.702 18.3069 37.3417ZM21.1172 28.2096C24.7048 27.8363 24.3537 22.4609 20.7137 22.4876C16.8277 22.7754 17.0349 28.3114 21.1172 28.2096Z" fill="#FEA500"/>
<path d="M20.7136 20.7253C26.3426 20.3655 27.4355 29.3766 21.1171 29.9691C14.7257 30.1018 14.2532 21.156 20.7136 20.7253ZM21.1171 28.2091C24.7048 27.8358 24.3537 22.4605 20.7136 22.4872C16.8277 22.7749 17.0348 28.311 21.1171 28.2091Z" fill="#2F2F2F"/>
<path d="M75.2259 72.0352C76.1766 72.2273 77.0018 72.6107 77.8693 73.0289C81.6737 74.9392 86.2981 79.3964 83.9781 84.0192C81.9051 88.1496 74.1071 89.7632 69.8936 89.7713C64.8422 89.781 55.9637 87.3277 51.68 85.1874C47.0852 82.8917 38.9319 77.1962 37.2087 72.0352C37.4537 72.22 38.9909 74.4063 39.5792 75.0052C46.7738 82.3292 54.7428 85.7336 64.7631 87.3263C66.5801 87.6151 68.439 87.8799 70.2832 87.8569C74.0431 87.8099 80.9486 86.4975 82.7461 82.7161C84.6535 78.703 78.1515 73.4175 75.2259 72.0352Z" fill="#2F2F2F"/>
<path d="M18.0364 42.0889C18.8471 42.0466 19.3882 42.6907 18.7944 43.4375C18.3015 44.0573 17.1629 44.853 16.5232 45.4153C13.1006 48.423 8.10589 53.517 8.8728 58.3802C8.97271 59.0137 9.61289 60.477 9.38526 61.0068C8.9165 60.8006 8.57825 60.2081 8.36313 59.7642C5.59738 54.0567 12.037 47.2268 15.9232 43.765C16.5821 43.1783 17.2374 42.4738 18.0364 42.0889Z" fill="#2F2F2F"/>
<path d="M23.3612 42.0889C23.7746 42.0928 24.1446 42.3609 24.4618 42.6027C27.6853 45.0591 34.2608 50.2169 30.7375 54.8548C30.6286 54.5029 30.7723 54.0074 30.8108 53.6429C31.2189 49.7768 27.6277 47.0408 24.8647 44.9763C24.204 44.4826 21.2253 42.8168 23.3612 42.0889Z" fill="#2F2F2F"/>
</svg>
