<svg width="116" height="74" viewBox="0 0 116 74" fill="none" xmlns="http://www.w3.org/2000/svg">
<g clip-path="url(#clip0_57_29159)">
<path d="M67.8507 49.6357C41.4227 60.171 17.2372 58.806 13.8488 46.5953C13.6115 45.7453 13.4887 44.8708 13.4641 43.9717C13.4396 43.1871 13.4887 42.3861 13.6115 41.5688C15.4203 29.734 32.5506 14.5646 55.5574 5.3943C61.6549 2.96687 67.6297 1.16877 73.2525 0C65.4853 1.0053 56.8588 3.25293 47.9867 6.78374C20.1509 17.8829 0.524328 37.4332 4.14191 50.4612C4.32197 51.1151 4.57569 51.7281 4.87034 52.3247C5.45963 53.5425 6.26172 54.6459 7.26842 55.6185C15.6085 63.6691 37.5104 63.3503 61.1066 53.9512C69.9786 50.4204 78.0159 46.015 84.7354 41.2419C79.6365 44.3395 73.9564 47.2001 67.8507 49.6357Z" fill="#C73634"/>
<path d="M66.7533 51.2785C39.2531 62.2061 14.0855 60.7758 10.5498 48.0828C10.3042 47.2001 10.1815 46.2847 10.1487 45.353C10.1242 44.5357 10.1733 43.7102 10.3042 42.852C12.1703 30.5677 29.9881 14.818 53.928 5.31257C60.2711 2.79523 67.3998 1.2178 73.2518 0C65.1736 1.03799 55.2867 3.08129 46.0545 6.75105C17.0892 18.2589 -3.33128 38.5611 0.449996 52.0959C0.638241 52.7742 0.900148 53.4117 1.20298 54.0329C1.81682 55.2998 2.65165 56.444 3.69927 57.4575C12.3913 65.8268 35.1772 65.5162 59.7309 55.7575C68.9713 52.0877 77.7451 46.1948 84.7266 41.2419C79.4312 44.4621 73.1045 48.753 66.7533 51.2785Z" fill="black"/>
<path d="M111.801 20.8822C111.605 20.1956 111.343 19.5418 111.04 18.9124C110.418 17.6374 109.575 16.4768 108.511 15.4552C99.7292 6.98777 76.6815 7.3147 51.8658 17.2042C42.5272 20.9312 34.0644 25.5572 26.9929 30.5838C32.362 27.3145 38.3449 24.3149 44.7698 21.7485C72.581 10.6657 98.0187 12.096 101.587 24.9524C101.841 25.8433 101.955 26.7587 101.988 27.715C102.021 28.5405 101.964 29.3823 101.833 30.2405C99.9339 42.6882 81.9114 58.6505 57.7014 68.2948C51.2766 70.853 44.9908 72.7329 39.0815 73.9752C47.2497 72.9127 56.3264 70.5588 65.6569 66.8318C94.9494 55.1605 115.607 34.5804 111.801 20.8822Z" fill="#C73634"/>
<path d="M115.517 20.1879C115.313 19.4768 115.034 18.8148 114.715 18.1691C114.06 16.8532 113.177 15.6599 112.063 14.6056C102.88 5.86845 78.8831 6.08913 53.0935 16.1094C43.3866 19.8855 34.3263 25.4677 26.9929 30.5923C32.5666 27.2658 39.0488 23.3345 45.7274 20.7355C74.619 9.50552 101.112 11.1075 104.894 24.3153C105.164 25.2307 105.287 26.1706 105.328 27.1514C105.36 27.9933 105.311 28.8596 105.18 29.7505C103.265 42.517 84.5878 58.7898 59.4366 68.5649C52.7662 71.1558 45.2363 72.7414 39.0815 73.9837C47.5771 72.9376 58.0125 70.8779 67.7112 67.1019C98.1496 55.2753 119.544 34.2621 115.517 20.1879Z" fill="black"/>
<path d="M15.6888 43.8575L19.0445 29.1948C19.0527 29.1457 19.0609 29.1049 19.0691 29.0558L19.1755 28.3938C19.1918 28.2794 19.2 28.165 19.2 28.0505C19.2 26.375 17.956 25.1572 16.2454 25.1572H11.7521C10.7126 25.1572 9.82868 25.8928 9.63225 26.9145L9.5504 27.3395C9.444 27.9198 9.57495 28.5164 9.92689 28.9986C9.95963 29.0395 9.99237 29.0804 10.0251 29.1212L6.66124 43.7594C6.65306 43.8084 6.64488 43.8575 6.63669 43.9065L6.53029 44.5685C6.51392 44.683 6.50574 44.7974 6.50574 44.9118C6.50574 46.5873 7.74979 47.8051 9.46037 47.8051H13.9537C14.9931 47.8051 15.8771 47.0695 16.0735 46.0479L16.1554 45.6229C16.2618 45.0426 16.1308 44.4378 15.7789 43.9637C15.7461 43.9229 15.7216 43.8902 15.6888 43.8575Z" fill="black"/>
<path d="M37.3708 25.1568H32.8774C31.838 25.1568 30.9541 25.8924 30.7576 26.9141L30.6758 27.3391C30.5694 27.9194 30.7003 28.5242 31.0523 28.9982C31.085 29.0391 31.1177 29.08 31.1505 29.1208L30.5285 31.7935H29.5054L30.1356 28.9737C30.1438 28.9328 30.152 28.8838 30.1602 28.8429L30.2666 28.1809C30.2829 28.0665 30.2911 27.9521 30.2911 27.8376C30.2911 26.1621 29.0471 24.9443 27.3365 24.9443H22.8431C21.8037 24.9443 20.9198 25.6799 20.7233 26.7016L20.6415 27.1266C20.5351 27.7069 20.666 28.3117 21.018 28.7857C21.0507 28.8266 21.0835 28.8675 21.1162 28.9083L17.7196 43.522C17.7114 43.571 17.695 43.6201 17.6869 43.6691L17.5805 44.3311C17.5641 44.4456 17.5559 44.56 17.5559 44.6744C17.5559 46.3499 18.8 47.5677 20.5105 47.5677H25.0039C26.0433 47.5677 26.9272 46.8321 27.1237 45.8105L27.2055 45.3855C27.3119 44.8052 27.181 44.2004 26.829 43.7263C26.8045 43.6936 26.7799 43.6609 26.7554 43.6282L27.803 39.1493H28.777L27.7457 43.7672C27.7375 43.808 27.7293 43.8571 27.7212 43.8979L27.6147 44.56C27.5984 44.6744 27.5902 44.7888 27.5902 44.8951C27.5902 46.5706 28.8343 47.7884 30.5448 47.7884H35.03C36.0694 47.7884 36.9534 47.0528 37.1498 46.0311L37.2316 45.6061C37.338 45.0258 37.2071 44.421 36.8551 43.947C36.8306 43.9143 36.806 43.8816 36.7815 43.8489L40.1617 29.1862C40.1699 29.1372 40.1781 29.0881 40.1863 29.0391L40.2927 28.3771C40.309 28.2626 40.3172 28.1482 40.3172 28.0338C40.3172 26.3746 39.0813 25.1568 37.3708 25.1568Z" fill="black"/>
<path d="M70.272 31.2871C70.272 29.2847 69.65 27.7236 68.4141 26.6529C67.2683 25.664 65.6805 25.1572 63.6752 25.1572H54.9096C53.8701 25.1572 52.9862 25.8928 52.7897 26.9145L52.7079 27.3395C52.6015 27.9198 52.7325 28.5246 53.0844 28.9986C53.1008 29.0231 53.1253 29.0558 53.1499 29.0804L49.7778 43.7594C49.7696 43.8084 49.7615 43.8493 49.7533 43.8983L49.6469 44.5604C49.6305 44.6748 49.6223 44.7892 49.6223 44.9036C49.6223 46.5791 50.8664 47.7969 52.5769 47.7969H57.0703C58.1097 47.7969 58.9937 47.0614 59.1901 46.0397L59.2719 45.6147C59.3783 45.0344 59.2474 44.4296 58.8954 43.9555C58.8709 43.9229 58.8463 43.8902 58.8218 43.8575L59.4193 41.3156H61.7109C64.1008 41.3156 65.9833 40.6945 67.3174 39.4766C68.4714 38.4223 69.298 36.7795 69.8464 34.4583C70.1329 33.2487 70.272 32.2107 70.272 31.2871Z" fill="black"/>
<path d="M85.3397 40.2861L84.9305 39.101C85.4625 38.815 85.9454 38.4554 86.3791 38.0303C87.4759 36.9597 88.237 35.4395 88.6463 33.5188C88.7608 33.0611 88.8263 32.6606 88.8509 32.3009C88.8754 32.0067 88.8836 31.7207 88.8836 31.4428C88.8836 29.0235 87.8851 27.585 87.0421 26.8004C85.8635 25.7052 84.2921 25.1494 82.3687 25.1494H73.6357C72.5963 25.1494 71.7124 25.885 71.5159 26.9066L71.4341 27.3317C71.3277 27.9119 71.4587 28.5168 71.8106 28.9908C71.827 29.0153 71.8515 29.048 71.8761 29.0725L68.504 43.7598C68.4958 43.8088 68.4877 43.8497 68.4795 43.8987L68.3731 44.5607C68.3567 44.6751 68.3485 44.7896 68.3485 44.904C68.3485 46.5795 69.5926 47.7973 71.3031 47.7973H75.7883C76.8277 47.7973 77.7117 47.0617 77.9081 46.0401L77.9899 45.6151C78.2355 46.2444 78.5792 46.7348 79.0212 47.0944C79.6105 47.5685 80.3635 47.8055 81.3211 47.8055H83.2608C84.2675 47.8055 84.8814 47.6911 85.4052 47.3968C86.1009 47.0045 86.5756 46.3261 86.8129 45.3699V45.3617L87.394 42.9506C87.5495 42.3131 87.4022 41.6347 86.993 41.1116C86.6001 40.5967 85.9863 40.2943 85.3397 40.2861Z" fill="black"/>
<path d="M106.718 26.8738C105.229 25.5415 103.109 24.8877 100.228 24.8877C96.6677 24.8877 93.9177 25.844 92.0516 27.732C90.6029 29.2031 89.5389 31.4426 88.8023 34.5893C88.2785 36.7878 88.0248 38.6186 88.0248 40.1797C88.0248 42.8442 88.7941 44.8548 90.3165 46.1625C91.7569 47.4048 93.8522 48.0096 96.7168 48.0096C100.457 48.0096 103.101 47.1596 104.803 45.4187C104.811 45.4106 104.811 45.4106 104.82 45.4024C106.26 43.8985 107.389 41.2014 108.388 36.9186C108.388 36.9023 108.396 36.8859 108.396 36.8696C108.56 36.0686 108.699 35.3167 108.797 34.6301C108.895 33.8945 108.953 33.2162 108.953 32.6114C108.945 30.1267 108.192 28.1978 106.718 26.8738ZM97.478 36.2729C98.0018 33.9518 98.5174 33.1671 98.722 32.9301C98.943 32.6931 99.4423 32.644 99.8269 32.644C99.876 32.644 99.917 32.644 99.9579 32.644C99.9579 32.6931 99.9661 32.7421 99.9661 32.7993C99.9661 33.3306 99.876 34.3686 99.4341 36.3056C98.8202 39.0028 98.321 39.7874 98.1818 39.9672C98.1164 40.0571 97.9527 40.2615 97.2815 40.2615C97.0933 40.2615 96.946 40.2533 96.8314 40.2451C96.8314 40.2288 96.8314 40.2042 96.8314 40.1879C96.8232 39.8038 96.9132 38.7984 97.478 36.2729Z" fill="black"/>
<path d="M16.2546 25.999H11.7612C11.131 25.999 10.5908 26.4485 10.4681 27.0697L10.3862 27.4947C10.3207 27.8462 10.4026 28.214 10.6154 28.5082C10.7054 28.6308 10.82 28.7452 10.9428 28.8269L10.9346 28.9414L7.48069 43.9473C7.47251 43.98 7.46432 44.0045 7.46432 44.0372L7.35792 44.6993C7.34974 44.7647 7.34155 44.8382 7.34155 44.9036C7.34155 46.1296 8.19275 46.9551 9.45317 46.9551H13.9465C14.5767 46.9551 15.1169 46.5055 15.2397 45.8844L15.3215 45.4594C15.387 45.1079 15.3051 44.7401 15.0923 44.4459C15.0023 44.3233 14.8959 44.2252 14.7813 44.1435L14.7977 44.0372L18.2352 29.0068C18.2434 28.9822 18.2434 28.9495 18.2516 28.925L18.358 28.263C18.3662 28.1976 18.3744 28.124 18.3744 28.0587C18.3662 26.8245 17.5232 25.999 16.2546 25.999Z" fill="white"/>
<path d="M37.3713 25.9999H32.8779C32.2477 25.9999 31.7075 26.4494 31.5848 27.0706L31.5029 27.4956C31.4374 27.847 31.5193 28.2148 31.7321 28.509C31.8221 28.6316 31.9367 28.7461 32.0595 28.8278L32.0513 28.9422L31.1919 32.6447H28.4501L29.3176 28.8033C29.3258 28.7787 29.3258 28.7542 29.334 28.7215L29.4404 28.0595C29.4486 27.9941 29.4568 27.9206 29.4568 27.8552C29.4568 26.6292 28.6056 25.8037 27.3452 25.8037H22.8518C22.2216 25.8037 21.6814 26.2532 21.5587 26.8744L21.4768 27.2994C21.4113 27.6508 21.4932 28.0186 21.706 28.3129C21.796 28.4355 21.9106 28.5499 22.0334 28.6316L22.0252 28.7461L18.5386 43.7357C18.5304 43.7684 18.5222 43.7929 18.5222 43.8256L18.4158 44.4876C18.4076 44.553 18.3994 44.6266 18.3994 44.6919C18.3994 45.9179 19.2506 46.7434 20.511 46.7434H25.0044C25.6346 46.7434 26.1748 46.2939 26.2975 45.6727L26.3794 45.2477C26.4448 44.8963 26.363 44.5285 26.1502 44.2342C26.0602 44.1116 25.9538 44.0136 25.8392 43.9318L25.8556 43.8338L27.1405 38.3332H29.8333L28.5647 43.9482C28.5565 43.9727 28.5565 43.9972 28.5483 44.0299L28.4419 44.6919C28.4337 44.7573 28.4255 44.8309 28.4255 44.8963C28.4255 46.1222 29.2767 46.9559 30.5371 46.9559H35.0305C35.6607 46.9559 36.2009 46.5064 36.3236 45.8852L36.4055 45.4602C36.471 45.1088 36.3891 44.741 36.1763 44.4467C36.0863 44.3241 35.9799 44.2261 35.8653 44.1443L35.8817 44.0381L39.3519 29.0076C39.3601 28.9749 39.3683 28.9504 39.3683 28.9177L39.4747 28.2557C39.4829 28.1903 39.4911 28.1167 39.4911 28.0513C39.4747 26.8254 38.6317 25.9999 37.3713 25.9999Z" fill="white"/>
<path d="M67.8666 27.2904C66.8763 26.4322 65.4767 25.999 63.6843 25.999H54.9104C54.2802 25.999 53.74 26.4485 53.6173 27.0697L53.5354 27.4947C53.4699 27.8462 53.5518 28.214 53.7646 28.5082C53.8464 28.6226 53.9528 28.7289 54.0674 28.8106V28.8351L50.5971 43.9555C50.589 43.98 50.589 44.0127 50.5808 44.0454L50.4744 44.7074C50.4662 44.7728 50.458 44.8464 50.458 44.9118C50.458 46.1377 51.3092 46.9632 52.5696 46.9632H57.063C57.6932 46.9632 58.2334 46.5137 58.3561 45.8925L58.438 45.4675C58.5034 45.1161 58.4216 44.7483 58.2088 44.4541C58.1188 44.3315 58.0124 44.2334 57.8978 44.1517L57.9142 44.0372L58.749 40.4819H61.7118C63.8889 40.4819 65.5831 39.9343 66.7453 38.8636C67.7684 37.9319 68.5132 36.428 69.0206 34.2703C69.2907 33.1179 69.4299 32.1371 69.4299 31.2871C69.4299 29.538 68.906 28.1894 67.8666 27.2904ZM60.746 31.6712H61.3189C61.6791 31.6712 61.8837 31.7039 61.9983 31.7284V31.7366C61.9983 31.7693 61.9983 31.8837 61.9573 32.1943C61.9246 32.4313 61.9 32.6275 61.8673 32.7664C61.5236 34.2621 61.2371 34.6381 61.2125 34.6708C61.1798 34.7035 60.9588 34.8097 60.4432 34.8097H60.034L60.746 31.6712Z" fill="white"/>
<path d="M86.4776 27.4215C85.4627 26.4734 84.0795 25.9912 82.3771 25.9912H73.636C73.0058 25.9912 72.4656 26.4407 72.3428 27.0619L72.261 27.4869C72.1955 27.8383 72.2774 28.2061 72.4902 28.5004C72.572 28.6148 72.6784 28.7211 72.793 28.8028V28.8273L69.3227 43.9477C69.3145 43.9722 69.3145 44.0049 69.3064 44.0376L69.2 44.6996C69.1918 44.765 69.1836 44.8386 69.1836 44.904C69.1836 46.1299 70.0348 46.9554 71.2952 46.9554H75.7885C76.4188 46.9554 76.9589 46.5059 77.0817 45.8847L77.1636 45.4597C77.229 45.1083 77.1472 44.7405 76.9344 44.4463C76.8444 44.3237 76.738 44.2256 76.6234 44.1438L76.6397 44.0294L77.3354 40.9318L78.6613 44.9775C78.8659 45.6395 79.1524 46.1136 79.5535 46.4405C79.9872 46.792 80.5602 46.9636 81.3213 46.9636H83.2611C84.1123 46.9636 84.6115 46.8737 84.988 46.6612C85.7246 46.2525 85.9292 45.4352 85.9947 45.1655V45.1573L86.5758 42.7462C86.674 42.3539 86.584 41.9453 86.3303 41.6265C86.0847 41.3078 85.7001 41.1279 85.299 41.1279H84.7343L83.8913 38.6596C84.6115 38.3736 85.2499 37.9567 85.7983 37.4255C86.7804 36.4692 87.4597 35.0961 87.8362 33.3307C87.9426 32.9139 87.9999 32.5543 88.0245 32.2437C88.0409 31.974 88.0572 31.7043 88.0572 31.4427C88.0572 29.7509 87.5252 28.3941 86.4776 27.4215ZM79.488 31.6716H80.4128C80.6011 31.6716 80.7075 31.6961 80.7566 31.7043C80.7648 31.7288 80.773 31.7615 80.773 31.8023L80.7157 32.2764C80.4947 33.2245 80.2573 33.4778 80.2328 33.5024C80.1755 33.5596 79.9381 33.6577 79.4389 33.6577H79.0215L79.488 31.6716Z" fill="white"/>
<path d="M106.155 27.5031C104.829 26.3098 102.889 25.7295 100.229 25.7295C96.9064 25.7295 94.3528 26.604 92.6504 28.3204C91.3163 29.6771 90.326 31.7858 89.6221 34.7772C89.1229 36.8859 88.8691 38.7003 88.8691 40.1715C88.8691 42.5744 89.5403 44.3725 90.8662 45.5168C92.1511 46.6202 94.0663 47.1596 96.7181 47.1596C100.221 47.1596 102.668 46.3995 104.199 44.8221L104.207 44.8139C105.517 43.4408 106.613 40.7927 107.563 36.7224C107.563 36.7143 107.571 36.7061 107.571 36.6979C107.735 35.9133 107.866 35.1777 107.956 34.5157C108.054 33.8209 108.103 33.1834 108.103 32.6113C108.103 30.38 107.448 28.6555 106.155 27.5031ZM98.8461 40.4821C98.6415 40.7518 98.2487 41.1033 97.2747 41.1033C96.4399 41.1033 96.1534 40.9643 96.0961 40.9316C96.0716 40.8907 95.9815 40.6946 95.9815 40.1879C95.9815 39.6811 96.0961 38.5696 96.6527 36.0931C97.1765 33.7801 97.7248 32.7911 98.0932 32.3825C98.4369 31.9983 99.0016 31.8103 99.8283 31.8103C100.368 31.8103 100.589 31.9166 100.63 31.9575C100.647 31.9738 100.802 32.1536 100.802 32.8075C100.802 33.6411 100.614 34.8835 100.254 36.4936C99.6319 39.1826 99.108 40.147 98.8461 40.4821Z" fill="white"/>
<path d="M17.0564 28.0498L16.95 28.7118L13.4961 43.8077L13.4143 44.4452C13.4143 44.9029 13.6189 45.1644 14.0281 45.2135L13.9463 45.6385H9.45296C8.92096 45.6385 8.65906 45.3933 8.65906 44.8947L8.76546 44.2327L12.2439 29.1368L12.293 28.5238C12.293 28.0416 12.0884 27.7801 11.6792 27.7229L11.761 27.2979H16.2543C16.7863 27.306 17.0564 27.5512 17.0564 28.0498Z" fill="#C73634"/>
<path d="M38.165 28.05L38.0586 28.712L34.5801 43.8079L34.4983 44.4454C34.4983 44.9031 34.7029 45.1647 35.1121 45.2137L35.0303 45.6387H30.5369C30.0049 45.6387 29.743 45.3935 29.743 44.8949L29.8494 44.2329L31.47 36.9915H26.1009L24.554 43.5791L24.4722 44.2166C24.4722 44.6743 24.6768 44.9358 25.086 44.9849L25.0042 45.4099H20.5108C19.9788 45.4099 19.7169 45.1647 19.7169 44.6661L19.8233 44.0041L23.3345 28.9245L23.3918 28.3116C23.3918 27.8375 23.1872 27.5678 22.7779 27.5188L22.8598 27.0938H27.3531C27.8851 27.0938 28.147 27.3389 28.147 27.8375L28.0406 28.4995L26.8211 33.9429H32.2475L33.3606 29.137L33.4097 28.5241C33.4097 28.05 33.2051 27.7803 32.7959 27.7313L32.8777 27.3063H37.371C37.903 27.3063 38.165 27.5514 38.165 28.05Z" fill="#C73634"/>
<path d="M68.1194 31.287C68.1194 32.0307 67.9966 32.9216 67.7511 33.9678C67.3091 35.8476 66.6789 37.1553 65.8604 37.8991C64.9356 38.7491 63.5606 39.1741 61.7109 39.1741H57.7004L56.6119 43.8083L56.53 44.503C56.53 44.928 56.7346 45.1732 57.1439 45.2223L57.062 45.6473H52.5687C52.0367 45.6473 51.7748 45.4021 51.7748 44.9035L51.8812 44.2415L55.3596 29.0639L55.4415 28.4509C55.4415 28.0259 55.2369 27.7889 54.8276 27.7316L54.9095 27.3066H63.6833C65.1566 27.3066 66.2615 27.6336 67.0063 28.2792C67.7511 28.9249 68.1194 29.9221 68.1194 31.287ZM63.3068 31.7365C63.3068 31.2625 63.1595 30.911 62.8567 30.6903C62.5539 30.4697 62.0382 30.3552 61.318 30.3552H59.6975L58.3961 36.1173H60.4422C61.2934 36.1173 61.8827 35.913 62.2265 35.5043C62.5621 35.0957 62.8731 34.2784 63.1595 33.036C63.1923 32.8562 63.2332 32.6356 63.2659 32.3577C63.2905 32.088 63.3068 31.8836 63.3068 31.7365Z" fill="#C73634"/>
<path d="M86.74 31.4504C86.74 31.6793 86.7318 31.9163 86.7155 32.1533C86.6991 32.3904 86.6418 32.6928 86.56 33.0442C86.2408 34.5644 85.6842 35.7168 84.8821 36.4933C84.1701 37.1798 83.278 37.6049 82.1976 37.7683L83.6626 42.0184C83.769 42.3044 84.0882 42.4434 84.6202 42.4434H85.3077L84.7266 44.8545C84.6366 45.2141 84.5138 45.4348 84.3583 45.5247C84.2028 45.6146 83.8345 45.6554 83.2698 45.6554H81.33C80.8881 45.6554 80.5689 45.5819 80.3888 45.4266C80.2006 45.2795 80.045 44.9934 79.9223 44.5847L77.7697 38.0299H76.6566L75.3389 43.8083L75.2571 44.503C75.2571 44.928 75.4617 45.165 75.8709 45.2223L75.7891 45.6473H71.2957C70.7637 45.6473 70.5018 45.4021 70.5018 44.9035L70.6082 44.2415L74.0867 29.0639L74.1685 28.4509C74.1685 28.0259 73.9639 27.7889 73.5547 27.7316L73.6365 27.3066H82.3777C83.7445 27.3066 84.8085 27.6663 85.5778 28.3855C86.3554 29.0966 86.74 30.1182 86.74 31.4504ZM82.0912 31.8754C82.0912 31.4178 81.9602 31.05 81.6901 30.7721C81.4282 30.4942 81.0026 30.3634 80.4134 30.3634H78.4491L77.3605 34.9813H79.4312C80.2087 34.9813 80.7817 34.8014 81.1418 34.45C81.5019 34.0986 81.7965 33.4529 82.0093 32.513L82.0912 31.8754Z" fill="#C73634"/>
<path d="M106.793 32.619C106.793 33.1339 106.752 33.7061 106.662 34.3436C106.572 34.9811 106.449 35.6758 106.293 36.4441C105.409 40.2528 104.394 42.7456 103.265 43.9307C102.005 45.2221 99.8275 45.8678 96.7255 45.8678C94.4256 45.8678 92.756 45.4264 91.7247 44.5437C90.6935 43.661 90.186 42.2062 90.186 40.1874C90.186 38.8061 90.4234 37.1061 90.9063 35.0873C91.5447 32.3657 92.4368 30.4123 93.5908 29.2517C95.0477 27.7805 97.2575 27.0449 100.237 27.0449C102.537 27.0449 104.223 27.519 105.287 28.4752C106.285 29.3743 106.793 30.7555 106.793 32.619ZM102.111 32.7988C102.111 32.006 101.931 31.4176 101.579 31.0498C101.227 30.682 100.638 30.494 99.8275 30.494C98.6243 30.494 97.7158 30.8291 97.1184 31.4993C96.4309 32.2758 95.8498 33.7142 95.3751 35.7984C94.9085 37.8826 94.6712 39.3456 94.6712 40.1792C94.6712 41.0292 94.8676 41.6095 95.2523 41.9283C95.6451 42.247 96.3163 42.4023 97.2739 42.4023C98.4279 42.4023 99.2955 42.0264 99.8766 41.2744C100.458 40.5225 101.014 39.0268 101.522 36.7792C101.915 35.0628 102.111 33.7388 102.111 32.7988Z" fill="#C73634"/>
</g>
<defs>
<clipPath id="clip0_57_29159">
<rect width="116" height="74" fill="white"/>
</clipPath>
</defs>
</svg>
